<?xml version="1.0" encoding="UTF-8" ?>
<!DOCTYPE svg PUBLIC "-//W3C//DTD SVG 1.1//EN" "http://www.w3.org/Graphics/SVG/1.1/DTD/svg11.dtd">
<svg width="2196pt" height="467pt" viewBox="0 0 2196 467" version="1.1" xmlns="http://www.w3.org/2000/svg">
<g id="#ffffffff">
<path fill="#ffffff" opacity="1.00" d=" M 226.67 0.00 L 240.00 0.00 C 275.70 1.25 311.19 10.30 342.72 27.19 C 393.44 53.97 433.58 100.10 452.91 154.12 C 470.13 201.65 471.25 254.80 456.14 303.03 C 445.34 337.73 426.20 369.76 400.88 395.82 C 365.89 432.07 318.87 456.51 269.01 464.00 C 251.17 466.60 233.02 467.94 215.03 466.01 C 186.57 463.79 158.53 456.32 132.78 443.98 C 102.38 429.45 75.21 408.22 53.71 382.28 C 31.25 355.25 15.00 323.08 6.69 288.92 C 2.71 273.01 0.81 256.66 0.00 240.30 L 0.00 226.97 C 0.99 200.50 5.97 174.13 15.60 149.42 C 34.91 98.99 72.42 55.87 119.58 29.61 C 152.19 11.22 189.31 1.30 226.67 0.00 M 113.59 73.27 C 204.52 169.54 295.42 265.85 386.39 362.09 C 413.98 329.43 430.67 287.73 432.98 245.01 C 435.06 209.78 427.67 174.01 411.55 142.60 C 393.52 107.14 364.63 77.34 329.77 58.18 C 296.55 39.77 257.98 31.30 220.09 33.87 C 181.76 36.29 144.29 50.21 113.59 73.27 M 103.02 88.00 C 103.41 90.28 105.43 92.54 104.64 94.84 C 101.57 96.51 100.00 91.66 99.68 89.41 C 98.28 89.51 96.89 89.61 95.49 89.72 C 95.84 94.09 98.62 98.67 103.14 99.60 C 106.50 100.34 110.16 97.44 109.91 93.94 C 109.55 91.43 108.21 89.22 107.54 86.79 C 107.41 85.23 109.24 84.85 110.16 85.79 C 111.59 86.81 111.92 88.60 112.45 90.15 C 113.69 90.05 114.94 89.95 116.19 89.84 C 116.11 85.42 112.66 80.80 107.96 80.91 C 104.49 80.88 101.77 84.74 103.02 88.00 M 109.06 102.91 C 107.96 108.18 112.59 113.54 117.95 113.37 C 118.06 112.43 118.29 110.56 118.41 109.62 C 116.04 109.32 113.29 107.84 113.43 105.08 C 113.94 101.34 117.93 97.68 121.84 98.69 C 123.80 99.33 124.43 101.43 124.76 103.24 C 125.73 103.16 127.67 103.01 128.63 102.93 C 128.50 99.44 126.55 96.04 123.23 94.72 C 117.29 92.11 110.35 96.97 109.06 102.91 M 88.47 95.59 C 79.86 104.74 72.01 114.61 65.22 125.19 C 43.65 158.48 32.48 198.33 33.49 237.98 C 34.22 273.40 44.63 308.55 63.36 338.62 C 82.87 370.14 111.31 396.07 144.54 412.52 C 176.98 428.73 213.92 435.67 250.04 432.62 C 291.25 429.35 331.17 412.68 362.65 385.92 C 271.29 289.11 179.88 192.35 88.47 95.59 M 117.99 117.02 C 119.09 118.20 120.23 119.36 121.42 120.46 C 125.96 115.87 130.79 111.57 135.44 107.10 C 134.35 105.95 133.27 104.80 132.18 103.65 C 127.45 108.10 122.72 112.56 117.99 117.02 M 124.25 123.64 C 127.15 126.71 130.05 129.79 132.95 132.87 C 133.91 131.95 134.88 131.03 135.85 130.12 C 134.03 128.20 132.22 126.28 130.42 124.33 C 131.39 123.43 132.35 122.52 133.30 121.61 C 134.81 123.15 136.30 124.71 137.79 126.27 C 138.76 125.41 139.73 124.56 140.71 123.72 C 139.29 122.04 137.79 120.44 136.26 118.87 C 137.10 118.06 137.95 117.25 138.81 116.45 C 140.55 118.30 142.30 120.15 144.04 122.01 C 145.00 121.10 145.96 120.19 146.93 119.28 C 144.09 116.28 141.27 113.26 138.42 110.27 C 133.71 114.74 128.99 119.19 124.25 123.64 M 135.50 135.67 C 136.55 136.71 137.59 137.78 138.63 138.84 C 141.96 135.79 145.25 132.68 148.04 129.12 C 146.16 133.77 144.60 138.54 142.82 143.22 C 143.89 144.45 144.99 145.66 146.12 146.85 C 150.85 142.45 155.47 137.91 160.29 133.59 C 159.29 132.43 158.27 131.29 157.23 130.17 C 154.01 133.20 150.64 136.12 148.07 139.75 C 149.53 134.96 151.60 130.37 152.93 125.53 C 151.83 124.44 150.75 123.34 149.68 122.23 C 144.96 126.71 140.15 131.11 135.50 135.67 M 152.08 148.95 C 151.24 154.12 155.79 159.21 161.02 159.06 C 161.17 157.81 161.33 156.56 161.49 155.31 C 159.18 155.03 156.48 153.62 156.50 150.96 C 156.77 147.63 159.74 144.76 162.97 144.17 C 165.71 143.73 167.72 146.30 167.70 148.84 C 169.03 148.78 170.37 148.71 171.71 148.63 C 171.55 145.21 169.72 141.83 166.47 140.47 C 160.41 137.66 153.13 142.77 152.08 148.95 M 161.07 162.69 C 163.97 165.77 166.86 168.85 169.77 171.91 C 170.74 170.99 171.71 170.08 172.67 169.17 C 170.85 167.24 169.03 165.31 167.24 163.35 C 168.22 162.46 169.20 161.56 170.18 160.66 C 171.65 162.22 173.13 163.78 174.60 165.35 C 175.58 164.45 176.55 163.54 177.53 162.64 C 176.05 161.05 174.56 159.48 173.08 157.90 C 173.93 157.10 174.78 156.30 175.64 155.50 C 177.37 157.37 179.11 159.23 180.92 161.04 C 181.85 160.13 182.79 159.22 183.74 158.31 C 180.90 155.32 178.09 152.31 175.24 149.33 C 170.53 153.79 165.79 158.24 161.07 162.69 M 186.21 169.27 C 182.61 171.17 179.42 174.69 179.18 178.92 C 178.99 184.30 184.64 189.17 189.95 187.64 C 194.23 186.35 198.10 182.68 198.84 178.17 C 199.75 171.75 192.02 165.89 186.21 169.27 M 190.46 193.86 C 191.55 195.04 192.67 196.19 193.83 197.32 C 195.30 195.81 196.84 194.36 198.40 192.94 C 200.02 194.59 201.61 196.49 203.93 197.15 C 208.36 198.68 213.68 193.67 211.80 189.17 C 210.29 185.67 207.06 183.34 204.65 180.49 C 199.92 184.94 195.19 189.40 190.46 193.86 M 202.75 206.89 C 205.70 209.94 208.50 213.14 211.55 216.09 C 212.46 215.17 213.38 214.25 214.30 213.34 C 212.52 211.42 210.72 209.51 208.93 207.60 C 209.84 206.69 210.75 205.78 211.66 204.88 C 213.33 206.32 214.81 207.95 216.30 209.58 C 217.27 208.63 218.24 207.67 219.15 206.65 C 217.59 205.18 216.12 203.62 214.78 201.95 C 215.66 201.19 216.54 200.44 217.44 199.70 C 219.06 201.59 220.78 203.41 222.50 205.23 C 223.47 204.32 224.44 203.41 225.41 202.50 C 222.58 199.51 219.75 196.51 216.92 193.51 C 212.18 197.95 207.46 202.41 202.75 206.89 M 214.00 218.81 C 215.02 219.89 216.04 220.99 217.06 222.08 C 220.49 219.03 223.79 215.82 226.67 212.23 C 224.62 216.88 223.10 221.74 221.30 226.50 C 222.38 227.70 223.48 228.89 224.58 230.08 C 229.34 225.65 234.05 221.17 238.79 216.71 C 237.76 215.61 236.72 214.51 235.70 213.42 C 232.35 216.49 229.05 219.63 226.19 223.18 C 228.25 218.55 229.77 213.71 231.47 208.95 C 230.37 207.78 229.27 206.61 228.17 205.44 C 223.44 209.89 218.72 214.35 214.00 218.81 M 241.69 219.95 C 237.14 224.58 232.12 228.75 227.66 233.48 C 228.71 234.48 229.74 235.52 230.76 236.55 C 234.04 233.53 237.30 230.47 240.07 226.97 C 238.31 231.65 236.61 236.34 234.96 241.06 C 236.07 242.25 237.21 243.41 238.40 244.53 C 242.97 239.97 247.77 235.65 252.43 231.18 C 251.41 230.09 250.39 229.00 249.38 227.91 C 246.08 230.78 243.05 233.94 240.09 237.16 C 241.97 232.65 243.51 228.00 245.13 223.39 C 244.02 222.21 242.89 221.04 241.69 219.95 M 241.30 247.77 C 244.19 250.84 247.09 253.91 249.98 256.98 C 250.95 256.06 251.92 255.15 252.88 254.23 C 251.08 252.32 249.27 250.40 247.46 248.49 C 248.43 247.56 249.41 246.64 250.39 245.72 C 251.87 247.29 253.35 248.86 254.84 250.43 C 255.80 249.52 256.77 248.61 257.74 247.70 C 256.26 246.12 254.77 244.54 253.29 242.98 C 254.14 242.17 254.99 241.37 255.84 240.57 C 257.56 242.40 259.30 244.22 261.00 246.07 C 261.98 245.24 262.97 244.42 263.96 243.61 C 261.30 240.38 258.30 237.46 255.47 234.39 C 250.75 238.86 246.01 243.30 241.30 247.77 M 262.52 249.60 C 258.46 253.04 262.35 257.96 262.95 262.02 C 262.48 262.25 261.55 262.71 261.08 262.94 C 258.90 261.62 257.93 259.28 257.56 256.86 C 256.16 256.94 254.77 257.04 253.38 257.14 C 253.70 260.79 255.52 264.45 258.84 266.25 C 261.79 268.11 266.11 266.88 267.43 263.59 C 269.09 259.88 264.83 256.56 265.78 253.00 C 268.47 251.76 269.87 255.57 270.32 257.59 C 271.58 257.48 272.84 257.37 274.11 257.25 C 274.25 251.69 267.69 245.66 262.52 249.60 M 272.62 268.53 C 272.96 270.52 275.83 273.86 272.88 274.92 C 270.22 274.29 269.44 271.30 269.00 268.97 C 267.60 269.05 266.21 269.14 264.82 269.23 C 265.08 273.76 268.17 278.60 272.94 279.19 C 276.78 279.77 280.48 275.54 278.84 271.85 C 278.44 269.63 276.26 267.36 277.25 265.16 C 279.86 263.85 281.28 267.71 281.75 269.70 C 282.69 269.61 284.58 269.45 285.52 269.36 C 285.38 264.86 281.81 260.16 276.99 260.44 C 273.13 260.64 270.85 265.19 272.62 268.53 M 288.19 285.10 C 288.55 287.07 291.42 290.67 288.11 291.36 C 285.62 290.44 285.00 287.67 284.47 285.39 C 283.43 285.47 281.34 285.62 280.29 285.70 C 280.63 290.10 283.50 294.79 288.11 295.59 C 292.15 296.44 296.15 291.92 294.27 288.06 C 294.02 285.89 291.03 283.01 293.31 281.23 C 295.83 281.26 296.72 284.16 297.26 286.15 C 298.52 286.03 299.77 285.90 301.04 285.78 C 300.87 281.13 296.96 276.19 291.95 276.97 C 288.31 277.51 286.45 281.95 288.19 285.10 M 294.55 297.59 C 290.87 303.30 298.47 311.50 304.44 308.20 C 308.80 305.68 311.98 301.62 315.76 298.36 C 314.75 297.26 313.75 296.15 312.76 295.04 C 309.30 297.83 306.45 301.33 302.84 303.93 C 300.43 305.99 296.66 302.40 298.54 299.92 C 301.33 296.29 305.18 293.65 308.19 290.21 C 307.10 289.13 306.04 288.03 304.99 286.92 C 301.53 290.49 297.29 293.40 294.55 297.59 M 304.52 314.82 C 305.60 315.96 306.69 317.11 307.79 318.26 C 309.34 316.80 310.88 315.34 312.44 313.89 C 314.09 315.53 315.69 317.47 318.03 318.12 C 322.48 319.62 327.77 314.55 325.83 310.06 C 324.29 306.60 321.12 304.26 318.70 301.45 C 313.97 305.90 309.24 310.35 304.52 314.82 M 316.80 327.84 C 317.88 328.98 318.96 330.12 320.04 331.27 C 321.59 329.84 323.12 328.39 324.62 326.92 C 326.27 328.41 327.74 330.26 329.91 331.01 C 334.42 332.91 340.10 327.73 338.11 323.09 C 336.58 319.61 333.39 317.29 330.97 314.46 C 326.24 318.92 321.51 323.37 316.80 327.84 M 340.39 330.54 C 336.58 331.84 333.31 335.00 332.13 338.88 C 330.36 344.64 336.25 350.95 342.13 349.62 C 346.38 348.62 350.08 345.16 351.32 340.96 C 352.91 334.96 346.37 328.53 340.39 330.54 M 343.12 355.72 C 344.18 356.87 345.25 358.02 346.31 359.19 C 348.08 357.55 349.79 355.84 351.76 354.44 C 353.91 357.28 350.69 360.44 350.30 363.36 C 351.48 364.62 352.65 365.88 353.83 367.14 C 354.89 364.54 355.64 361.84 356.37 359.14 C 360.32 359.99 364.97 357.25 365.01 352.97 C 364.37 348.38 360.00 345.73 357.28 342.37 C 352.56 346.83 347.84 351.27 343.12 355.72 M 366.03 357.41 C 367.22 358.69 368.42 359.96 369.62 361.24 C 365.85 364.78 362.09 368.34 358.32 371.89 C 359.41 373.03 360.50 374.18 361.60 375.33 C 365.37 371.79 369.11 368.23 372.89 364.70 C 374.09 365.97 375.29 367.25 376.50 368.52 C 377.45 367.61 378.41 366.71 379.37 365.81 C 375.92 362.08 372.41 358.41 368.93 354.72 C 367.96 355.61 366.99 356.51 366.03 357.41 Z" />
<path fill="#ffffff" opacity="1.00" d=" M 504.33 17.42 C 532.57 17.30 560.81 17.41 589.06 17.37 C 594.48 17.31 600.31 17.05 605.16 19.95 C 610.11 22.71 612.38 28.49 612.70 33.92 C 613.09 39.64 612.53 46.01 608.66 50.56 C 605.10 54.76 599.31 56.08 594.04 56.06 C 574.61 56.06 555.18 56.06 535.75 56.06 C 535.74 70.21 535.75 84.35 535.75 98.49 C 551.51 98.51 567.27 98.49 583.03 98.50 C 588.16 98.49 593.75 99.68 597.40 103.57 C 600.99 107.41 601.92 112.92 601.87 118.00 C 601.82 123.25 600.68 128.99 596.69 132.73 C 593.06 136.20 587.82 137.20 582.96 137.24 C 567.22 137.27 551.49 137.24 535.75 137.25 C 535.72 154.47 535.79 171.69 535.72 188.91 C 535.63 194.92 534.21 201.40 529.71 205.70 C 525.05 210.18 518.26 211.33 512.04 211.26 C 505.85 211.22 499.15 209.83 494.70 205.21 C 490.33 200.70 489.06 194.14 489.12 188.06 C 489.16 136.35 489.06 84.63 489.17 32.92 C 489.20 24.80 496.20 17.62 504.33 17.42 Z" />
<path fill="#ffffff" opacity="1.00" d=" M 647.73 26.76 C 650.12 21.18 655.97 17.49 661.99 17.40 C 691.34 17.33 720.68 17.40 750.03 17.36 C 755.02 17.30 760.42 18.32 764.15 21.89 C 767.95 25.49 769.13 30.97 769.20 36.02 C 769.29 41.21 768.43 46.87 764.81 50.84 C 761.36 54.68 756.00 55.99 751.02 56.05 C 731.64 56.08 712.26 56.05 692.88 56.06 C 692.87 68.00 692.87 79.94 692.88 91.87 C 708.25 91.88 723.63 91.86 739.00 91.88 C 744.26 91.92 750.00 93.28 753.56 97.45 C 757.20 101.72 757.93 107.64 757.73 113.05 C 757.56 117.95 756.23 123.19 752.51 126.63 C 748.91 130.01 743.78 131.05 739.00 131.12 C 723.63 131.14 708.25 131.12 692.88 131.13 C 692.87 144.75 692.87 158.37 692.88 172.00 C 712.92 172.01 732.97 171.98 753.02 172.01 C 758.30 172.04 764.06 173.26 767.77 177.33 C 771.60 181.52 772.42 187.51 772.24 192.98 C 772.09 197.98 770.74 203.35 766.88 206.82 C 762.87 210.46 757.19 211.33 751.96 211.26 C 722.00 211.21 692.04 211.31 662.07 211.21 C 653.46 211.29 646.02 203.59 646.28 195.00 C 646.21 144.02 646.27 93.03 646.25 42.04 C 646.40 36.94 645.60 31.58 647.73 26.76 Z" />
<path fill="#ffffff" opacity="1.00" d=" M 886.65 20.65 C 891.12 16.70 897.49 17.40 903.00 17.37 C 907.79 17.45 912.59 17.20 917.37 17.50 C 922.95 17.95 927.95 21.77 929.96 26.97 C 939.40 51.46 947.84 76.31 956.87 100.95 C 957.19 102.07 957.70 103.16 958.64 103.92 C 967.98 79.29 977.27 54.63 986.51 29.96 C 988.98 22.68 996.31 17.42 1003.99 17.38 C 1009.67 17.39 1015.35 17.30 1021.04 17.43 C 1025.23 17.61 1029.88 19.17 1031.98 23.09 C 1034.32 27.47 1032.89 32.69 1030.94 36.93 C 1015.54 69.77 1000.14 102.61 984.74 135.46 C 983.67 138.02 982.11 140.41 981.37 143.09 C 981.22 158.06 981.37 173.04 981.31 188.01 C 981.30 194.20 980.05 200.94 975.50 205.48 C 970.70 210.26 963.54 211.40 957.04 211.25 C 950.94 211.14 944.34 209.58 940.13 204.85 C 936.02 200.30 934.90 193.90 934.93 187.96 C 934.96 173.97 934.91 159.99 934.96 146.01 C 934.86 144.67 935.13 143.23 934.53 141.98 C 918.24 106.84 901.91 71.70 885.61 36.56 C 883.23 31.63 882.12 24.73 886.65 20.65 Z" />
<path fill="#ffffff" opacity="1.00" d=" M 1092.76 26.49 C 1095.97 20.80 1102.45 17.24 1108.96 17.37 C 1118.64 17.38 1128.32 17.35 1138.00 17.38 C 1144.04 17.46 1149.97 20.73 1153.18 25.87 C 1154.92 28.66 1155.61 31.91 1156.61 35.00 C 1172.83 87.52 1189.03 140.04 1205.25 192.55 C 1206.54 196.73 1206.97 201.66 1204.47 205.49 C 1202.05 209.36 1197.36 211.06 1192.99 211.20 C 1187.32 211.31 1181.66 211.24 1176.00 211.24 C 1167.37 211.45 1159.63 204.64 1158.39 196.17 C 1155.90 186.35 1153.36 176.56 1150.86 166.75 C 1131.80 166.74 1112.74 166.75 1093.69 166.75 C 1090.89 177.48 1088.23 188.25 1085.39 198.97 C 1083.48 205.76 1077.02 210.88 1069.97 211.18 C 1064.65 211.33 1059.32 211.24 1054.01 211.23 C 1049.34 211.18 1044.25 209.53 1041.66 205.40 C 1039.00 201.44 1039.57 196.29 1040.99 191.98 C 1057.19 139.81 1073.37 87.64 1089.56 35.47 C 1090.53 32.45 1091.24 29.31 1092.76 26.49 M 1120.98 54.96 C 1115.48 80.39 1108.83 105.55 1102.61 130.81 C 1115.80 130.81 1128.99 130.82 1142.19 130.81 C 1135.03 104.60 1129.00 78.11 1122.54 51.72 C 1121.18 52.21 1121.33 53.84 1120.98 54.96 Z" />
<path fill="#ffffff" opacity="1.00" d=" M 1238.79 19.77 C 1244.24 16.31 1250.92 17.62 1257.01 17.37 C 1263.00 17.63 1269.32 16.48 1274.99 18.99 C 1279.22 20.75 1282.45 24.34 1284.48 28.38 C 1295.84 50.30 1307.21 72.21 1318.57 94.12 C 1328.19 111.57 1335.56 130.10 1343.77 148.22 C 1344.78 150.05 1345.00 152.61 1347.13 153.58 C 1344.27 126.81 1340.41 100.02 1340.81 73.02 C 1340.82 61.72 1340.79 50.41 1340.83 39.11 C 1340.85 33.00 1342.32 26.29 1347.16 22.13 C 1352.31 17.70 1359.53 17.04 1366.04 17.46 C 1371.53 17.80 1377.31 19.72 1380.81 24.20 C 1384.57 28.91 1385.25 35.20 1385.19 41.03 C 1385.15 92.35 1385.24 143.66 1385.15 194.98 C 1385.29 202.22 1380.20 209.37 1372.95 210.78 C 1367.35 211.72 1361.63 211.06 1355.98 211.25 C 1351.01 211.11 1345.78 211.87 1341.09 209.84 C 1337.26 208.29 1334.35 205.05 1332.59 201.39 C 1320.93 178.61 1309.26 155.84 1297.60 133.06 C 1288.17 115.59 1280.79 97.14 1272.62 79.06 C 1271.79 77.56 1271.54 75.41 1269.73 74.76 C 1271.85 97.49 1275.10 120.17 1275.49 143.04 C 1275.51 158.70 1275.50 174.37 1275.50 190.04 C 1275.45 196.14 1273.76 202.81 1268.80 206.80 C 1263.27 211.19 1255.72 211.68 1248.95 211.02 C 1242.95 210.47 1236.82 207.53 1233.95 202.00 C 1230.43 195.58 1231.28 188.04 1231.19 181.01 C 1231.18 132.31 1231.20 83.62 1231.18 34.93 C 1230.89 29.01 1233.56 22.83 1238.79 19.77 Z" />
<path fill="#ffffff" opacity="1.00" d=" M 823.51 18.77 C 831.55 16.59 840.86 16.49 848.24 20.82 C 854.70 24.77 856.96 32.78 856.92 39.94 C 856.95 89.28 856.93 138.62 856.93 187.97 C 856.95 194.33 855.63 201.27 850.79 205.80 C 846.07 210.26 839.23 211.36 832.97 211.26 C 826.87 211.17 820.26 209.77 815.89 205.20 C 811.50 200.68 810.27 194.09 810.31 188.01 C 810.33 138.34 810.27 88.67 810.33 38.99 C 810.13 30.42 814.75 21.16 823.51 18.77 Z" />
<path fill="#ffffff" opacity="1.00" d=" M 1429.50 445.50 C 1429.49 302.83 1429.49 160.17 1429.50 17.50 C 1435.16 17.50 1440.83 17.50 1446.50 17.50 C 1446.51 160.17 1446.50 302.83 1446.50 445.50 C 1440.83 445.50 1435.16 445.50 1429.50 445.50 Z" />
<path fill="#ffffff" opacity="1.00" d=" M 1664.40 19.58 C 1669.78 17.97 1676.27 18.51 1680.60 22.40 C 1686.85 28.11 1685.60 40.05 1677.78 43.78 C 1671.78 46.66 1663.58 46.15 1658.84 41.14 C 1652.81 34.58 1655.37 21.98 1664.40 19.58 Z" />
<path fill="#ffffff" opacity="1.00" d=" M 1581.69 72.68 C 1591.88 57.94 1612.01 51.64 1629.02 56.55 C 1633.62 58.14 1638.64 60.37 1641.77 64.03 C 1637.93 69.55 1633.81 74.88 1629.87 80.33 C 1626.49 77.69 1622.41 75.49 1617.97 76.02 C 1611.62 76.22 1605.71 80.28 1603.18 86.08 C 1599.92 93.40 1599.89 102.08 1602.67 109.55 C 1604.80 115.19 1609.75 120.00 1615.88 120.79 C 1622.07 121.78 1628.02 118.83 1632.78 115.14 C 1636.14 120.85 1639.51 126.56 1642.89 132.28 C 1628.57 144.49 1605.87 145.36 1590.57 134.49 C 1582.22 128.57 1576.88 119.06 1575.07 109.08 C 1572.74 96.73 1574.31 83.14 1581.69 72.68 Z" />
<path fill="#ffffff" opacity="1.00" d=" M 1727.49 56.64 C 1740.53 52.60 1756.56 55.45 1765.44 66.44 C 1774.24 77.46 1775.64 92.73 1773.12 106.18 C 1756.84 106.22 1740.57 106.13 1724.29 106.23 C 1725.57 112.14 1729.11 117.92 1734.93 120.25 C 1743.97 124.05 1754.41 121.81 1762.59 116.91 C 1765.44 122.14 1768.35 127.35 1771.21 132.59 C 1756.52 142.74 1736.14 145.48 1720.08 136.95 C 1710.41 131.90 1703.43 122.41 1700.85 111.88 C 1697.89 99.97 1698.75 86.82 1704.59 75.90 C 1709.36 66.86 1717.70 59.70 1727.49 56.64 M 1727.88 79.94 C 1725.68 82.52 1724.60 85.81 1723.87 89.05 C 1733.31 89.07 1742.75 89.06 1752.20 89.06 C 1752.10 84.62 1750.98 79.61 1747.06 76.97 C 1741.12 73.19 1732.32 74.36 1727.88 79.94 Z" />
<path fill="#ffffff" opacity="1.00" d=" M 1814.00 67.49 C 1819.83 61.88 1826.75 56.92 1834.87 55.46 C 1843.03 53.99 1852.47 55.24 1858.46 61.47 C 1864.69 67.98 1866.34 77.41 1866.65 86.09 C 1866.74 104.06 1866.66 122.02 1866.70 139.99 C 1858.02 140.01 1849.35 140.00 1840.69 140.00 C 1840.68 123.99 1840.69 107.99 1840.68 91.99 C 1840.58 88.06 1840.56 83.83 1838.46 80.38 C 1836.45 77.20 1832.23 76.82 1828.86 77.28 C 1823.95 77.86 1820.11 81.32 1816.77 84.67 C 1816.87 103.11 1816.78 121.55 1816.81 140.00 C 1808.14 140.00 1799.48 140.00 1790.81 140.00 C 1790.81 112.31 1790.81 84.63 1790.81 56.94 C 1797.87 56.94 1804.93 56.94 1812.00 56.94 C 1812.66 60.45 1813.22 63.99 1814.00 67.49 Z" />
<path fill="#ffffff" opacity="1.00" d=" M 1888.94 73.79 C 1899.03 58.04 1920.32 51.24 1937.93 56.85 C 1942.19 58.45 1946.85 60.59 1949.77 64.02 C 1945.93 69.54 1941.80 74.88 1937.87 80.34 C 1934.73 77.95 1931.09 75.77 1927.00 75.98 C 1920.58 75.86 1914.30 79.59 1911.51 85.40 C 1908.08 92.36 1907.90 100.71 1910.14 108.07 C 1912.01 114.31 1917.15 119.90 1923.82 120.79 C 1930.03 121.80 1936.00 118.83 1940.79 115.14 C 1944.13 120.86 1947.51 126.56 1950.88 132.28 C 1936.56 144.49 1913.88 145.35 1898.57 134.50 C 1889.91 128.37 1884.54 118.40 1882.87 108.04 C 1880.92 96.42 1882.37 83.80 1888.94 73.79 Z" />
<path fill="#ffffff" opacity="1.00" d=" M 1985.93 57.62 C 1999.72 52.08 2017.72 54.82 2027.11 67.05 C 2035.47 78.05 2036.78 92.97 2034.31 106.19 C 2018.01 106.28 2001.71 106.00 1985.43 106.33 C 1986.83 111.81 1989.82 117.31 1995.15 119.80 C 2004.33 124.21 2015.33 122.00 2023.76 116.90 C 2026.62 122.14 2029.53 127.35 2032.39 132.59 C 2016.18 143.88 1992.58 145.94 1976.28 133.77 C 1962.14 123.28 1957.96 103.69 1961.61 87.17 C 1964.35 74.19 1973.48 62.52 1985.93 57.62 M 1989.50 79.44 C 1987.04 82.09 1985.82 85.59 1985.05 89.05 C 1994.49 89.07 2003.94 89.06 2013.39 89.06 C 2013.29 84.51 2012.09 79.35 2007.96 76.79 C 2002.20 73.36 1993.98 74.35 1989.50 79.44 Z" />
<path fill="#ffffff" opacity="1.00" d=" M 211.73 63.78 C 226.41 53.71 248.17 55.44 260.65 68.30 C 265.92 74.02 271.21 79.73 276.31 85.60 C 279.20 89.45 284.66 89.61 289.03 89.12 C 295.05 88.01 301.21 87.47 307.08 85.64 C 323.73 83.16 341.16 92.71 348.23 107.95 C 352.59 116.33 352.46 125.96 353.39 135.12 C 353.44 139.35 355.99 143.26 359.43 145.59 C 368.92 150.41 379.93 152.70 387.91 160.15 C 400.80 171.28 405.53 190.95 398.31 206.51 C 394.58 213.93 389.97 220.87 385.99 228.16 C 383.90 232.17 384.73 237.13 387.26 240.75 C 392.38 250.19 399.56 259.00 400.98 269.98 C 403.67 286.50 395.09 304.28 380.16 312.02 C 374.65 314.69 368.89 316.81 363.27 319.23 C 356.82 312.36 350.33 305.54 343.89 298.67 C 350.47 295.03 357.66 292.69 364.52 289.63 C 371.28 286.58 374.65 277.75 371.02 271.14 C 366.24 262.03 359.33 253.76 357.30 243.45 C 355.33 233.69 356.61 223.16 361.52 214.44 C 364.90 208.52 368.45 202.69 371.79 196.74 C 373.86 192.99 372.64 188.58 371.28 184.82 C 368.70 180.63 363.59 179.38 359.37 177.49 C 353.00 174.64 346.12 172.65 340.51 168.36 C 333.22 162.96 327.96 154.87 326.13 145.97 C 324.86 139.37 324.90 132.60 323.93 125.96 C 322.89 120.16 317.80 115.33 311.92 114.75 C 306.94 114.34 302.08 115.91 297.18 116.50 C 293.02 116.81 289.20 118.93 284.99 118.70 C 273.54 118.89 262.62 113.29 254.71 105.26 C 249.94 100.03 245.12 94.83 240.46 89.50 C 237.60 86.30 232.73 86.29 228.84 87.09 C 223.56 88.44 220.66 93.44 217.04 97.06 C 211.47 102.81 206.79 109.72 199.58 113.60 C 191.46 118.10 181.42 120.32 172.45 117.09 C 162.91 107.00 153.18 97.05 143.92 86.71 C 147.90 85.81 152.00 85.02 156.09 85.41 C 163.35 86.90 170.70 87.85 178.00 89.14 C 183.42 90.14 189.14 87.84 192.46 83.46 C 198.87 76.90 204.23 69.17 211.73 63.78 Z" />
<path fill="#ffffff" opacity="1.00" d=" M 1657.06 56.94 C 1665.73 56.94 1674.39 56.94 1683.06 56.94 C 1683.06 84.63 1683.06 112.31 1683.06 140.00 C 1674.39 140.00 1665.72 140.00 1657.06 140.00 C 1657.07 112.31 1657.06 84.62 1657.06 56.94 Z" />
<path fill="#ffffff" opacity="1.00" d=" M 192.33 138.20 C 205.84 135.82 220.19 138.08 232.11 144.95 C 245.05 152.28 254.91 164.80 259.06 179.08 C 262.02 188.98 262.27 199.64 259.87 209.69 C 237.32 185.90 214.84 162.04 192.33 138.20 Z" />
<path fill="#ffffff" opacity="1.00" d=" M 112.98 139.45 C 119.29 146.21 125.75 152.83 131.97 159.67 C 127.85 165.09 122.70 169.87 116.42 172.66 C 110.95 175.03 105.40 177.23 99.90 179.57 C 93.58 182.37 90.07 190.07 92.55 196.64 C 97.27 206.44 104.92 215.02 106.99 225.96 C 108.93 235.64 107.64 246.09 102.79 254.76 C 100.02 259.56 97.21 264.34 94.41 269.12 C 92.77 271.79 91.01 274.72 91.35 277.99 C 91.85 281.67 92.70 285.83 96.26 287.77 C 105.14 292.88 115.66 294.85 123.96 301.04 C 129.66 305.35 134.13 311.29 136.61 318.00 C 139.77 326.31 138.96 335.40 140.49 344.03 C 142.06 350.79 149.07 355.57 155.95 354.53 C 162.67 353.52 169.44 352.61 176.00 350.78 C 188.61 349.31 201.09 355.28 209.74 364.19 C 214.54 369.42 219.30 374.70 224.06 379.97 C 228.81 383.95 236.67 383.35 241.01 378.97 C 244.89 374.90 248.60 370.64 252.41 366.49 C 258.57 359.35 266.80 353.84 276.01 351.57 C 279.90 350.71 284.02 350.06 287.93 351.19 C 293.57 352.31 299.30 352.99 304.95 354.06 C 308.45 354.79 312.07 354.75 315.56 353.95 C 321.97 360.76 328.43 367.53 334.81 374.36 C 326.43 379.82 315.80 383.00 305.93 380.21 C 299.59 379.40 293.35 377.92 287.00 377.30 C 281.22 376.77 276.25 380.51 272.91 384.87 C 266.28 391.61 260.88 399.91 252.41 404.54 C 237.54 412.85 217.13 410.20 205.51 397.52 C 200.11 391.56 194.65 385.66 189.35 379.62 C 186.23 377.15 181.91 377.10 178.12 377.45 C 173.37 378.22 168.61 378.94 163.88 379.84 C 155.83 382.58 146.89 381.31 139.15 378.15 C 126.37 372.89 117.04 360.55 115.03 346.94 C 114.24 341.16 114.00 335.32 113.33 329.52 C 112.48 325.23 109.27 321.43 105.18 319.85 C 100.14 317.76 95.09 315.68 90.05 313.56 C 78.57 308.56 69.55 298.15 66.50 285.97 C 63.98 276.31 65.25 265.69 70.19 256.99 C 73.58 251.11 77.04 245.26 80.45 239.38 C 82.64 235.78 82.69 231.01 80.54 227.38 C 77.28 221.73 73.94 216.12 70.69 210.47 C 65.34 200.99 64.05 189.35 67.17 178.92 C 70.29 168.02 78.17 158.49 88.50 153.72 C 94.59 151.04 100.80 148.65 106.89 145.99 C 109.73 144.73 111.68 142.18 112.98 139.45 Z" />
<path fill="#ffffff" opacity="1.00" d=" M 189.05 173.23 C 191.92 171.55 195.63 174.98 194.13 177.96 C 192.69 181.20 188.21 185.17 184.75 182.37 C 181.81 178.98 185.89 174.65 189.05 173.23 Z" />
<path fill="#ffffff" opacity="1.00" d=" M 147.60 176.13 C 171.00 200.84 194.32 225.63 217.73 250.34 C 218.26 250.96 218.74 251.63 219.16 252.34 C 207.40 255.73 194.57 255.44 183.07 251.17 C 166.28 245.10 152.62 231.06 147.04 214.10 C 142.92 201.85 143.21 188.27 147.60 176.13 Z" />
<path fill="#ffffff" opacity="1.00" d=" M 201.10 190.36 C 202.46 189.07 203.83 187.79 205.19 186.51 C 206.40 187.96 209.02 190.05 207.09 192.00 C 205.14 194.48 202.51 192.06 201.10 190.36 Z" />
<path fill="#ffffff" opacity="1.00" d=" M 1639.52 191.37 C 1649.22 188.68 1660.37 191.20 1667.59 198.34 C 1674.49 205.02 1677.81 214.57 1678.94 223.93 C 1680.41 236.59 1678.87 250.11 1672.05 261.12 C 1666.37 270.46 1656.15 277.39 1645.01 277.45 C 1637.57 277.69 1630.58 274.06 1625.33 269.00 C 1626.59 281.16 1626.08 293.39 1626.21 305.59 C 1617.53 305.68 1608.86 305.60 1600.19 305.63 C 1600.18 267.88 1600.19 230.12 1600.19 192.37 C 1607.26 192.38 1614.33 192.37 1621.41 192.38 C 1622.04 195.11 1622.69 197.84 1623.35 200.57 C 1628.10 196.55 1633.43 193.00 1639.52 191.37 M 1626.22 218.42 C 1626.19 229.44 1626.11 240.47 1626.26 251.49 C 1631.06 255.44 1638.09 257.72 1643.96 254.81 C 1649.63 251.83 1651.65 245.06 1652.36 239.13 C 1652.94 232.24 1653.05 224.96 1650.33 218.48 C 1648.67 214.35 1644.48 211.50 1640.02 211.55 C 1634.48 211.08 1629.81 214.62 1626.22 218.42 Z" />
<path fill="#ffffff" opacity="1.00" d=" M 1717.79 192.73 C 1731.31 187.67 1748.59 190.38 1757.88 202.08 C 1766.54 213.07 1767.84 228.17 1765.44 241.53 C 1749.15 241.62 1732.86 241.52 1716.57 241.58 C 1717.79 247.25 1721.01 252.84 1726.47 255.33 C 1735.59 259.55 1746.45 257.43 1754.78 252.31 C 1757.77 257.49 1760.57 262.77 1763.49 267.99 C 1749.06 277.98 1729.17 280.80 1713.22 272.82 C 1703.38 268.00 1696.13 258.64 1693.34 248.11 C 1690.41 237.11 1690.79 225.04 1695.30 214.53 C 1699.50 204.66 1707.71 196.50 1717.79 192.73 M 1720.24 215.25 C 1717.99 217.83 1716.92 221.15 1716.13 224.42 C 1725.59 224.45 1735.05 224.43 1744.51 224.43 C 1744.33 220.10 1743.32 215.23 1739.57 212.56 C 1733.68 208.58 1724.77 209.69 1720.24 215.25 Z" />
<path fill="#ffffff" opacity="1.00" d=" M 2140.50 199.50 C 2145.82 194.00 2153.44 191.31 2160.94 190.57 C 2172.57 189.35 2184.86 192.57 2193.95 200.06 C 2194.46 200.13 2195.49 200.28 2196.00 200.36 L 2196.00 201.50 C 2195.53 201.73 2194.59 202.19 2194.12 202.42 C 2191.24 207.44 2187.33 211.76 2184.02 216.49 C 2177.56 212.06 2169.53 207.62 2161.51 210.30 C 2157.81 211.41 2156.82 216.80 2159.84 219.17 C 2163.89 222.45 2169.16 223.50 2173.91 225.38 C 2181.94 228.36 2190.52 232.81 2193.98 241.16 C 2199.20 252.78 2193.23 267.50 2181.91 272.95 C 2164.91 281.40 2143.62 277.41 2129.07 265.81 C 2132.91 260.38 2136.79 254.97 2140.64 249.53 C 2147.37 254.45 2155.27 259.06 2163.93 258.19 C 2167.02 258.01 2170.82 256.51 2171.32 253.02 C 2171.99 250.40 2170.08 248.07 2167.98 246.82 C 2161.98 243.20 2154.99 241.73 2148.86 238.38 C 2142.87 235.27 2137.20 230.56 2134.99 223.98 C 2132.19 215.65 2134.29 205.78 2140.50 199.50 Z" />
<path fill="#ffffff" opacity="1.00" d=" M 1806.25 202.96 C 1812.03 197.34 1818.93 192.40 1827.01 190.91 C 1835.28 189.34 1844.89 190.67 1850.90 197.06 C 1857.09 203.71 1858.69 213.22 1858.93 222.00 C 1858.95 239.81 1858.93 257.62 1858.94 275.44 C 1850.27 275.44 1841.60 275.44 1832.94 275.44 C 1832.92 258.96 1832.95 242.48 1832.92 226.01 C 1832.79 222.40 1832.60 218.49 1830.47 215.44 C 1828.37 212.53 1824.35 212.28 1821.10 212.70 C 1816.20 213.26 1812.45 216.76 1809.06 220.00 C 1809.07 238.48 1809.06 256.96 1809.06 275.44 C 1800.39 275.44 1791.72 275.44 1783.06 275.44 C 1783.06 247.75 1783.05 220.06 1783.07 192.37 C 1790.14 192.38 1797.21 192.36 1804.29 192.38 C 1804.90 195.91 1805.54 199.44 1806.25 202.96 Z" />
<path fill="#ffffff" opacity="1.00" d=" M 1902.18 202.95 C 1908.01 197.36 1914.89 192.36 1923.01 190.90 C 1931.29 189.34 1940.92 190.68 1946.90 197.12 C 1953.31 204.03 1954.74 213.95 1954.92 223.02 C 1954.96 240.49 1954.92 257.96 1954.94 275.44 C 1946.25 275.44 1937.56 275.44 1928.88 275.44 C 1928.87 259.61 1928.86 243.78 1928.88 227.95 C 1928.82 223.74 1928.90 219.12 1926.47 215.49 C 1924.38 212.55 1920.34 212.28 1917.08 212.70 C 1912.19 213.26 1908.43 216.72 1905.05 219.97 C 1905.07 238.46 1905.06 256.95 1905.06 275.44 C 1896.37 275.44 1887.68 275.44 1879.00 275.44 C 1879.01 247.75 1878.98 220.05 1879.01 192.36 C 1886.05 192.42 1893.09 192.30 1900.13 192.41 C 1901.05 195.86 1901.43 199.45 1902.18 202.95 Z" />
<path fill="#ffffff" opacity="1.00" d=" M 1996.95 192.61 C 2010.45 187.70 2027.63 190.49 2036.81 202.19 C 2045.39 213.18 2046.63 228.20 2044.29 241.52 C 2027.99 241.64 2011.69 241.51 1995.40 241.58 C 1996.62 247.35 1999.97 253.01 2005.56 255.45 C 2014.67 259.53 2025.38 257.35 2033.66 252.31 C 2036.54 257.53 2039.44 262.76 2042.31 268.00 C 2027.86 277.99 2007.94 280.81 1991.98 272.78 C 1982.63 268.16 1975.58 259.46 1972.58 249.52 C 1969.37 238.82 1969.45 227.03 1973.33 216.52 C 1977.31 205.68 1986.03 196.56 1996.95 192.61 M 1999.57 214.69 C 1997.01 217.32 1995.84 220.89 1994.93 224.35 C 2004.39 224.53 2013.87 224.40 2023.34 224.42 C 2023.17 219.89 2021.99 214.72 2017.84 212.18 C 2012.15 208.83 2004.07 209.75 1999.57 214.69 Z" />
<path fill="#ffffff" opacity="1.00" d=" M 2064.00 202.01 C 2068.68 195.60 2076.37 192.05 2084.07 190.89 C 2097.19 188.63 2110.88 192.72 2121.21 200.98 C 2117.36 206.16 2113.48 211.31 2109.66 216.50 C 2103.38 212.20 2095.77 207.94 2087.91 210.04 C 2084.25 210.68 2082.29 215.48 2084.72 218.38 C 2087.41 221.37 2091.49 222.43 2095.13 223.82 C 2102.58 226.37 2110.36 229.27 2115.81 235.21 C 2122.12 242.06 2122.76 252.73 2119.11 261.01 C 2116.01 268.04 2109.37 272.94 2102.18 275.21 C 2086.07 280.43 2067.81 276.25 2054.71 265.81 C 2058.53 260.36 2062.43 254.96 2066.27 249.53 C 2073.67 255.02 2082.94 260.15 2092.46 257.64 C 2096.16 256.91 2098.52 252.10 2096.06 248.98 C 2093.42 245.91 2089.37 244.68 2085.77 243.15 C 2078.01 240.26 2069.82 237.09 2064.36 230.56 C 2057.60 222.66 2057.99 210.22 2064.00 202.01 Z" />
<path fill="#ffffff" opacity="1.00" d=" M 284.87 236.31 C 291.86 229.53 302.83 227.48 311.91 230.87 C 321.27 234.20 328.34 243.13 329.33 253.03 C 330.32 261.08 327.20 269.27 321.57 275.02 C 309.28 262.17 297.22 249.10 284.87 236.31 Z" />
<path fill="#ffffff" opacity="1.00" d=" M 672.21 257.19 C 676.92 252.77 683.70 251.64 689.94 251.73 C 695.88 251.74 702.28 253.06 706.68 257.33 C 711.10 261.60 712.56 268.00 712.62 273.96 C 712.64 291.14 712.62 308.32 712.63 325.50 C 733.90 325.50 755.17 325.50 776.44 325.50 C 776.44 308.31 776.42 291.11 776.44 273.92 C 776.49 268.00 777.90 261.62 782.30 257.36 C 786.94 252.83 793.75 251.64 800.00 251.73 C 806.16 251.72 812.88 253.16 817.22 257.86 C 821.49 262.43 822.57 268.96 822.56 275.00 C 822.57 324.01 822.56 373.02 822.57 422.03 C 822.62 428.33 821.49 435.23 816.85 439.88 C 812.48 444.29 806.01 445.60 800.02 445.64 C 793.71 445.70 786.82 444.50 782.18 439.86 C 777.76 435.50 776.44 429.01 776.43 423.01 C 776.43 404.01 776.44 385.00 776.43 366.00 C 755.16 366.00 733.90 366.00 712.63 366.00 C 712.63 383.32 712.63 400.63 712.63 417.95 C 712.77 424.63 712.73 431.92 708.72 437.62 C 705.02 443.07 698.22 445.30 691.91 445.57 C 684.98 445.92 677.27 445.00 672.03 440.00 C 667.23 435.40 665.96 428.41 666.00 422.04 C 666.00 373.01 665.99 323.98 666.01 274.95 C 666.00 268.61 667.36 261.68 672.21 257.19 Z" />
<path fill="#ffffff" opacity="1.00" d=" M 885.70 268.03 C 885.39 259.59 892.58 251.88 901.06 251.80 C 930.70 251.68 960.34 251.79 989.98 251.75 C 995.04 251.73 1000.53 252.97 1004.10 256.82 C 1007.83 260.84 1008.70 266.61 1008.61 271.90 C 1008.50 276.86 1007.35 282.21 1003.66 285.80 C 1000.09 289.30 994.89 290.40 990.05 290.44 C 970.80 290.44 951.56 290.44 932.32 290.44 C 932.32 302.38 932.28 314.32 932.34 326.26 C 947.54 326.24 962.75 326.25 977.95 326.25 C 983.21 326.24 988.94 327.44 992.64 331.48 C 996.44 335.60 997.28 341.51 997.15 346.90 C 997.04 351.96 995.78 357.42 991.93 360.98 C 988.23 364.47 982.92 365.48 977.99 365.50 C 962.77 365.50 947.55 365.51 932.33 365.49 C 932.30 379.12 932.31 392.75 932.32 406.38 C 952.23 406.37 972.14 406.37 992.04 406.38 C 997.24 406.39 1002.87 407.42 1006.70 411.23 C 1010.58 415.02 1011.66 420.71 1011.67 425.93 C 1011.68 431.17 1010.63 436.87 1006.79 440.70 C 1002.97 444.57 997.30 445.64 992.07 445.63 C 962.06 445.61 932.05 445.65 902.04 445.61 C 896.45 445.64 890.84 442.80 888.02 437.90 C 886.01 434.66 885.56 430.76 885.67 427.03 C 885.71 374.03 885.66 321.03 885.70 268.03 Z" />
<path fill="#ffffff" opacity="1.00" d=" M 1073.17 258.13 C 1078.37 252.44 1086.66 251.39 1093.97 251.80 C 1100.61 252.05 1107.78 254.68 1111.26 260.70 C 1115.50 267.72 1114.42 276.24 1114.56 284.06 C 1114.57 324.83 1114.56 365.60 1114.57 406.37 C 1132.04 406.37 1149.51 406.38 1166.98 406.37 C 1172.50 406.27 1178.50 406.45 1183.17 409.78 C 1187.42 412.72 1189.36 417.95 1189.72 422.94 C 1190.16 428.73 1189.62 435.16 1185.78 439.82 C 1182.24 444.13 1176.40 445.56 1171.05 445.62 C 1143.35 445.65 1115.65 445.61 1087.96 445.64 C 1083.93 445.74 1079.68 445.60 1076.10 443.54 C 1070.87 440.74 1067.82 434.84 1067.94 428.99 C 1067.92 378.68 1067.95 328.38 1067.93 278.07 C 1067.72 271.17 1068.29 263.49 1073.17 258.13 Z" />
<path fill="#ffffff" opacity="1.00" d=" M 1241.57 268.02 C 1241.27 259.53 1248.55 251.82 1257.07 251.79 C 1274.41 251.69 1291.75 251.78 1309.09 251.75 C 1327.99 251.68 1347.76 254.42 1363.94 264.85 C 1376.09 272.41 1383.79 285.74 1386.30 299.63 C 1389.78 318.97 1387.00 340.63 1373.93 356.02 C 1363.75 369.08 1348.06 376.64 1331.99 379.41 C 1317.55 382.20 1302.79 380.98 1288.19 381.25 C 1288.17 395.16 1288.21 409.07 1288.17 422.97 C 1288.11 429.08 1286.72 435.70 1282.14 440.08 C 1277.62 444.42 1271.08 445.64 1265.03 445.64 C 1258.72 445.66 1251.86 444.37 1247.27 439.72 C 1242.92 435.34 1241.57 428.92 1241.56 422.96 C 1241.57 371.31 1241.54 319.66 1241.57 268.02 M 1288.19 288.69 C 1288.19 307.32 1288.18 325.94 1288.19 344.56 C 1296.12 344.51 1304.05 344.66 1311.99 344.48 C 1320.62 344.08 1329.98 341.77 1335.81 334.92 C 1342.08 327.41 1342.89 316.81 1341.35 307.50 C 1340.22 300.67 1335.45 294.67 1328.95 292.22 C 1316.02 286.96 1301.76 289.17 1288.19 288.69 Z" />
<path fill="#ffffff" opacity="1.00" d=" M 205.00 283.07 C 211.09 281.65 217.79 283.28 222.51 287.38 C 227.80 291.83 230.44 299.15 229.23 305.96 C 228.22 312.37 223.83 318.10 217.93 320.81 C 211.17 324.02 202.66 323.00 196.89 318.23 C 191.24 313.77 188.40 306.11 189.75 299.05 C 191.04 291.30 197.33 284.72 205.00 283.07 Z" />
<path fill="#ffffff" opacity="1.00" d=" M 2031.57 327.78 C 2032.53 320.43 2033.49 313.09 2034.49 305.75 C 2041.65 305.75 2048.82 305.75 2056.00 305.75 C 2056.00 313.10 2055.99 320.46 2056.01 327.82 C 2062.49 327.81 2068.99 327.81 2075.49 327.81 C 2075.48 334.59 2075.55 341.37 2075.46 348.16 C 2068.97 348.08 2062.48 348.14 2056.00 348.12 C 2056.02 359.08 2055.95 370.05 2056.03 381.01 C 2056.10 385.06 2057.60 389.69 2061.54 391.53 C 2065.54 393.45 2070.06 392.24 2074.07 390.97 C 2075.43 397.25 2076.80 403.54 2078.16 409.82 C 2067.85 412.96 2056.35 414.49 2046.06 410.56 C 2038.93 407.84 2033.80 401.33 2031.80 394.10 C 2029.05 384.97 2030.17 375.33 2029.94 365.95 C 2029.93 360.01 2029.93 354.07 2029.94 348.12 C 2026.20 348.12 2022.47 348.12 2018.75 348.12 C 2018.74 341.68 2018.74 335.25 2018.75 328.81 C 2023.02 328.46 2027.29 328.14 2031.57 327.78 Z" />
<path fill="#ffffff" opacity="1.00" d=" M 319.23 307.48 C 320.49 308.94 323.08 311.02 321.12 312.97 C 319.18 315.43 316.55 313.01 315.16 311.32 C 316.51 310.03 317.87 308.75 319.23 307.48 Z" />
<path fill="#ffffff" opacity="1.00" d=" M 331.51 320.48 C 332.83 321.95 335.51 324.33 333.20 326.18 C 331.19 328.38 328.83 325.91 327.44 324.33 C 328.79 323.04 330.15 321.76 331.51 320.48 Z" />
<path fill="#ffffff" opacity="1.00" d=" M 1712.09 327.20 C 1722.02 323.90 1733.77 326.24 1741.35 333.58 C 1748.52 340.43 1751.89 350.33 1752.95 359.99 C 1754.79 376.11 1751.25 394.41 1738.38 405.38 C 1731.77 411.03 1722.69 414.01 1714.04 412.47 C 1708.39 411.44 1703.34 408.32 1699.27 404.37 C 1700.50 416.55 1700.05 428.78 1700.12 441.00 C 1691.45 441.00 1682.79 441.00 1674.12 441.00 C 1674.13 403.27 1674.12 365.54 1674.13 327.81 C 1681.19 327.81 1688.26 327.81 1695.34 327.81 C 1695.97 330.54 1696.63 333.27 1697.29 336.00 C 1701.67 332.27 1706.55 328.96 1712.09 327.20 M 1700.09 354.03 C 1700.17 364.94 1700.10 375.86 1700.13 386.78 C 1704.92 390.94 1712.18 393.16 1718.12 390.12 C 1723.81 386.92 1725.73 379.98 1726.36 373.92 C 1726.86 367.18 1726.91 360.08 1724.22 353.76 C 1722.52 349.69 1718.37 346.94 1713.97 346.96 C 1708.39 346.54 1703.57 350.04 1700.09 354.03 Z" />
<path fill="#ffffff" opacity="1.00" d=" M 1807.51 327.37 C 1817.58 323.82 1829.65 326.11 1837.35 333.63 C 1844.24 340.22 1847.60 349.66 1848.78 358.95 C 1850.03 369.37 1849.30 380.25 1845.27 390.04 C 1842.07 397.82 1836.57 404.84 1829.16 408.98 C 1822.20 412.89 1813.50 414.19 1805.93 411.34 C 1801.88 409.88 1798.33 407.33 1795.24 404.38 C 1796.45 416.55 1796.09 428.79 1796.12 441.00 C 1787.43 441.00 1778.74 441.00 1770.06 441.00 C 1770.07 403.27 1770.06 365.54 1770.06 327.81 C 1777.14 327.81 1784.22 327.81 1791.30 327.81 C 1791.93 330.54 1792.59 333.27 1793.24 336.00 C 1797.49 332.39 1802.18 329.17 1807.51 327.37 M 1796.11 353.93 C 1796.14 364.89 1796.12 375.85 1796.12 386.81 C 1800.89 390.96 1808.13 393.14 1814.04 390.14 C 1820.06 386.74 1821.87 379.31 1822.41 372.92 C 1822.73 366.08 1822.85 358.74 1819.53 352.54 C 1817.17 348.04 1811.62 346.22 1806.84 347.14 C 1802.48 347.82 1799.01 350.82 1796.11 353.93 Z" />
<path fill="#ffffff" opacity="1.00" d=" M 1893.50 326.64 C 1905.91 323.93 1919.56 327.35 1928.98 335.96 C 1941.59 347.23 1945.12 365.93 1941.17 381.89 C 1938.33 393.93 1929.82 404.60 1918.38 409.49 C 1903.89 415.97 1885.65 412.99 1874.25 401.85 C 1867.39 395.34 1863.20 386.32 1861.92 377.01 C 1860.27 365.36 1862.19 352.85 1868.94 343.02 C 1874.58 334.63 1883.61 328.69 1893.50 326.64 M 1897.45 347.60 C 1890.96 350.10 1888.81 357.63 1888.23 363.91 C 1887.71 371.65 1887.70 380.20 1892.17 386.90 C 1896.40 393.20 1906.85 393.53 1911.45 387.49 C 1915.45 382.26 1915.99 375.31 1916.07 368.96 C 1915.94 362.71 1915.31 355.87 1911.21 350.84 C 1907.97 346.87 1902.11 345.88 1897.45 347.60 Z" />
<path fill="#ffffff" opacity="1.00" d=" M 1994.88 328.92 C 2001.23 325.08 2009.39 324.78 2016.22 327.51 C 2014.71 334.95 2013.38 342.42 2011.93 349.86 C 2005.89 348.25 1998.84 347.55 1993.57 351.59 C 1988.59 355.44 1984.13 361.43 1984.92 368.04 C 1984.95 382.30 1984.93 396.56 1984.93 410.81 C 1976.26 410.81 1967.60 410.81 1958.94 410.81 C 1958.94 383.15 1958.93 355.48 1958.94 327.81 C 1966.01 327.81 1973.08 327.80 1980.15 327.82 C 1980.80 332.72 1981.39 337.64 1982.12 342.53 C 1985.32 337.16 1989.34 332.04 1994.88 328.92 Z" />
<path fill="#ffffff" opacity="1.00" d=" M 1577.88 327.81 C 1586.54 327.81 1595.20 327.81 1603.87 327.81 C 1603.88 343.87 1603.85 359.92 1603.89 375.97 C 1604.01 379.91 1604.02 384.20 1606.30 387.61 C 1608.63 390.96 1613.31 390.98 1616.95 390.31 C 1621.50 389.43 1624.74 385.77 1627.33 382.19 C 1627.34 364.04 1627.20 345.89 1627.40 327.74 C 1636.03 327.90 1644.67 327.77 1653.31 327.81 C 1653.30 355.49 1653.35 383.16 1653.29 410.84 C 1646.23 410.78 1639.17 410.83 1632.12 410.81 C 1631.45 406.92 1630.87 403.01 1630.12 399.14 C 1625.03 405.00 1618.81 410.45 1611.01 412.10 C 1602.37 413.97 1592.15 412.77 1585.85 406.01 C 1579.66 399.31 1578.13 389.76 1577.90 380.97 C 1577.84 363.25 1577.89 345.53 1577.88 327.81 Z" />
<path fill="#ffffff" opacity="1.00" d=" M 340.53 335.72 C 342.78 333.73 346.78 334.90 347.08 338.03 C 346.95 341.37 343.99 344.04 341.00 345.09 C 338.60 346.02 335.82 343.66 336.36 341.14 C 336.88 338.83 338.62 337.02 340.53 335.72 Z" />
<path fill="#ffffff" opacity="1.00" d=" M 354.04 351.98 C 355.29 350.78 356.55 349.59 357.81 348.41 C 359.01 349.84 361.82 351.92 359.90 353.88 C 357.88 356.18 355.44 353.55 354.04 351.98 Z" />
</g>
<g id="#ff0c00ff">
<path fill="#ff0c00" opacity="1.00" d=" M 1492.36 42.44 C 1503.97 29.38 1523.82 26.67 1539.89 31.85 C 1547.28 34.17 1554.08 38.27 1559.63 43.68 C 1555.28 49.15 1550.93 54.61 1546.60 60.08 C 1541.10 56.00 1534.82 52.60 1527.90 51.96 C 1523.33 51.52 1518.23 51.59 1514.39 54.42 C 1510.70 57.09 1510.37 63.21 1513.98 66.08 C 1518.45 69.77 1524.21 71.26 1529.45 73.51 C 1538.67 77.41 1549.11 80.05 1555.90 87.95 C 1566.85 100.62 1564.40 121.95 1551.37 132.30 C 1536.90 144.10 1515.90 144.29 1499.08 137.79 C 1492.33 135.19 1486.11 131.28 1480.72 126.46 C 1485.65 120.42 1490.66 114.45 1495.63 108.44 C 1502.58 114.21 1510.99 118.70 1520.12 119.45 C 1524.44 119.64 1529.19 119.38 1532.84 116.78 C 1536.95 113.86 1537.17 106.90 1533.00 103.93 C 1528.56 100.62 1523.15 99.05 1518.17 96.78 C 1509.05 92.73 1498.77 89.88 1492.10 81.95 C 1482.28 71.17 1482.52 53.14 1492.36 42.44 Z" />
<path fill="#ff0c00" opacity="1.00" d=" M 1521.55 165.77 C 1538.08 162.70 1556.92 166.54 1568.49 179.45 C 1581.40 193.75 1583.80 214.50 1581.31 232.91 C 1579.21 248.80 1570.63 264.67 1555.91 272.07 C 1536.88 281.58 1511.04 278.80 1496.53 262.48 C 1485.08 249.72 1481.81 231.70 1482.82 215.06 C 1483.60 200.38 1488.83 185.08 1500.46 175.47 C 1506.45 170.42 1513.86 167.20 1521.55 165.77 M 1527.55 187.70 C 1522.26 188.84 1517.71 192.39 1514.93 196.97 C 1510.19 204.72 1509.21 214.11 1509.45 223.01 C 1509.78 231.72 1511.56 240.93 1517.23 247.83 C 1521.45 253.09 1528.48 255.75 1535.14 254.76 C 1541.31 254.08 1546.73 250.05 1549.86 244.79 C 1554.86 236.51 1555.87 226.50 1555.48 217.03 C 1555.01 208.52 1553.02 199.44 1546.94 193.11 C 1542.06 187.96 1534.36 186.15 1527.55 187.70 Z" />
<path fill="#ff0c00" opacity="1.00" d=" M 1508.94 302.59 C 1526.30 296.93 1546.68 301.60 1559.61 314.55 C 1555.27 320.00 1550.91 325.42 1546.64 330.91 C 1538.85 324.92 1528.77 320.98 1518.88 323.19 C 1514.78 323.94 1510.97 327.48 1511.44 331.91 C 1511.64 336.11 1515.64 338.47 1519.03 340.07 C 1527.20 343.68 1535.66 346.62 1543.87 350.17 C 1550.85 353.31 1557.27 358.51 1560.29 365.71 C 1564.45 375.77 1563.49 388.03 1557.07 396.94 C 1551.80 404.44 1543.41 409.28 1534.60 411.37 C 1515.82 415.74 1494.84 410.41 1480.76 397.15 C 1485.76 391.23 1490.67 385.23 1495.62 379.27 C 1502.57 385.03 1510.98 389.52 1520.11 390.29 C 1524.36 390.49 1528.99 390.21 1532.64 387.75 C 1536.18 385.37 1537.16 379.91 1534.64 376.46 C 1532.66 373.91 1529.60 372.58 1526.76 371.25 C 1519.59 368.16 1512.35 365.21 1505.17 362.13 C 1497.85 358.93 1491.23 353.52 1487.73 346.23 C 1483.49 337.39 1483.89 326.43 1488.94 317.99 C 1493.31 310.53 1500.80 305.23 1508.94 302.59 Z" />
<path fill="#ff0c00" opacity="1.00" d=" M 538.43 319.55 C 546.90 317.34 556.56 318.96 563.25 324.80 C 574.26 333.64 576.75 350.66 569.75 362.71 C 566.58 368.06 561.74 372.55 555.87 374.73 C 546.22 378.26 534.42 376.44 527.12 368.93 C 518.05 360.44 516.02 346.14 520.91 334.97 C 524.21 327.68 530.62 321.64 538.43 319.55 Z" />
</g>
</svg>
