<?xml version="1.0" encoding="UTF-8" ?>
<!DOCTYPE svg PUBLIC "-//W3C//DTD SVG 1.1//EN" "http://www.w3.org/Graphics/SVG/1.1/DTD/svg11.dtd">
<svg width="2205pt" height="467pt" viewBox="0 0 2205 467" version="1.1" xmlns="http://www.w3.org/2000/svg">
<g id="#ffffffff">
<path fill="#ffffff" opacity="1.00" d=" M 227.43 0.00 L 238.63 0.00 C 278.50 1.03 318.13 12.13 352.39 32.63 C 401.72 61.75 439.63 109.64 456.37 164.45 C 471.16 212.25 470.06 264.82 453.16 311.92 C 441.44 344.78 422.18 374.91 397.33 399.40 C 362.05 434.43 315.28 457.69 266.00 464.44 C 208.34 472.97 147.73 458.34 100.04 424.89 C 70.90 404.60 46.49 377.59 29.26 346.54 C 11.00 313.91 1.17 276.81 0.00 239.48 L 0.00 228.12 C 0.74 204.64 4.60 181.21 12.16 158.94 C 28.79 109.10 62.95 65.44 107.16 37.08 C 142.83 13.93 184.96 1.23 227.43 0.00 M 113.59 73.27 C 204.52 169.55 295.43 265.83 386.37 362.10 C 414.65 328.67 431.43 285.75 433.13 241.98 C 434.81 204.52 425.69 166.64 406.97 134.13 C 387.62 100.26 358.15 72.28 323.30 54.77 C 289.45 37.59 250.62 30.57 212.89 34.48 C 177.07 38.05 142.37 51.68 113.59 73.27 M 103.48 89.40 C 103.94 91.24 106.57 95.20 103.09 95.33 C 100.77 94.25 100.22 91.60 99.60 89.39 C 98.21 89.51 96.81 89.62 95.42 89.74 C 95.95 94.05 98.54 98.64 103.09 99.59 C 107.16 100.60 111.36 96.09 109.49 92.14 C 109.13 89.90 106.56 87.41 108.26 85.29 C 110.97 85.03 111.82 88.16 112.52 90.16 C 113.76 90.04 115.01 89.93 116.25 89.82 C 116.07 85.08 112.01 80.02 106.89 81.04 C 103.22 81.80 101.74 86.28 103.48 89.40 M 109.29 106.97 C 110.39 110.75 114.02 113.28 117.91 113.45 C 118.03 112.51 118.28 110.64 118.41 109.71 C 116.06 109.19 113.17 107.84 113.43 104.96 C 114.04 101.25 118.04 97.60 121.93 98.73 C 123.89 99.38 124.30 101.53 124.85 103.24 C 125.81 103.15 127.74 102.98 128.70 102.89 C 128.36 99.70 126.91 96.48 123.88 95.03 C 116.69 91.07 106.95 99.20 109.29 106.97 M 33.88 220.04 C 31.17 259.66 40.57 300.03 60.73 334.26 C 80.04 367.32 109.04 394.63 143.23 411.87 C 172.70 426.86 205.98 434.20 239.02 433.23 C 284.04 432.16 328.40 415.11 362.66 385.89 C 271.28 289.12 179.87 192.36 88.49 95.59 C 56.53 129.03 36.74 173.84 33.88 220.04 M 118.01 117.01 C 119.09 118.16 120.17 119.32 121.26 120.47 C 125.99 116.01 130.71 111.56 135.44 107.10 C 134.36 105.94 133.27 104.79 132.18 103.65 C 127.45 108.10 122.73 112.55 118.01 117.01 M 124.25 123.63 C 127.15 126.71 130.05 129.79 132.95 132.87 C 133.91 131.95 134.88 131.03 135.85 130.12 C 134.04 128.20 132.23 126.27 130.41 124.36 C 131.39 123.44 132.38 122.52 133.36 121.61 C 134.84 123.18 136.32 124.74 137.81 126.32 C 138.77 125.40 139.74 124.48 140.71 123.56 C 139.22 122.00 137.74 120.43 136.26 118.87 C 137.10 118.06 137.95 117.25 138.80 116.45 C 140.55 118.30 142.29 120.15 144.04 122.01 C 145.00 121.09 145.96 120.19 146.93 119.28 C 144.10 116.28 141.27 113.28 138.44 110.27 C 133.70 114.72 128.99 119.19 124.25 123.63 M 135.50 135.58 C 136.54 136.68 137.57 137.77 138.62 138.85 C 142.01 135.76 145.32 132.58 148.19 128.99 C 146.15 133.69 144.53 138.55 142.84 143.38 C 143.94 144.53 145.04 145.68 146.14 146.84 C 150.86 142.38 155.59 137.93 160.31 133.46 C 159.27 132.37 158.24 131.28 157.21 130.19 C 153.84 133.28 150.50 136.43 147.67 140.04 C 149.73 135.37 151.30 130.51 152.98 125.69 C 151.88 124.53 150.78 123.37 149.69 122.21 C 144.96 126.67 140.24 131.13 135.50 135.58 M 152.35 152.60 C 153.44 156.41 157.09 158.98 161.00 159.15 C 161.16 157.90 161.32 156.65 161.49 155.41 C 159.25 154.90 156.50 153.72 156.49 150.99 C 156.82 147.35 160.36 143.97 164.09 144.19 C 166.51 144.40 167.47 146.86 167.89 148.92 C 169.18 148.80 170.47 148.69 171.77 148.58 C 171.42 145.47 170.08 142.28 167.13 140.82 C 159.97 136.63 150.03 144.77 152.35 152.60 M 161.07 162.69 C 163.97 165.77 166.87 168.84 169.77 171.91 C 170.74 170.99 171.70 170.08 172.68 169.17 C 170.86 167.25 169.05 165.32 167.24 163.40 C 168.22 162.48 169.20 161.57 170.18 160.65 C 171.65 162.22 173.13 163.79 174.61 165.36 C 175.58 164.44 176.55 163.53 177.53 162.63 C 176.05 161.06 174.57 159.48 173.08 157.91 C 173.72 157.30 174.99 156.10 175.62 155.50 C 177.36 157.33 179.09 159.18 180.81 161.03 C 181.80 160.14 182.78 159.25 183.76 158.35 C 180.93 155.33 178.09 152.32 175.25 149.33 C 170.52 153.78 165.80 158.24 161.07 162.69 M 186.25 169.25 C 182.89 171.01 179.94 174.13 179.28 177.97 C 178.31 183.66 184.32 189.27 189.95 187.64 C 194.24 186.36 198.11 182.68 198.84 178.15 C 199.74 171.76 192.06 165.91 186.25 169.25 M 190.47 193.86 C 191.55 195.01 192.64 196.17 193.73 197.32 C 195.27 195.86 196.82 194.41 198.35 192.95 C 200.03 194.56 201.63 196.51 203.97 197.17 C 208.39 198.64 213.63 193.69 211.82 189.21 C 210.30 185.69 207.08 183.33 204.64 180.49 C 199.92 184.95 195.19 189.40 190.47 193.86 M 202.74 206.88 C 205.64 209.94 208.53 213.02 211.43 216.09 C 212.39 215.18 213.36 214.26 214.33 213.36 C 212.53 211.42 210.70 209.51 208.91 207.57 C 209.88 206.66 210.86 205.75 211.84 204.84 C 213.32 206.41 214.80 207.98 216.29 209.55 C 217.25 208.64 218.22 207.72 219.18 206.80 C 217.70 205.23 216.22 203.66 214.74 202.09 C 215.59 201.29 216.44 200.48 217.29 199.68 C 219.03 201.53 220.78 203.38 222.52 205.24 C 223.48 204.33 224.44 203.41 225.41 202.51 C 222.59 199.50 219.75 196.51 216.92 193.51 C 212.18 197.95 207.47 202.42 202.74 206.88 M 213.99 218.81 C 215.02 219.90 216.05 221.00 217.09 222.09 C 220.48 219.00 223.80 215.81 226.68 212.21 C 224.63 216.91 223.03 221.77 221.32 226.59 C 222.41 227.75 223.51 228.91 224.60 230.07 C 229.34 225.63 234.06 221.17 238.79 216.71 C 237.76 215.61 236.72 214.51 235.69 213.42 C 232.32 216.52 228.98 219.68 226.14 223.28 C 228.22 218.62 229.76 213.75 231.47 208.95 C 230.37 207.77 229.28 206.61 228.18 205.44 C 223.44 209.89 218.73 214.36 213.99 218.81 M 241.82 219.92 C 237.09 224.38 232.37 228.83 227.65 233.28 C 228.67 234.38 229.70 235.48 230.73 236.57 C 234.12 233.49 237.43 230.30 240.32 226.71 C 238.28 231.40 236.68 236.25 234.97 241.05 C 236.06 242.22 237.16 243.38 238.27 244.55 C 242.99 240.09 247.71 235.64 252.44 231.18 C 251.41 230.08 250.38 228.99 249.36 227.90 C 245.98 230.98 242.65 234.13 239.81 237.73 C 241.87 233.06 243.43 228.21 245.12 223.40 C 244.02 222.24 242.92 221.08 241.82 219.92 M 241.30 247.77 C 244.19 250.84 247.09 253.90 249.98 256.98 C 250.95 256.06 251.91 255.14 252.89 254.24 C 251.08 252.32 249.27 250.40 247.46 248.49 C 248.43 247.56 249.41 246.63 250.39 245.72 C 251.87 247.29 253.35 248.86 254.84 250.44 C 255.80 249.52 256.77 248.60 257.74 247.69 C 256.25 246.12 254.77 244.54 253.28 242.98 C 254.14 242.17 254.99 241.37 255.84 240.57 C 257.58 242.42 259.32 244.27 261.07 246.11 C 262.03 245.21 262.99 244.31 263.97 243.41 C 261.14 240.40 258.31 237.39 255.47 234.39 C 250.75 238.85 246.01 243.30 241.30 247.77 M 261.10 256.03 C 261.56 258.36 264.34 261.66 261.19 263.15 C 259.06 261.65 257.94 259.35 257.51 256.84 C 256.11 256.95 254.71 257.06 253.32 257.18 C 253.81 261.48 256.41 266.03 260.92 267.00 C 264.74 268.01 268.93 264.00 267.53 260.13 C 267.14 257.74 264.88 255.39 265.82 253.01 C 268.53 251.73 269.77 255.69 270.43 257.62 C 271.68 257.48 272.93 257.35 274.19 257.23 C 273.82 252.91 270.68 248.31 265.96 248.32 C 262.15 248.20 259.41 252.64 261.10 256.03 M 272.61 263.37 C 270.83 266.97 273.99 270.38 274.26 273.93 C 271.44 276.73 269.21 271.35 268.94 268.97 C 267.54 269.06 266.15 269.15 264.76 269.24 C 265.19 273.24 267.35 277.34 271.28 278.82 C 274.36 280.12 278.25 278.27 279.07 275.01 C 280.06 271.54 276.17 268.36 277.28 265.15 C 279.90 263.83 281.19 267.79 281.82 269.70 C 282.77 269.61 284.66 269.43 285.60 269.33 C 285.16 266.16 283.78 262.88 280.80 261.33 C 278.11 259.60 274.05 260.41 272.61 263.37 M 288.36 279.40 C 286.04 283.07 289.56 286.77 289.78 290.51 C 286.69 293.01 284.86 287.78 284.42 285.38 C 283.37 285.47 281.27 285.64 280.22 285.73 C 280.74 290.09 283.46 294.82 288.13 295.59 C 292.17 296.43 296.17 291.90 294.26 288.05 C 293.97 285.83 291.19 283.15 293.19 281.19 C 295.83 281.23 296.64 284.14 297.35 286.16 C 298.60 286.01 299.85 285.87 301.11 285.74 C 300.64 282.82 299.52 279.77 296.89 278.13 C 294.31 276.19 290.11 276.47 288.36 279.40 M 294.60 297.51 C 290.77 303.24 298.54 311.62 304.55 308.14 C 308.85 305.60 312.03 301.59 315.78 298.34 C 314.73 297.23 313.69 296.13 312.64 295.03 C 309.30 297.94 306.40 301.37 302.79 303.95 C 300.35 306.00 296.60 302.28 298.61 299.84 C 301.42 296.31 305.07 293.55 308.23 290.34 C 307.15 289.19 306.07 288.05 304.99 286.91 C 301.56 290.46 297.36 293.36 294.60 297.51 M 304.52 314.82 C 305.60 315.97 306.69 317.12 307.78 318.27 C 309.32 316.81 310.87 315.37 312.40 313.90 C 314.10 315.51 315.69 317.47 318.05 318.12 C 322.49 319.61 327.76 314.55 325.84 310.07 C 324.28 306.61 321.13 304.25 318.69 301.45 C 313.97 305.90 309.24 310.35 304.52 314.82 M 316.80 327.84 C 317.87 328.99 318.96 330.14 320.05 331.28 C 321.59 329.82 323.14 328.37 324.68 326.92 C 326.29 328.45 327.78 330.29 329.97 331.03 C 334.48 332.87 340.09 327.71 338.11 323.09 C 336.56 319.62 333.40 317.27 330.97 314.46 C 326.24 318.92 321.51 323.37 316.80 327.84 M 340.35 330.56 C 336.55 331.87 333.29 335.03 332.13 338.91 C 330.39 344.64 336.21 350.90 342.06 349.64 C 346.34 348.66 350.08 345.19 351.32 340.97 C 352.92 334.94 346.33 328.50 340.35 330.56 M 343.11 355.73 C 344.19 356.88 345.27 358.04 346.36 359.20 C 348.06 357.58 349.77 355.97 351.52 354.40 C 354.03 357.05 350.73 360.45 350.30 363.37 C 351.51 364.65 352.72 365.94 353.94 367.22 C 354.79 364.50 355.63 361.78 356.50 359.07 C 361.01 360.36 366.55 355.83 364.57 351.09 C 362.94 347.61 359.75 345.23 357.28 342.37 C 352.56 346.83 347.84 351.28 343.11 355.73 M 366.03 357.42 C 367.23 358.69 368.42 359.96 369.62 361.24 C 365.85 364.78 362.09 368.34 358.32 371.88 C 359.41 373.03 360.49 374.18 361.58 375.33 C 365.36 371.79 369.12 368.24 372.88 364.69 C 374.08 365.96 375.29 367.24 376.50 368.53 C 377.45 367.61 378.41 366.70 379.37 365.79 C 375.90 362.09 372.40 358.40 368.92 354.70 C 367.96 355.61 366.99 356.51 366.03 357.42 Z" />
<path fill="#ffffff" opacity="1.00" d=" M 489.16 32.85 C 489.08 24.43 496.54 17.03 504.96 17.15 C 533.96 17.08 562.96 17.16 591.96 17.11 C 597.38 16.94 603.36 17.62 607.53 21.44 C 612.06 25.59 613.02 32.16 612.78 37.99 C 612.62 43.31 610.96 49.09 606.48 52.35 C 602.35 55.44 596.97 55.93 591.98 55.82 C 573.24 55.80 554.49 55.82 535.75 55.81 C 535.75 69.96 535.75 84.10 535.75 98.25 C 551.50 98.25 567.25 98.25 583.00 98.25 C 588.00 98.25 593.37 99.33 597.05 102.96 C 600.73 106.60 601.84 112.01 601.87 117.01 C 601.91 122.32 600.95 128.13 597.10 132.07 C 593.48 135.85 588.00 136.97 582.97 136.99 C 567.23 137.02 551.49 136.99 535.75 137.00 C 535.75 153.68 535.75 170.37 535.75 187.05 C 535.78 192.97 534.88 199.31 531.02 204.03 C 527.20 208.76 520.96 210.64 515.10 210.93 C 508.48 211.27 501.22 210.51 495.93 206.12 C 490.68 201.75 489.05 194.54 489.12 187.99 C 489.16 136.28 489.07 84.56 489.16 32.85 Z" />
<path fill="#ffffff" opacity="1.00" d=" M 654.77 19.01 C 659.14 16.59 664.26 17.18 669.05 17.12 C 696.37 17.13 723.69 17.12 751.02 17.13 C 755.99 17.17 761.33 18.49 764.78 22.29 C 768.39 26.23 769.27 31.83 769.20 36.99 C 769.15 41.84 768.12 47.05 764.70 50.71 C 761.25 54.46 755.94 55.74 751.01 55.80 C 731.63 55.83 712.25 55.80 692.87 55.81 C 692.87 67.75 692.88 79.68 692.87 91.62 C 708.23 91.64 723.60 91.60 738.96 91.63 C 743.86 91.69 749.12 92.79 752.73 96.33 C 756.36 99.84 757.60 105.07 757.74 109.97 C 757.91 115.35 757.12 121.22 753.45 125.43 C 749.88 129.50 744.22 130.82 739.01 130.86 C 723.63 130.89 708.25 130.86 692.87 130.88 C 692.87 144.50 692.87 158.12 692.87 171.75 C 712.90 171.76 732.92 171.73 752.94 171.76 C 758.52 171.77 764.69 173.16 768.33 177.74 C 772.17 182.57 772.61 189.15 772.07 195.07 C 771.62 200.28 769.22 205.67 764.50 208.32 C 759.23 211.46 752.88 211.00 746.99 211.00 C 718.99 210.99 690.98 211.01 662.98 210.99 C 658.27 211.03 653.46 209.25 650.34 205.63 C 647.21 202.24 646.12 197.49 646.25 192.99 C 646.27 140.00 646.23 87.00 646.26 34.01 C 646.10 27.95 649.24 21.76 654.77 19.01 Z" />
<path fill="#ffffff" opacity="1.00" d=" M 826.54 17.73 C 834.21 16.52 842.92 16.65 849.44 21.41 C 855.16 25.67 856.95 33.20 856.93 39.98 C 856.94 89.33 856.94 138.67 856.93 188.01 C 856.92 194.35 855.51 201.28 850.62 205.71 C 845.62 210.27 838.46 211.22 831.95 210.97 C 826.00 210.77 819.62 209.15 815.51 204.55 C 811.49 200.10 810.31 193.87 810.31 188.04 C 810.31 138.69 810.31 89.34 810.31 39.99 C 810.33 34.62 811.31 28.97 814.64 24.60 C 817.47 20.81 821.97 18.61 826.54 17.73 Z" />
<path fill="#ffffff" opacity="1.00" d=" M 884.78 22.77 C 886.75 19.13 890.99 17.54 894.91 17.24 C 899.93 16.97 904.97 17.20 910.00 17.12 C 915.06 17.03 920.65 16.80 924.89 20.08 C 929.77 23.57 930.99 29.78 933.09 35.03 C 941.83 57.82 949.41 81.04 958.15 103.83 C 958.79 102.87 959.34 101.85 959.81 100.78 C 968.66 76.97 977.74 53.24 986.62 29.44 C 989.16 22.30 996.40 17.18 1003.98 17.13 C 1009.35 17.11 1014.72 17.11 1020.10 17.14 C 1024.41 17.20 1029.30 18.47 1031.71 22.38 C 1034.46 26.86 1032.93 32.45 1030.86 36.87 C 1014.59 71.54 998.35 106.21 982.08 140.88 C 981.53 141.85 981.27 142.90 981.32 144.01 C 981.29 158.64 981.33 173.28 981.30 187.91 C 981.29 194.12 979.98 200.87 975.36 205.36 C 970.53 210.07 963.40 211.16 956.93 211.00 C 951.15 210.86 944.98 209.47 940.76 205.26 C 936.73 201.29 935.21 195.49 934.99 189.99 C 934.72 174.09 935.26 158.15 934.73 142.28 C 918.50 106.99 902.03 71.80 885.72 36.55 C 883.79 32.32 882.39 27.11 884.78 22.77 Z" />
<path fill="#ffffff" opacity="1.00" d=" M 1091.35 29.49 C 1093.53 22.41 1100.57 17.35 1107.92 17.16 C 1116.29 17.07 1124.67 17.16 1133.05 17.12 C 1139.03 16.70 1145.53 17.57 1150.04 21.89 C 1154.09 25.25 1155.36 30.53 1156.80 35.34 C 1172.96 87.73 1189.13 140.11 1205.31 192.50 C 1206.58 196.69 1206.94 201.65 1204.35 205.43 C 1201.89 209.18 1197.29 210.81 1192.99 210.95 C 1187.31 211.07 1181.63 211.00 1175.97 210.98 C 1170.03 210.99 1164.13 207.92 1161.02 202.83 C 1159.29 200.14 1158.66 196.97 1157.88 193.92 C 1155.56 184.78 1153.19 175.65 1150.87 166.51 C 1131.80 166.50 1112.74 166.51 1093.68 166.50 C 1091.33 175.69 1088.96 184.88 1086.62 194.07 C 1085.72 197.73 1084.83 201.57 1082.36 204.54 C 1079.00 208.87 1073.48 211.17 1068.05 211.00 C 1063.02 210.96 1057.99 211.10 1052.97 210.92 C 1048.69 210.71 1044.17 209.01 1041.75 205.29 C 1039.15 201.55 1039.49 196.63 1040.77 192.47 C 1057.64 138.14 1074.46 83.80 1091.35 29.49 M 1121.98 51.12 C 1120.70 55.38 1119.92 59.76 1118.88 64.08 C 1113.91 86.35 1108.03 108.40 1102.60 130.56 C 1115.80 130.56 1128.99 130.56 1142.20 130.56 C 1136.14 108.19 1130.69 85.66 1125.39 63.10 C 1124.22 59.12 1123.89 54.85 1121.98 51.12 Z" />
<path fill="#ffffff" opacity="1.00" d=" M 1231.23 32.89 C 1231.20 24.89 1237.87 17.65 1245.89 17.23 C 1253.26 17.02 1260.66 17.12 1268.05 17.17 C 1274.63 17.30 1280.84 21.23 1283.88 27.05 C 1297.97 54.06 1311.94 81.14 1325.99 108.18 C 1332.79 122.70 1338.95 137.52 1345.68 152.07 C 1346.03 152.42 1346.75 153.10 1347.11 153.44 C 1344.66 130.01 1341.38 106.59 1340.84 83.00 C 1340.78 68.35 1340.81 53.69 1340.82 39.04 C 1340.84 32.95 1342.22 26.26 1346.99 22.04 C 1352.44 17.21 1360.27 16.70 1367.20 17.31 C 1373.12 17.83 1379.23 20.59 1382.20 25.98 C 1385.87 32.35 1385.11 39.96 1385.19 47.00 C 1385.18 95.99 1385.21 144.98 1385.18 193.97 C 1385.32 199.73 1382.67 205.73 1377.57 208.69 C 1372.29 211.96 1365.84 210.79 1359.97 211.00 C 1354.46 210.79 1348.86 211.53 1343.44 210.39 C 1338.58 209.26 1334.66 205.58 1332.58 201.13 C 1318.39 173.36 1304.13 145.62 1289.95 117.84 C 1284.44 105.66 1279.10 93.40 1273.67 81.18 C 1272.45 78.89 1272.02 75.96 1269.74 74.43 C 1271.82 97.27 1275.14 120.04 1275.49 143.01 C 1275.52 158.35 1275.49 173.69 1275.51 189.03 C 1275.55 195.22 1274.07 202.01 1269.19 206.23 C 1263.90 210.73 1256.50 211.37 1249.86 210.86 C 1243.88 210.45 1237.61 207.91 1234.43 202.57 C 1230.60 196.43 1231.20 188.90 1231.19 181.99 C 1231.22 132.29 1231.13 82.58 1231.23 32.89 Z" />
<path fill="#ffffff" opacity="1.00" d=" M 1427.50 445.50 C 1427.50 302.83 1427.50 160.17 1427.50 17.50 C 1433.16 17.50 1438.83 17.50 1444.50 17.50 C 1444.50 160.17 1444.50 302.83 1444.50 445.50 C 1438.83 445.50 1433.16 445.50 1427.50 445.50 Z" />
<path fill="#ffffff" opacity="1.00" d=" M 1700.33 19.51 C 1706.96 16.79 1715.67 19.43 1718.82 26.10 C 1721.21 31.61 1720.72 38.93 1716.15 43.21 C 1711.10 48.13 1702.37 48.56 1696.89 44.13 C 1688.89 37.96 1690.53 23.03 1700.33 19.51 Z" />
<path fill="#ffffff" opacity="1.00" d=" M 1789.07 58.91 C 1798.61 54.49 1809.73 54.35 1819.74 57.20 C 1828.02 59.56 1835.17 65.47 1839.02 73.18 C 1844.43 83.77 1844.79 96.06 1844.03 107.69 C 1825.43 107.70 1806.83 107.66 1788.23 107.71 C 1788.21 114.85 1793.31 120.93 1799.84 123.31 C 1811.65 127.90 1824.69 125.13 1836.32 121.31 C 1837.34 127.71 1838.40 134.11 1839.43 140.52 C 1830.92 143.37 1822.04 145.31 1813.04 145.25 C 1801.47 145.36 1789.28 143.10 1779.97 135.83 C 1771.63 129.46 1766.80 119.33 1765.63 109.04 C 1764.44 98.41 1765.33 87.20 1770.25 77.55 C 1774.18 69.46 1780.82 62.60 1789.07 58.91 M 1797.84 75.91 C 1791.76 78.90 1789.17 85.81 1788.29 92.12 C 1799.75 92.13 1811.21 92.13 1822.67 92.12 C 1822.41 87.63 1821.50 82.93 1818.47 79.44 C 1813.57 73.52 1804.48 72.78 1797.84 75.91 Z" />
<path fill="#ffffff" opacity="1.00" d=" M 1989.84 55.80 C 2001.78 54.54 2014.16 55.47 2025.38 60.02 C 2023.73 66.06 2022.07 72.10 2020.44 78.14 C 2010.69 74.72 1999.98 73.80 1989.88 76.08 C 1982.66 77.72 1976.09 82.94 1974.10 90.26 C 1971.63 99.13 1971.95 109.65 1977.79 117.19 C 1982.05 122.83 1989.37 124.81 1996.10 125.41 C 2005.30 126.11 2014.70 125.37 2023.54 122.61 C 2024.62 128.78 2025.73 134.93 2026.83 141.10 C 2016.02 144.92 2004.39 145.72 1993.02 145.02 C 1982.52 144.35 1971.86 141.16 1963.70 134.32 C 1956.92 128.71 1952.62 120.55 1950.97 111.98 C 1947.92 96.82 1950.60 79.30 1962.06 68.14 C 1969.47 60.88 1979.62 56.91 1989.84 55.80 Z" />
<path fill="#ffffff" opacity="1.00" d=" M 2054.66 63.73 C 2063.64 56.44 2075.83 54.02 2087.11 55.86 C 2096.55 57.06 2105.67 62.08 2110.77 70.27 C 2117.79 81.31 2118.29 95.00 2117.47 107.68 C 2098.87 107.71 2080.27 107.67 2061.67 107.70 C 2061.66 114.64 2066.46 120.67 2072.80 123.11 C 2084.70 128.00 2098.00 125.17 2109.77 121.31 C 2110.76 127.72 2111.86 134.12 2112.85 140.54 C 2104.80 143.17 2096.46 145.14 2087.96 145.22 C 2075.88 145.54 2063.03 143.39 2053.30 135.75 C 2044.16 128.73 2039.40 117.28 2038.77 105.99 C 2037.36 90.54 2042.15 73.64 2054.66 63.73 M 2071.12 76.00 C 2065.14 79.02 2062.61 85.87 2061.73 92.12 C 2073.19 92.13 2084.65 92.13 2096.11 92.12 C 2095.86 87.57 2094.89 82.79 2091.77 79.29 C 2086.80 73.46 2077.71 72.78 2071.12 76.00 Z" />
<path fill="#ffffff" opacity="1.00" d=" M 1596.32 69.32 C 1603.74 61.38 1614.37 57.01 1625.05 55.82 C 1637.06 54.53 1649.52 55.44 1660.79 60.02 C 1659.15 66.06 1657.49 72.09 1655.86 78.13 C 1645.99 74.70 1635.13 73.75 1624.93 76.17 C 1617.90 77.87 1611.55 82.99 1609.57 90.11 C 1606.98 99.15 1607.36 109.94 1613.48 117.53 C 1617.92 123.08 1625.30 124.92 1632.07 125.46 C 1641.09 126.06 1650.31 125.33 1658.96 122.60 C 1660.04 128.76 1661.15 134.93 1662.25 141.09 C 1651.31 144.96 1639.53 145.75 1628.03 144.99 C 1618.29 144.33 1608.50 141.45 1600.62 135.54 C 1593.08 129.94 1588.20 121.28 1586.42 112.13 C 1583.45 97.45 1585.77 80.61 1596.32 69.32 Z" />
<path fill="#ffffff" opacity="1.00" d=" M 1862.13 60.20 C 1875.10 56.91 1888.54 54.96 1901.94 55.91 C 1910.11 56.51 1918.61 59.62 1923.75 66.31 C 1929.59 73.86 1930.80 83.79 1931.09 93.05 C 1931.17 109.78 1931.10 126.52 1931.12 143.25 C 1923.62 143.25 1916.12 143.25 1908.62 143.25 C 1908.62 128.18 1908.62 113.10 1908.63 98.03 C 1908.38 91.45 1908.69 84.00 1904.49 78.52 C 1899.16 73.52 1891.17 75.49 1884.63 75.94 C 1884.62 98.38 1884.63 120.81 1884.63 143.25 C 1877.12 143.25 1869.62 143.25 1862.13 143.25 C 1862.13 115.57 1862.12 87.89 1862.13 60.20 Z" />
<path fill="#ffffff" opacity="1.00" d=" M 211.13 64.20 C 225.82 53.67 248.03 55.26 260.68 68.33 C 266.30 74.38 271.86 80.52 277.34 86.71 C 280.44 89.51 285.06 89.53 289.00 89.13 C 295.05 88.05 301.20 87.42 307.11 85.66 C 319.77 83.83 333.13 88.79 341.69 98.28 C 348.62 105.72 352.18 115.82 352.57 125.90 C 353.51 131.49 352.27 138.01 356.26 142.65 C 358.30 145.55 361.72 146.79 364.88 148.04 C 372.84 151.47 381.46 154.06 387.91 160.14 C 400.79 171.27 405.53 190.94 398.31 206.50 C 394.60 213.94 389.95 220.87 385.98 228.17 C 384.20 231.69 384.47 236.09 386.52 239.44 C 389.82 245.17 393.23 250.84 396.49 256.59 C 401.71 266.08 402.84 277.68 399.66 288.02 C 396.39 299.11 388.17 308.72 377.51 313.29 C 372.77 315.30 368.02 317.25 363.27 319.23 C 356.82 312.36 350.32 305.53 343.87 298.66 C 350.48 295.06 357.66 292.69 364.51 289.62 C 371.85 286.40 374.93 276.43 370.26 269.79 C 365.65 261.21 359.22 253.30 357.32 243.53 C 355.62 235.23 356.29 226.40 359.52 218.54 C 363.15 210.54 368.48 203.42 372.31 195.52 C 373.78 190.37 372.27 183.46 367.07 180.91 C 360.46 177.61 353.42 175.25 346.72 172.14 C 337.97 167.93 330.92 160.27 327.61 151.13 C 324.50 142.86 325.31 133.83 323.78 125.25 C 322.34 119.10 316.32 114.35 309.96 114.66 C 304.19 115.06 298.51 116.33 292.81 117.32 C 282.75 120.68 271.61 117.57 262.96 111.98 C 255.47 107.35 250.28 100.09 244.28 93.82 C 242.11 91.68 240.54 88.75 237.66 87.49 C 232.86 85.81 226.97 86.54 223.30 90.27 C 217.75 96.05 212.56 102.18 207.04 108.00 C 198.11 116.58 184.53 120.99 172.47 117.23 C 162.94 107.03 153.29 96.95 143.76 86.75 C 147.76 85.84 151.87 85.02 155.99 85.40 C 163.30 86.85 170.69 87.88 178.04 89.14 C 183.46 90.13 189.14 87.82 192.46 83.46 C 198.68 77.05 203.97 69.61 211.13 64.20 Z" />
<path fill="#ffffff" opacity="1.00" d=" M 1674.94 57.50 C 1690.33 57.50 1705.73 57.50 1721.13 57.50 C 1721.12 74.33 1721.13 91.16 1721.12 107.98 C 1721.08 112.56 1721.02 117.52 1723.62 121.51 C 1725.43 124.32 1728.87 125.52 1732.09 125.64 C 1738.51 125.86 1744.85 124.17 1750.65 121.49 C 1751.60 127.54 1752.61 133.58 1753.56 139.64 C 1743.24 144.51 1731.42 146.52 1720.15 144.41 C 1713.70 143.18 1707.58 139.54 1704.11 133.88 C 1699.67 126.79 1698.93 118.17 1698.65 110.01 C 1698.59 98.72 1698.64 87.42 1698.63 76.13 C 1690.72 76.12 1682.83 76.13 1674.94 76.13 C 1674.93 69.92 1674.93 63.71 1674.94 57.50 Z" />
<path fill="#ffffff" opacity="1.00" d=" M 192.32 138.19 C 205.57 135.90 219.63 137.97 231.41 144.55 C 244.70 151.84 254.86 164.57 259.08 179.12 C 262.03 189.02 262.24 199.66 259.89 209.70 C 237.32 185.90 214.83 162.03 192.32 138.19 Z" />
<path fill="#ffffff" opacity="1.00" d=" M 113.01 139.48 C 119.32 146.19 125.67 152.87 131.98 159.59 C 127.94 165.06 122.76 169.80 116.53 172.61 C 110.99 175.03 105.36 177.23 99.80 179.61 C 93.35 182.52 89.89 190.61 92.79 197.20 C 96.23 203.63 100.24 209.75 103.68 216.19 C 109.22 227.53 109.26 241.41 103.82 252.79 C 100.19 259.69 95.84 266.21 92.21 273.12 C 90.26 278.25 91.76 285.38 96.86 288.15 C 105.84 293.02 116.30 295.11 124.48 301.45 C 131.63 307.00 136.65 315.20 138.31 324.09 C 139.43 330.66 139.38 337.37 140.47 343.93 C 141.98 350.76 149.09 355.60 156.02 354.52 C 162.72 353.53 169.46 352.58 176.00 350.79 C 188.15 349.33 200.19 354.88 208.79 363.23 C 213.50 368.21 218.07 373.33 222.65 378.45 C 226.92 384.05 236.19 383.83 240.97 379.00 C 246.05 373.73 250.72 368.08 255.86 362.87 C 263.65 355.53 274.07 350.27 284.97 350.64 C 291.95 352.03 299.01 352.98 306.01 354.24 C 309.17 354.82 312.42 354.61 315.55 353.97 C 321.99 360.75 328.43 367.54 334.81 374.38 C 327.81 378.95 319.43 381.71 311.02 381.21 C 303.43 379.74 295.78 378.57 288.15 377.38 C 282.28 376.45 276.79 379.81 273.37 384.36 C 266.75 391.08 261.37 399.31 253.08 404.16 C 238.57 412.66 218.42 410.57 206.48 398.51 C 200.66 392.30 195.00 385.94 189.32 379.61 C 186.22 377.13 181.91 377.11 178.13 377.45 C 173.36 378.22 168.57 378.93 163.83 379.88 C 155.48 382.64 146.22 381.24 138.30 377.78 C 125.96 372.35 117.03 360.27 115.03 346.99 C 114.32 341.68 114.04 336.33 113.50 331.01 C 113.24 326.37 110.09 322.08 105.90 320.17 C 100.23 317.73 94.47 315.51 88.83 313.00 C 76.64 307.24 67.57 295.26 65.67 281.87 C 64.40 273.40 65.94 264.51 70.16 257.05 C 73.54 251.16 77.02 245.32 80.42 239.45 C 82.21 236.46 82.66 232.69 81.47 229.40 C 76.64 219.02 68.49 210.05 66.28 198.55 C 63.42 184.65 68.38 169.43 79.01 160.00 C 87.21 152.46 98.55 150.34 108.17 145.28 C 110.41 143.96 111.79 141.69 113.01 139.48 Z" />
<path fill="#ffffff" opacity="1.00" d=" M 189.18 173.18 C 192.48 171.44 196.03 175.86 193.75 178.76 C 192.07 181.63 187.83 185.11 184.68 182.31 C 181.86 178.85 185.97 174.55 189.18 173.18 Z" />
<path fill="#ffffff" opacity="1.00" d=" M 147.59 176.13 C 169.20 198.95 190.76 221.83 212.36 244.67 C 214.84 247.27 217.20 249.99 219.88 252.40 C 210.46 254.54 200.63 255.66 191.10 253.47 C 172.52 249.68 156.33 236.28 148.87 218.88 C 142.96 205.48 142.62 189.87 147.59 176.13 Z" />
<path fill="#ffffff" opacity="1.00" d=" M 201.07 190.41 C 202.45 189.08 203.84 187.77 205.24 186.48 C 206.35 187.99 209.07 190.14 207.06 192.02 C 205.10 194.49 202.58 191.99 201.07 190.41 Z" />
<path fill="#ffffff" opacity="1.00" d=" M 1588.69 195.61 C 1599.45 192.44 1610.72 191.14 1621.92 191.08 C 1631.34 191.06 1641.19 193.33 1648.53 199.53 C 1656.92 206.53 1661.30 217.30 1662.37 227.99 C 1663.38 238.70 1662.58 249.79 1658.65 259.88 C 1655.66 267.72 1649.95 274.77 1642.12 278.10 C 1632.22 282.35 1620.76 280.95 1611.18 276.54 C 1611.20 287.28 1611.18 298.01 1611.19 308.75 C 1603.68 308.75 1596.18 308.75 1588.68 308.75 C 1588.69 271.03 1588.68 233.32 1588.69 195.61 M 1611.19 211.02 C 1611.18 226.72 1611.20 242.42 1611.18 258.11 C 1617.30 261.12 1625.07 262.77 1631.42 259.54 C 1637.96 255.53 1639.35 247.11 1639.83 240.06 C 1640.27 230.93 1639.16 220.41 1632.11 213.83 C 1626.32 208.79 1618.14 210.44 1611.19 211.02 Z" />
<path fill="#ffffff" opacity="1.00" d=" M 1698.88 193.91 C 1707.98 189.99 1718.39 189.90 1727.88 192.41 C 1736.27 194.61 1743.62 200.40 1747.62 208.11 C 1753.26 218.80 1753.68 231.31 1752.88 243.12 C 1734.28 243.16 1715.69 243.06 1697.10 243.17 C 1697.37 247.24 1698.64 251.41 1701.72 254.25 C 1707.32 259.64 1715.47 261.26 1723.00 261.07 C 1730.60 261.07 1737.98 259.00 1745.18 256.73 C 1746.20 263.13 1747.24 269.53 1748.28 275.93 C 1739.79 278.77 1730.92 280.75 1721.92 280.64 C 1710.34 280.81 1698.14 278.51 1688.82 271.25 C 1680.65 265.01 1675.84 255.15 1674.56 245.08 C 1673.19 234.05 1674.15 222.35 1679.40 212.39 C 1683.49 204.22 1690.42 197.44 1698.88 193.91 M 1706.48 211.44 C 1700.53 214.49 1698.03 221.30 1697.15 227.54 C 1708.62 227.57 1720.08 227.58 1731.55 227.54 C 1731.25 223.04 1730.35 218.30 1727.28 214.81 C 1722.33 208.88 1713.12 208.18 1706.48 211.44 Z" />
<path fill="#ffffff" opacity="1.00" d=" M 1770.99 195.63 C 1783.73 192.37 1796.92 190.46 1810.09 191.27 C 1818.44 191.78 1827.20 194.78 1832.50 201.59 C 1838.31 209.01 1839.63 218.79 1839.92 227.93 C 1839.96 244.83 1839.93 261.73 1839.94 278.63 C 1832.45 278.62 1824.97 278.63 1817.50 278.63 C 1817.45 262.42 1817.60 246.20 1817.42 229.99 C 1816.97 224.29 1817.02 217.51 1812.60 213.25 C 1807.12 209.16 1799.78 210.93 1793.50 211.35 C 1793.50 233.78 1793.50 256.20 1793.50 278.63 C 1786.00 278.63 1778.50 278.62 1771.00 278.63 C 1770.99 250.96 1771.01 223.30 1770.99 195.63 Z" />
<path fill="#ffffff" opacity="1.00" d=" M 1862.13 195.62 C 1874.81 192.39 1887.94 190.48 1901.06 191.26 C 1909.43 191.74 1918.21 194.71 1923.56 201.49 C 1929.68 209.23 1930.86 219.51 1931.11 229.05 C 1931.15 245.58 1931.11 262.10 1931.13 278.63 C 1923.62 278.63 1916.12 278.63 1908.62 278.63 C 1908.57 262.19 1908.73 245.74 1908.54 229.31 C 1908.07 223.80 1908.01 217.29 1903.72 213.22 C 1898.23 209.17 1890.91 210.92 1884.63 211.36 C 1884.62 233.78 1884.63 256.20 1884.63 278.63 C 1877.12 278.63 1869.62 278.62 1862.13 278.63 C 1862.12 250.96 1862.12 223.29 1862.13 195.62 Z" />
<path fill="#ffffff" opacity="1.00" d=" M 1972.85 193.69 C 1981.99 189.91 1992.40 189.94 2001.84 192.56 C 2010.14 194.88 2017.34 200.74 2021.23 208.44 C 2026.71 219.07 2027.11 231.43 2026.32 243.12 C 2007.72 243.14 1989.14 243.09 1970.55 243.15 C 1970.51 250.05 1975.29 256.03 1981.57 258.49 C 1993.47 263.43 2006.82 260.59 2018.62 256.73 C 2019.64 263.13 2020.68 269.54 2021.72 275.95 C 2013.44 278.67 2004.82 280.67 1996.06 280.63 C 1984.40 280.88 1972.10 278.71 1962.62 271.53 C 1954.23 265.28 1949.26 255.26 1948.00 245.01 C 1946.61 233.90 1947.62 222.12 1952.98 212.12 C 1957.16 203.90 1964.25 197.11 1972.85 193.69 M 1979.50 211.67 C 1973.82 214.83 1971.46 221.46 1970.57 227.55 C 1982.04 227.57 1993.51 227.58 2004.98 227.54 C 2004.69 223.10 2003.82 218.45 2000.85 214.97 C 1995.83 208.79 1986.23 208.08 1979.50 211.67 Z" />
<path fill="#ffffff" opacity="1.00" d=" M 2052.54 199.61 C 2059.12 193.55 2068.29 191.34 2077.00 190.85 C 2088.06 190.38 2099.44 191.32 2109.77 195.59 C 2108.61 201.96 2107.44 208.33 2106.29 214.70 C 2098.66 212.38 2091.05 209.40 2082.95 209.57 C 2077.79 209.69 2071.23 209.22 2067.91 214.00 C 2066.03 216.99 2068.61 220.31 2071.22 221.79 C 2078.12 225.95 2086.16 227.53 2093.56 230.56 C 2101.25 233.36 2109.01 238.17 2112.11 246.12 C 2114.67 253.40 2114.00 262.06 2109.60 268.50 C 2104.48 275.47 2095.71 278.39 2087.51 279.76 C 2078.45 280.99 2069.15 281.09 2060.15 279.37 C 2054.18 278.01 2048.46 275.78 2042.78 273.56 C 2043.93 267.27 2045.09 260.98 2046.25 254.70 C 2055.47 258.19 2064.96 261.88 2075.00 261.64 C 2079.62 261.49 2084.49 261.60 2088.85 259.78 C 2092.18 258.37 2092.14 253.55 2089.75 251.28 C 2086.62 248.28 2082.25 247.23 2078.31 245.78 C 2069.02 242.64 2058.79 240.52 2051.46 233.55 C 2042.00 224.75 2043.17 208.04 2052.54 199.61 Z" />
<path fill="#ffffff" opacity="1.00" d=" M 2142.61 200.67 C 2148.92 194.10 2158.24 191.54 2167.08 190.92 C 2178.49 190.27 2190.23 191.23 2200.91 195.57 C 2199.77 201.95 2198.58 208.32 2197.43 214.70 C 2186.79 211.02 2175.35 207.78 2164.08 210.49 C 2161.25 211.26 2157.98 213.62 2158.48 216.92 C 2159.09 220.12 2162.25 221.82 2164.90 223.22 C 2174.94 228.04 2186.56 229.56 2195.65 236.34 C 2201.35 240.49 2204.76 247.33 2205.00 254.35 L 2205.00 255.63 C 2204.50 262.54 2201.56 269.63 2195.59 273.53 C 2185.20 280.46 2172.11 280.99 2160.03 280.49 C 2150.91 280.18 2142.32 276.85 2133.93 273.58 C 2135.07 267.29 2136.24 261.00 2137.40 254.71 C 2141.82 256.40 2146.28 258.03 2150.83 259.39 C 2159.29 262.00 2168.39 262.23 2177.09 260.73 C 2179.56 260.32 2182.51 258.91 2182.61 256.02 C 2182.95 252.62 2180.14 250.06 2177.31 248.80 C 2168.12 244.55 2157.84 243.09 2148.95 238.17 C 2143.43 235.16 2138.54 230.33 2136.89 224.12 C 2134.88 216.02 2136.67 206.73 2142.61 200.67 Z" />
<path fill="#ffffff" opacity="1.00" d=" M 284.82 236.16 C 291.30 230.40 300.54 227.86 309.00 229.99 C 319.36 232.37 327.75 241.48 329.20 252.02 C 330.57 260.37 327.44 269.04 321.56 275.03 C 309.29 262.09 297.08 249.10 284.82 236.16 Z" />
<path fill="#ffffff" opacity="1.00" d=" M 911.36 267.31 C 911.28 258.89 918.64 251.46 927.07 251.52 C 956.72 251.47 986.36 251.51 1016.01 251.50 C 1021.35 251.51 1027.18 253.09 1030.56 257.52 C 1034.09 262.17 1034.55 268.35 1034.13 273.98 C 1033.76 278.83 1031.90 283.91 1027.81 286.82 C 1023.56 289.94 1018.06 290.30 1012.98 290.20 C 994.63 290.17 976.28 290.20 957.94 290.19 C 957.94 302.12 957.94 314.06 957.94 326.00 C 973.31 326.01 988.69 325.98 1004.07 326.01 C 1009.27 326.05 1014.93 327.38 1018.50 331.44 C 1022.21 335.67 1022.98 341.61 1022.80 347.03 C 1022.63 351.94 1021.36 357.17 1017.68 360.65 C 1014.04 364.13 1008.82 365.19 1003.96 365.24 C 988.62 365.26 973.28 365.24 957.94 365.25 C 957.94 378.88 957.94 392.50 957.94 406.13 C 977.62 406.12 997.31 406.13 1016.99 406.12 C 1022.55 406.06 1028.70 407.07 1032.69 411.32 C 1036.82 415.71 1037.56 422.14 1037.26 427.91 C 1037.01 433.10 1035.24 438.68 1030.85 441.84 C 1026.60 444.98 1021.09 445.48 1015.97 445.39 C 986.33 445.33 956.69 445.44 927.06 445.33 C 918.39 445.40 911.01 437.56 911.33 428.95 C 911.31 375.07 911.26 321.19 911.36 267.31 Z" />
<path fill="#ffffff" opacity="1.00" d=" M 1239.92 253.85 C 1243.52 251.69 1247.84 251.36 1251.95 251.49 C 1270.51 251.53 1289.07 251.46 1307.63 251.52 C 1326.05 251.97 1345.13 255.01 1360.98 264.98 C 1373.33 272.50 1381.41 285.85 1383.93 299.94 C 1387.20 318.05 1384.77 338.21 1373.10 353.01 C 1364.04 365.11 1350.55 373.43 1335.97 377.10 C 1318.04 382.28 1299.22 380.79 1280.81 381.00 C 1280.80 395.01 1280.84 409.03 1280.79 423.04 C 1280.75 429.49 1278.87 436.51 1273.55 440.61 C 1267.51 445.27 1259.40 445.76 1252.08 445.18 C 1245.71 444.67 1238.98 442.12 1235.43 436.52 C 1232.62 432.23 1231.83 426.98 1231.87 421.95 C 1231.89 370.63 1231.86 319.31 1231.88 267.99 C 1231.78 262.27 1234.88 256.61 1239.92 253.85 M 1280.81 288.44 C 1280.81 307.06 1280.81 325.69 1280.81 344.31 C 1289.85 344.19 1298.90 344.56 1307.94 344.10 C 1317.13 343.44 1327.14 340.43 1332.58 332.44 C 1337.78 324.61 1338.37 314.40 1336.20 305.47 C 1334.52 298.76 1328.98 293.65 1322.52 291.54 C 1309.12 286.85 1294.71 288.90 1280.81 288.44 Z" />
<path fill="#ffffff" opacity="1.00" d=" M 708.63 256.62 C 713.61 252.24 720.60 251.30 727.00 251.50 C 732.87 251.64 739.16 253.19 743.30 257.64 C 747.37 261.99 748.67 268.18 748.69 273.99 C 748.69 291.07 748.69 308.16 748.69 325.25 C 769.96 325.25 791.23 325.25 812.50 325.25 C 812.49 308.83 812.51 292.40 812.49 275.98 C 812.36 269.63 813.25 262.67 817.71 257.79 C 822.05 253.00 828.82 251.51 835.04 251.48 C 841.33 251.35 848.22 252.55 852.86 257.16 C 857.26 261.51 858.57 267.96 858.62 273.95 C 858.64 323.29 858.62 372.64 858.63 421.99 C 858.67 428.29 857.47 435.18 852.78 439.76 C 848.13 444.34 841.26 445.48 834.99 445.38 C 829.06 445.30 822.67 444.00 818.32 439.68 C 813.91 435.39 812.56 428.97 812.50 423.04 C 812.49 403.94 812.50 384.84 812.50 365.75 C 791.23 365.75 769.96 365.75 748.69 365.75 C 748.69 384.84 748.69 403.94 748.69 423.03 C 748.66 429.24 747.07 435.96 742.26 440.23 C 737.59 444.39 731.05 445.45 725.00 445.39 C 719.05 445.33 712.66 444.07 708.21 439.85 C 703.65 435.55 702.14 429.02 702.12 422.97 C 702.13 373.31 702.13 323.65 702.12 274.00 C 702.12 267.72 703.73 260.90 708.63 256.62 Z" />
<path fill="#ffffff" opacity="1.00" d=" M 1081.74 256.75 C 1086.90 252.12 1094.24 251.23 1100.91 251.52 C 1106.73 251.75 1112.95 253.46 1116.90 258.02 C 1120.97 262.62 1121.99 269.03 1122.00 274.98 C 1122.00 318.69 1122.00 362.41 1122.00 406.13 C 1138.32 406.12 1154.63 406.13 1170.95 406.12 C 1177.29 406.17 1184.19 405.51 1189.83 409.01 C 1194.66 411.90 1196.87 417.64 1197.18 423.04 C 1197.55 428.85 1196.96 435.31 1192.96 439.87 C 1189.27 444.08 1183.40 445.37 1178.03 445.38 C 1149.37 445.37 1120.70 445.39 1092.04 445.37 C 1086.73 445.45 1081.34 443.05 1078.32 438.61 C 1075.90 435.27 1075.21 431.03 1075.36 427.00 C 1075.38 376.32 1075.37 325.64 1075.36 274.96 C 1075.26 268.45 1076.68 261.29 1081.74 256.75 Z" />
<path fill="#ffffff" opacity="1.00" d=" M 205.10 283.05 C 214.63 280.70 225.20 286.53 228.33 295.82 C 231.05 303.14 228.97 311.94 223.21 317.23 C 217.46 322.79 208.28 324.25 201.07 320.84 C 193.60 317.49 188.73 309.24 189.49 301.08 C 190.00 292.50 196.68 284.78 205.10 283.05 Z" />
<path fill="#ffffff" opacity="1.00" d=" M 2059.00 306.82 C 2066.49 305.60 2074.00 304.38 2081.50 303.16 C 2081.50 311.54 2081.50 319.93 2081.50 328.31 C 2093.48 328.31 2105.46 328.31 2117.44 328.31 C 2117.43 334.54 2117.43 340.77 2117.44 347.00 C 2105.46 347.00 2093.48 347.00 2081.50 347.00 C 2081.54 359.31 2081.41 371.62 2081.57 383.93 C 2081.63 388.77 2083.59 394.89 2089.00 395.97 C 2098.10 397.43 2107.66 396.03 2115.96 391.96 C 2116.98 398.43 2118.02 404.89 2119.07 411.36 C 2108.59 415.50 2097.11 416.49 2085.94 415.89 C 2078.94 415.46 2071.31 414.07 2066.34 408.68 C 2060.50 402.33 2059.32 393.27 2059.05 385.00 C 2058.92 372.33 2059.03 359.67 2059.00 347.00 C 2052.49 347.00 2045.99 347.00 2039.50 347.00 C 2039.49 340.77 2039.49 334.54 2039.50 328.31 C 2045.99 328.31 2052.49 328.31 2059.00 328.31 C 2058.99 321.15 2058.99 313.98 2059.00 306.82 Z" />
<path fill="#ffffff" opacity="1.00" d=" M 319.27 307.44 C 320.46 309.01 323.10 311.04 321.10 313.01 C 319.12 315.42 316.62 312.95 315.13 311.38 C 316.49 310.04 317.88 308.73 319.27 307.44 Z" />
<path fill="#ffffff" opacity="1.00" d=" M 327.41 324.37 C 328.78 323.04 330.17 321.74 331.57 320.45 C 332.78 322.01 335.53 324.38 333.18 326.21 C 331.14 328.37 328.89 325.84 327.41 324.37 Z" />
<path fill="#ffffff" opacity="1.00" d=" M 1888.56 326.82 C 1899.24 324.94 1910.86 326.79 1919.75 333.26 C 1928.48 339.45 1933.87 349.50 1935.77 359.90 C 1937.40 369.13 1937.11 378.80 1934.42 387.81 C 1931.19 398.66 1923.66 408.52 1913.12 413.09 C 1899.61 418.88 1882.66 417.36 1871.23 407.79 C 1862.90 400.95 1858.03 390.61 1856.56 380.06 C 1854.85 367.81 1856.43 354.68 1863.10 344.05 C 1868.59 334.98 1878.13 328.62 1888.56 326.82 M 1892.20 346.18 C 1884.56 347.86 1880.67 355.77 1879.49 362.84 C 1878.14 371.93 1878.41 381.87 1883.06 390.05 C 1888.06 398.84 1902.34 399.21 1908.25 391.21 C 1912.77 385.18 1913.83 377.33 1913.72 369.99 C 1913.53 363.32 1912.44 356.24 1908.30 350.80 C 1904.56 346.03 1897.82 344.89 1892.20 346.18 Z" />
<path fill="#ffffff" opacity="1.00" d=" M 1679.88 331.01 C 1690.63 327.85 1701.88 326.56 1713.07 326.49 C 1722.35 326.48 1732.06 328.67 1739.36 334.69 C 1747.55 341.34 1752.04 351.63 1753.34 361.93 C 1754.60 372.52 1753.92 383.48 1750.43 393.61 C 1747.64 401.78 1742.14 409.38 1734.17 413.10 C 1724.11 417.86 1712.18 416.49 1702.30 411.96 C 1702.33 422.68 1702.30 433.40 1702.31 444.12 C 1694.83 444.12 1687.35 444.12 1679.88 444.12 C 1679.87 406.42 1679.87 368.72 1679.88 331.01 M 1702.31 346.44 C 1702.33 362.15 1702.28 377.86 1702.33 393.57 C 1708.74 396.60 1717.09 398.46 1723.47 394.39 C 1729.39 389.94 1730.58 381.87 1731.01 374.96 C 1731.37 366.08 1730.20 355.99 1723.52 349.46 C 1717.74 344.18 1709.36 345.82 1702.31 346.44 Z" />
<path fill="#ffffff" opacity="1.00" d=" M 1771.00 331.02 C 1781.70 327.87 1792.89 326.58 1804.03 326.49 C 1813.08 326.47 1822.52 328.48 1829.80 334.13 C 1838.41 340.74 1843.14 351.29 1844.47 361.87 C 1845.74 372.44 1845.08 383.39 1841.61 393.51 C 1838.86 401.56 1833.56 409.08 1825.77 412.88 C 1815.66 417.90 1803.51 416.56 1793.49 411.98 C 1793.51 422.70 1793.49 433.41 1793.50 444.13 C 1785.99 444.12 1778.50 444.12 1771.00 444.13 C 1771.00 406.42 1771.00 368.72 1771.00 331.02 M 1793.50 346.44 C 1793.50 362.14 1793.50 377.85 1793.50 393.56 C 1799.67 396.54 1807.50 398.24 1813.85 394.88 C 1820.42 390.71 1821.71 382.14 1822.15 374.99 C 1822.51 366.07 1821.35 355.90 1814.58 349.39 C 1808.81 344.19 1800.51 345.83 1793.50 346.44 Z" />
<path fill="#ffffff" opacity="1.00" d=" M 1958.00 333.97 C 1979.42 325.76 2003.38 324.40 2025.55 330.28 C 2024.22 337.24 2022.86 344.20 2021.53 351.16 C 2008.18 348.07 1994.08 346.92 1980.69 350.41 C 1980.69 371.63 1980.69 392.84 1980.69 414.06 C 1973.12 414.06 1965.56 414.06 1958.00 414.06 C 1958.00 387.37 1958.00 360.67 1958.00 333.97 Z" />
<path fill="#ffffff" opacity="1.00" d=" M 1588.00 328.31 C 1595.48 328.31 1602.96 328.30 1610.44 328.31 C 1610.49 344.43 1610.33 360.55 1610.52 376.67 C 1610.97 382.48 1611.14 389.21 1615.44 393.66 C 1620.71 398.09 1628.20 396.28 1634.43 395.64 C 1634.44 373.20 1634.43 350.76 1634.44 328.31 C 1641.99 328.31 1649.56 328.31 1657.12 328.31 C 1657.13 355.93 1657.12 383.55 1657.13 411.16 C 1646.61 413.78 1635.91 416.01 1625.04 416.06 C 1616.63 416.24 1607.65 415.42 1600.57 410.46 C 1594.05 406.05 1590.41 398.46 1589.17 390.86 C 1587.36 380.99 1588.18 370.92 1588.00 360.94 C 1588.00 350.06 1587.99 339.19 1588.00 328.31 Z" />
<path fill="#ffffff" opacity="1.00" d=" M 340.51 335.74 C 343.00 333.38 347.72 335.43 347.02 338.98 C 346.03 342.66 341.27 346.98 337.50 344.36 C 334.58 341.48 337.83 337.42 340.51 335.74 Z" />
<path fill="#ffffff" opacity="1.00" d=" M 354.01 352.00 C 355.28 350.78 356.57 349.58 357.86 348.38 C 358.97 349.87 361.82 351.93 359.90 353.86 C 357.89 356.21 355.48 353.51 354.01 352.00 Z" />
</g>
<g id="#ff0c00ff">
<path fill="#ff0c00" opacity="1.00" d=" M 1521.81 28.91 C 1536.38 26.09 1551.82 28.40 1564.91 35.40 C 1562.74 41.20 1560.51 46.99 1558.34 52.79 C 1552.31 49.68 1545.84 47.07 1538.98 46.74 C 1533.43 46.45 1527.42 46.49 1522.53 49.46 C 1516.88 52.89 1515.64 61.83 1520.35 66.53 C 1524.83 71.37 1531.33 73.39 1537.30 75.71 C 1544.45 78.56 1551.98 81.00 1558.01 85.96 C 1564.15 90.86 1568.61 98.06 1569.57 105.92 C 1570.86 115.56 1569.50 126.31 1562.85 133.85 C 1556.69 141.03 1547.15 144.09 1538.02 145.09 C 1529.29 145.98 1520.40 145.80 1511.76 144.19 C 1505.29 142.80 1499.16 140.15 1493.32 137.09 C 1495.52 130.98 1497.71 124.87 1499.92 118.77 C 1507.03 122.64 1514.65 126.06 1522.86 126.54 C 1529.20 126.94 1536.10 127.19 1541.75 123.78 C 1546.41 121.05 1548.16 115.11 1547.28 110.02 C 1546.50 106.30 1543.60 103.51 1540.63 101.38 C 1530.99 94.78 1519.04 92.93 1509.16 86.79 C 1502.17 82.47 1496.50 75.38 1495.39 67.08 C 1494.24 58.40 1495.49 48.98 1500.71 41.74 C 1505.62 34.80 1513.58 30.54 1521.81 28.91 Z" />
<path fill="#ff0c00" opacity="1.00" d=" M 1524.50 163.75 C 1533.43 162.42 1543.02 163.33 1550.98 167.85 C 1558.19 171.92 1563.38 178.85 1566.53 186.40 C 1570.68 196.39 1571.98 207.31 1572.31 218.04 C 1572.55 228.59 1571.96 239.26 1569.27 249.50 C 1566.91 258.48 1562.52 267.27 1555.25 273.26 C 1544.71 281.97 1529.36 282.95 1516.84 278.42 C 1508.58 275.30 1502.09 268.57 1498.24 260.75 C 1493.19 250.60 1491.57 239.15 1491.10 227.95 C 1490.72 216.38 1491.28 204.63 1494.49 193.44 C 1496.85 185.23 1501.03 177.32 1507.54 171.65 C 1512.27 167.44 1518.26 164.77 1524.50 163.75 M 1526.30 183.59 C 1522.38 184.91 1519.65 188.39 1517.98 192.02 C 1514.88 198.89 1514.36 206.56 1514.01 213.99 C 1513.70 223.32 1513.73 232.72 1515.03 241.99 C 1516.10 248.36 1518.10 255.35 1523.63 259.29 C 1529.47 262.92 1538.25 262.14 1542.64 256.54 C 1546.82 251.37 1548.06 244.56 1548.80 238.13 C 1549.78 227.09 1549.77 215.95 1548.68 204.92 C 1547.88 198.59 1546.47 191.87 1542.08 186.99 C 1538.25 182.56 1531.60 181.91 1526.30 183.59 Z" />
<path fill="#ff0c00" opacity="1.00" d=" M 1522.16 299.67 C 1536.62 296.94 1551.92 299.31 1564.92 306.22 C 1562.73 312.03 1560.52 317.82 1558.34 323.62 C 1552.29 320.49 1545.80 317.90 1538.93 317.57 C 1533.56 317.28 1527.82 317.36 1523.00 320.00 C 1516.91 323.27 1515.49 332.70 1520.49 337.52 C 1525.04 342.31 1531.53 344.29 1537.52 346.62 C 1544.62 349.47 1552.12 351.90 1558.10 356.87 C 1564.30 361.83 1568.73 369.16 1569.62 377.12 C 1570.88 386.91 1569.31 397.85 1562.30 405.29 C 1555.13 413.12 1544.12 415.67 1533.92 416.28 C 1523.67 416.72 1513.06 416.39 1503.42 412.51 C 1499.94 411.22 1496.58 409.66 1493.32 407.93 C 1495.51 401.82 1497.71 395.71 1499.92 389.60 C 1506.81 393.34 1514.15 396.71 1522.08 397.30 C 1528.64 397.79 1535.80 398.13 1541.68 394.66 C 1546.33 391.98 1548.12 386.12 1547.32 381.04 C 1546.62 377.29 1543.72 374.46 1540.76 372.31 C 1530.96 365.50 1518.68 363.74 1508.68 357.31 C 1501.96 353.01 1496.53 346.10 1495.41 338.05 C 1494.18 329.12 1495.55 319.37 1501.10 312.03 C 1506.12 305.31 1514.01 301.22 1522.16 299.67 Z" />
<path fill="#ff0c00" opacity="1.00" d=" M 583.50 319.73 C 589.22 317.90 595.52 317.89 601.24 319.74 C 610.56 322.89 617.74 331.43 619.54 341.06 C 620.50 346.29 620.32 351.79 618.72 356.88 C 615.90 365.67 608.60 373.15 599.53 375.36 C 591.57 377.26 582.59 376.02 576.08 370.84 C 565.10 362.72 561.95 346.79 567.46 334.59 C 570.57 327.80 576.36 322.12 583.50 319.73 Z" />
</g>
</svg>
