<?xml version="1.0" encoding="UTF-8" ?>
<!DOCTYPE svg PUBLIC "-//W3C//DTD SVG 1.1//EN" "http://www.w3.org/Graphics/SVG/1.1/DTD/svg11.dtd">
<svg width="2202pt" height="467pt" viewBox="0 0 2202 467" version="1.1" xmlns="http://www.w3.org/2000/svg">
<g id="#ffffffff">
<path fill="#ffffff" opacity="1.00" d=" M 227.52 0.00 L 238.77 0.00 C 279.55 1.08 320.06 12.71 354.84 34.11 C 402.30 62.93 438.86 109.21 455.65 162.16 C 470.96 209.86 470.36 262.50 453.90 309.82 C 442.57 342.60 423.75 372.75 399.34 397.38 C 376.17 420.88 347.95 439.39 317.14 451.23 C 290.67 461.48 262.30 466.50 233.95 466.93 C 199.13 466.66 164.26 459.14 132.84 444.01 C 79.38 418.64 36.39 372.14 15.40 316.80 C 5.85 292.12 0.92 265.79 0.00 239.38 L 0.00 228.10 C 0.81 201.02 5.94 174.03 15.84 148.78 C 35.23 98.62 72.63 55.75 119.61 29.60 C 152.46 11.09 189.88 1.12 227.52 0.00 M 113.58 73.27 C 204.51 169.55 295.43 265.83 386.37 362.10 C 415.97 327.15 432.89 281.78 433.30 235.97 C 433.82 200.23 424.54 164.39 406.59 133.47 C 387.10 99.66 357.51 71.78 322.57 54.40 C 288.90 37.49 250.35 30.60 212.89 34.48 C 177.07 38.04 142.37 51.68 113.58 73.27 M 102.90 84.99 C 102.01 88.44 105.25 91.42 104.75 94.79 C 101.58 96.64 100.08 91.63 99.59 89.38 C 98.19 89.50 96.80 89.63 95.41 89.75 C 95.96 94.02 98.49 98.55 102.97 99.57 C 107.06 100.68 111.37 96.15 109.49 92.16 C 109.11 89.90 106.67 87.52 108.17 85.29 C 110.94 84.99 111.83 88.15 112.54 90.19 C 113.47 90.09 115.33 89.89 116.26 89.79 C 115.93 86.02 113.71 82.13 109.84 81.12 C 106.96 80.19 103.55 82.00 102.90 84.99 M 109.28 106.93 C 110.37 110.74 114.01 113.27 117.89 113.45 C 118.02 112.52 118.28 110.65 118.41 109.72 C 116.07 109.19 113.15 107.83 113.43 104.94 C 114.05 101.25 118.01 97.64 121.89 98.72 C 123.87 99.35 124.30 101.53 124.86 103.25 C 125.82 103.15 127.75 102.96 128.71 102.87 C 128.34 99.70 126.92 96.48 123.90 95.04 C 116.72 91.06 106.97 99.17 109.28 106.93 M 35.16 207.03 C 29.96 246.06 36.51 286.62 54.07 321.89 C 71.31 356.89 99.07 386.58 132.79 406.19 C 162.43 423.55 196.63 432.95 230.97 433.30 C 278.70 434.08 326.37 416.88 362.66 385.89 C 271.28 289.12 179.87 192.36 88.49 95.58 C 59.59 125.90 40.51 165.46 35.16 207.03 M 118.00 117.01 C 119.09 118.16 120.17 119.31 121.26 120.47 C 125.99 116.01 130.72 111.56 135.44 107.10 C 134.35 105.95 133.27 104.79 132.18 103.64 C 127.45 108.10 122.73 112.55 118.00 117.01 M 124.25 123.64 C 127.15 126.71 130.05 129.79 132.95 132.87 C 133.91 131.95 134.88 131.03 135.85 130.12 C 134.04 128.20 132.23 126.28 130.41 124.36 C 131.39 123.44 132.37 122.52 133.35 121.60 C 134.84 123.17 136.32 124.74 137.80 126.31 C 138.77 125.40 139.74 124.48 140.71 123.57 C 139.23 122.00 137.74 120.43 136.26 118.87 C 137.10 118.06 137.95 117.25 138.80 116.45 C 140.55 118.30 142.29 120.15 144.04 122.01 C 145.00 121.10 145.96 120.19 146.93 119.28 C 144.10 116.28 141.26 113.28 138.44 110.27 C 133.71 114.72 128.99 119.19 124.25 123.64 M 135.50 135.58 C 136.54 136.67 137.58 137.76 138.62 138.85 C 142.00 135.76 145.31 132.59 148.18 129.00 C 146.15 133.69 144.55 138.55 142.84 143.36 C 143.93 144.52 145.03 145.68 146.13 146.84 C 150.85 142.38 155.58 137.93 160.31 133.47 C 159.28 132.37 158.24 131.28 157.21 130.19 C 153.84 133.28 150.49 136.43 147.66 140.05 C 149.73 135.38 151.30 130.51 152.98 125.69 C 151.88 124.53 150.78 123.37 149.69 122.21 C 144.96 126.67 140.24 131.13 135.50 135.58 M 152.34 152.59 C 153.43 156.42 157.09 158.96 161.00 159.17 C 161.16 157.92 161.32 156.67 161.50 155.42 C 159.27 154.90 156.52 153.73 156.49 151.01 C 156.80 147.37 160.34 143.99 164.05 144.18 C 166.52 144.37 167.43 146.86 167.89 148.92 C 169.19 148.81 170.48 148.69 171.78 148.57 C 171.39 145.43 170.04 142.21 167.04 140.76 C 159.88 136.70 150.05 144.80 152.34 152.59 M 161.07 162.69 C 163.97 165.77 166.86 168.84 169.77 171.91 C 170.74 171.00 171.71 170.08 172.67 169.17 C 170.86 167.25 169.05 165.32 167.24 163.40 C 168.22 162.48 169.20 161.57 170.18 160.65 C 171.65 162.22 173.13 163.79 174.61 165.35 C 175.59 164.45 176.55 163.54 177.53 162.63 C 176.05 161.05 174.57 159.48 173.08 157.91 C 173.72 157.30 174.99 156.10 175.62 155.50 C 177.37 157.35 179.12 159.20 180.87 161.05 C 181.83 160.14 182.78 159.23 183.74 158.32 C 180.91 155.32 178.09 152.32 175.25 149.33 C 170.52 153.78 165.80 158.24 161.07 162.69 M 186.21 169.27 C 182.89 171.02 179.97 174.11 179.29 177.90 C 178.26 183.60 184.28 189.27 189.92 187.65 C 194.23 186.37 198.12 182.67 198.84 178.13 C 199.73 171.73 192.01 165.89 186.21 169.27 M 204.64 180.49 C 199.92 184.95 195.19 189.40 190.47 193.86 C 191.55 195.01 192.64 196.16 193.73 197.32 C 195.27 195.86 196.81 194.41 198.34 192.95 C 200.04 194.56 201.64 196.51 203.99 197.17 C 208.41 198.63 213.64 193.67 211.81 189.20 C 210.28 185.69 207.09 183.32 204.64 180.49 M 202.74 206.88 C 205.64 209.94 208.53 213.02 211.43 216.09 C 212.40 215.18 213.36 214.26 214.33 213.35 C 212.52 211.42 210.71 209.50 208.91 207.58 C 209.88 206.66 210.86 205.75 211.84 204.84 C 213.32 206.41 214.80 207.98 216.29 209.55 C 217.25 208.64 218.22 207.72 219.19 206.81 C 217.71 205.23 216.22 203.66 214.74 202.09 C 215.59 201.28 216.44 200.48 217.29 199.68 C 219.03 201.53 220.78 203.39 222.53 205.24 C 223.49 204.33 224.45 203.42 225.41 202.51 C 222.58 199.50 219.75 196.51 216.92 193.51 C 212.18 197.95 207.47 202.42 202.74 206.88 M 213.99 218.81 C 215.02 219.90 216.06 221.00 217.09 222.10 C 220.48 219.00 223.81 215.81 226.68 212.21 C 224.63 216.90 223.05 221.76 221.31 226.57 C 222.41 227.73 223.50 228.90 224.60 230.08 C 229.34 225.63 234.06 221.17 238.79 216.71 C 237.75 215.61 236.72 214.51 235.69 213.41 C 232.33 216.52 228.98 219.67 226.14 223.28 C 228.22 218.62 229.76 213.75 231.47 208.95 C 230.37 207.78 229.27 206.61 228.18 205.44 C 223.44 209.89 218.73 214.36 213.99 218.81 M 227.65 233.28 C 228.67 234.38 229.70 235.48 230.73 236.58 C 234.12 233.49 237.42 230.31 240.30 226.74 C 238.27 231.41 236.68 236.26 234.96 241.06 C 236.07 242.22 237.16 243.38 238.27 244.55 C 242.99 240.09 247.71 235.64 252.44 231.18 C 251.41 230.09 250.38 228.99 249.36 227.90 C 245.98 230.99 242.63 234.13 239.81 237.75 C 241.86 233.07 243.43 228.21 245.12 223.41 C 244.02 222.24 242.92 221.08 241.83 219.92 C 237.10 224.37 232.37 228.83 227.65 233.28 M 241.30 247.77 C 244.19 250.84 247.09 253.90 249.98 256.98 C 250.95 256.06 251.92 255.15 252.89 254.23 C 251.08 252.32 249.27 250.40 247.46 248.48 C 248.43 247.56 249.41 246.64 250.39 245.72 C 251.87 247.29 253.35 248.86 254.84 250.43 C 255.80 249.52 256.77 248.60 257.74 247.69 C 256.26 246.11 254.77 244.54 253.29 242.98 C 254.13 242.17 254.99 241.37 255.84 240.57 C 257.58 242.42 259.33 244.27 261.07 246.11 C 262.03 245.21 263.00 244.31 263.97 243.41 C 261.14 240.40 258.31 237.39 255.47 234.39 C 250.75 238.85 246.01 243.30 241.30 247.77 M 261.09 256.00 C 261.56 258.34 264.33 261.64 261.18 263.16 C 259.07 261.65 257.94 259.35 257.50 256.84 C 256.10 256.95 254.70 257.06 253.31 257.19 C 253.82 261.47 256.40 266.02 260.89 267.00 C 264.74 268.03 268.95 263.98 267.52 260.10 C 267.14 257.73 264.84 255.36 265.84 253.03 C 268.51 251.70 269.78 255.71 270.44 257.62 C 271.69 257.48 272.95 257.35 274.21 257.22 C 273.80 252.92 270.71 248.33 266.00 248.32 C 262.19 248.18 259.41 252.60 261.09 256.00 M 272.31 264.11 C 271.26 267.59 274.08 270.65 274.26 274.05 C 271.26 276.58 269.31 271.35 268.92 268.97 C 267.53 269.06 266.13 269.15 264.75 269.25 C 265.19 273.74 268.11 278.61 272.94 279.19 C 276.71 279.76 280.42 275.65 278.87 271.98 C 278.51 269.69 276.16 267.29 277.33 265.07 C 280.02 263.99 281.14 267.79 281.84 269.71 C 282.78 269.61 284.67 269.42 285.61 269.32 C 285.16 265.88 283.44 262.31 280.04 260.96 C 277.18 259.52 273.26 261.00 272.31 264.11 M 287.68 281.03 C 287.00 284.40 289.68 287.26 289.73 290.57 C 286.61 292.93 284.88 287.75 284.41 285.37 C 283.36 285.46 281.26 285.65 280.21 285.74 C 280.75 290.11 283.49 294.88 288.20 295.60 C 292.20 296.38 296.13 291.91 294.27 288.09 C 293.99 285.86 291.19 283.19 293.19 281.20 C 295.83 281.21 296.63 284.16 297.36 286.16 C 298.61 286.02 299.87 285.87 301.13 285.72 C 300.63 282.08 298.65 278.28 294.90 277.17 C 291.96 276.06 288.32 277.91 287.68 281.03 M 294.58 297.54 C 290.83 303.23 298.44 311.50 304.43 308.21 C 308.80 305.68 311.99 301.61 315.78 298.35 C 314.73 297.24 313.69 296.13 312.65 295.03 C 309.30 297.95 306.39 301.38 302.77 303.97 C 300.33 305.96 296.64 302.30 298.59 299.87 C 301.40 296.32 305.05 293.56 308.24 290.35 C 307.15 289.20 306.07 288.05 305.00 286.91 C 301.55 290.47 297.34 293.37 294.58 297.54 M 304.52 314.82 C 305.60 315.96 306.69 317.12 307.78 318.27 C 309.32 316.82 310.86 315.37 312.39 313.91 C 314.09 315.50 315.68 317.46 318.03 318.12 C 322.47 319.62 327.76 314.56 325.84 310.07 C 324.29 306.60 321.12 304.26 318.69 301.45 C 313.97 305.90 309.24 310.35 304.52 314.82 M 316.79 327.84 C 317.88 328.98 318.96 330.13 320.05 331.28 C 321.59 329.83 323.13 328.37 324.68 326.92 C 326.30 328.46 327.81 330.32 330.02 331.05 C 334.53 332.84 340.11 327.66 338.10 323.06 C 336.54 319.61 333.39 317.27 330.97 314.46 C 326.24 318.92 321.51 323.38 316.79 327.84 M 340.37 330.55 C 336.55 331.86 333.27 335.04 332.12 338.94 C 330.41 344.67 336.22 350.89 342.05 349.64 C 346.33 348.66 350.06 345.20 351.31 340.98 C 352.93 334.96 346.36 328.52 340.37 330.55 M 343.11 355.73 C 344.19 356.88 345.27 358.03 346.35 359.19 C 348.11 357.52 349.86 355.83 351.79 354.36 C 353.73 357.29 350.83 360.42 350.30 363.38 C 351.51 364.65 352.72 365.93 353.94 367.22 C 354.79 364.52 355.63 361.82 356.45 359.11 C 360.38 359.98 365.00 357.21 365.00 352.95 C 364.35 348.37 360.01 345.72 357.28 342.37 C 352.56 346.83 347.84 351.28 343.11 355.73 M 366.03 357.43 C 367.23 358.70 368.42 359.96 369.62 361.24 C 365.85 364.78 362.09 368.34 358.32 371.88 C 359.41 373.03 360.49 374.18 361.58 375.33 C 365.36 371.79 369.12 368.24 372.88 364.68 C 374.08 365.96 375.29 367.24 376.50 368.53 C 377.45 367.61 378.41 366.70 379.37 365.79 C 375.90 362.09 372.40 358.40 368.92 354.70 C 367.95 355.61 366.99 356.52 366.03 357.43 Z" />
<path fill="#ffffff" opacity="1.00" d=" M 489.17 32.97 C 489.15 24.55 496.65 17.24 505.06 17.39 C 534.72 17.34 564.38 17.39 594.04 17.37 C 599.23 17.33 604.87 18.61 608.46 22.63 C 612.17 26.76 612.95 32.63 612.79 37.98 C 612.64 42.91 611.37 48.20 607.61 51.66 C 603.99 55.04 598.83 56.05 594.03 56.06 C 574.60 56.06 555.18 56.06 535.75 56.06 C 535.75 70.21 535.75 84.35 535.75 98.50 C 551.49 98.50 567.24 98.50 582.98 98.50 C 587.91 98.50 593.23 99.54 596.91 103.07 C 600.63 106.63 601.80 112.00 601.87 116.98 C 601.94 122.33 601.04 128.19 597.20 132.22 C 593.59 136.07 588.07 137.21 582.99 137.24 C 567.24 137.27 551.49 137.24 535.75 137.25 C 535.73 154.44 535.78 171.63 535.72 188.82 C 535.65 195.09 534.09 201.93 529.16 206.20 C 524.24 210.50 517.36 211.42 511.06 211.24 C 505.21 211.07 498.97 209.60 494.76 205.28 C 490.34 200.77 489.07 194.18 489.12 188.08 C 489.16 136.37 489.06 84.67 489.17 32.97 Z" />
<path fill="#ffffff" opacity="1.00" d=" M 651.00 22.02 C 654.10 18.87 658.55 17.33 662.92 17.37 C 692.29 17.37 721.66 17.37 751.02 17.38 C 756.15 17.42 761.71 18.84 765.13 22.93 C 768.63 27.08 769.35 32.80 769.18 38.05 C 769.03 42.82 767.83 47.92 764.31 51.36 C 760.60 55.08 755.08 56.11 750.02 56.07 C 730.97 56.06 711.92 56.06 692.87 56.06 C 692.87 68.00 692.87 79.94 692.87 91.87 C 707.94 91.87 723.00 91.88 738.07 91.87 C 743.16 91.84 748.67 92.78 752.52 96.38 C 756.24 99.83 757.56 105.06 757.73 109.97 C 757.93 115.39 757.19 121.31 753.54 125.57 C 749.97 129.74 744.22 131.08 738.96 131.12 C 723.59 131.14 708.23 131.12 692.87 131.13 C 692.87 144.75 692.87 158.37 692.87 172.00 C 712.92 172.01 732.96 171.98 753.01 172.01 C 758.28 172.04 764.04 173.25 767.74 177.31 C 771.36 181.22 772.30 186.80 772.27 191.95 C 772.24 197.09 771.12 202.64 767.34 206.39 C 763.60 210.11 758.11 211.23 753.03 211.25 C 723.69 211.26 694.36 211.23 665.03 211.27 C 660.56 211.43 655.82 210.66 652.28 207.72 C 648.12 204.53 646.15 199.20 646.26 194.05 C 646.24 141.02 646.25 87.99 646.25 34.95 C 646.13 30.26 647.53 25.34 651.00 22.02 Z" />
<path fill="#ffffff" opacity="1.00" d=" M 884.81 22.97 C 887.01 18.99 891.81 17.54 896.09 17.40 C 902.42 17.33 908.76 17.39 915.10 17.37 C 919.43 17.34 923.92 18.84 926.88 22.12 C 930.36 25.93 931.37 31.17 933.29 35.81 C 940.58 54.99 947.23 74.39 954.22 93.68 C 955.59 97.16 956.51 100.88 958.51 104.09 C 968.14 79.17 977.39 54.10 986.86 29.11 C 989.52 22.27 996.60 17.46 1003.93 17.39 C 1009.51 17.36 1015.09 17.33 1020.68 17.40 C 1025.24 17.51 1030.45 19.31 1032.35 23.85 C 1034.24 28.35 1032.63 33.35 1030.67 37.53 C 1014.29 72.52 997.78 107.45 981.52 142.50 C 980.99 158.30 981.55 174.17 981.25 190.00 C 981.04 196.03 979.23 202.52 974.39 206.48 C 969.31 210.68 962.36 211.48 956.00 211.21 C 950.24 210.97 944.13 209.31 940.16 204.89 C 936.04 200.35 934.91 193.95 934.93 188.02 C 934.95 173.64 934.92 159.26 934.95 144.88 C 935.18 142.46 933.73 140.40 932.84 138.28 C 917.15 104.58 901.54 70.84 885.87 37.14 C 883.85 32.80 882.32 27.44 884.81 22.97 Z" />
<path fill="#ffffff" opacity="1.00" d=" M 1091.16 30.30 C 1093.20 22.91 1100.44 17.54 1108.06 17.39 C 1117.71 17.34 1127.36 17.40 1137.02 17.37 C 1143.14 17.18 1149.31 20.17 1152.78 25.26 C 1154.82 28.19 1155.56 31.76 1156.65 35.11 C 1172.84 87.56 1189.02 140.01 1205.22 192.46 C 1206.61 196.86 1207.01 202.14 1204.10 206.03 C 1201.37 209.87 1196.44 211.23 1191.95 211.24 C 1186.31 211.23 1180.67 211.33 1175.04 211.19 C 1167.80 210.95 1161.00 205.80 1159.10 198.77 C 1156.28 188.11 1153.62 177.42 1150.86 166.75 C 1131.80 166.75 1112.74 166.75 1093.68 166.75 C 1091.23 176.34 1088.75 185.92 1086.32 195.52 C 1085.41 199.87 1083.63 204.26 1080.09 207.14 C 1076.26 210.55 1070.97 211.52 1065.99 211.26 C 1060.63 211.06 1055.21 211.70 1049.91 210.75 C 1045.43 209.93 1041.29 206.65 1040.20 202.12 C 1039.04 197.72 1040.54 193.28 1041.88 189.12 C 1058.32 136.18 1074.73 83.24 1091.16 30.30 M 1121.90 51.49 C 1115.86 78.02 1109.24 104.42 1102.60 130.81 C 1115.79 130.81 1128.99 130.81 1142.19 130.81 C 1135.51 106.18 1129.65 81.35 1123.75 56.52 C 1123.29 54.79 1123.04 52.93 1121.90 51.49 Z" />
<path fill="#ffffff" opacity="1.00" d=" M 1239.40 19.41 C 1244.78 16.39 1251.13 17.62 1257.02 17.37 C 1262.75 17.61 1268.73 16.58 1274.24 18.68 C 1278.83 20.35 1282.36 24.12 1284.51 28.43 C 1295.87 50.36 1307.24 72.28 1318.61 94.20 C 1328.69 112.53 1336.36 132.03 1345.03 151.04 C 1345.44 152.14 1346.13 153.04 1347.11 153.73 C 1344.62 129.86 1341.25 106.01 1340.82 81.97 C 1340.81 67.66 1340.79 53.34 1340.83 39.03 C 1340.84 32.72 1342.49 25.76 1347.69 21.70 C 1353.10 17.45 1360.42 16.99 1367.02 17.54 C 1372.87 18.04 1378.95 20.65 1382.01 25.91 C 1386.01 32.54 1385.07 40.58 1385.19 47.97 C 1385.19 94.64 1385.18 141.31 1385.19 187.98 C 1385.13 193.02 1385.70 198.45 1383.16 203.03 C 1380.66 207.89 1375.40 211.01 1369.98 211.18 C 1362.99 211.35 1356.00 211.20 1349.02 211.26 C 1344.68 211.33 1340.18 210.19 1336.91 207.22 C 1333.87 204.62 1332.34 200.84 1330.54 197.39 C 1319.25 175.33 1307.95 153.28 1296.66 131.23 C 1288.19 115.54 1281.60 98.95 1274.24 82.73 C 1272.82 79.95 1272.15 76.67 1269.80 74.48 C 1271.77 98.29 1275.48 122.01 1275.51 145.96 C 1275.49 160.63 1275.51 175.31 1275.50 189.99 C 1275.44 195.88 1273.93 202.27 1269.35 206.33 C 1264.66 210.49 1258.05 211.42 1252.00 211.24 C 1246.43 211.09 1240.46 209.67 1236.50 205.49 C 1232.31 201.16 1231.17 194.87 1231.19 189.05 C 1231.20 137.36 1231.17 85.68 1231.20 33.99 C 1231.09 28.12 1234.14 22.21 1239.40 19.41 Z" />
<path fill="#ffffff" opacity="1.00" d=" M 823.51 18.77 C 831.54 16.59 840.82 16.50 848.20 20.79 C 854.69 24.73 856.97 32.78 856.92 39.96 C 856.96 85.65 856.93 131.34 856.94 177.03 C 856.68 185.10 858.03 193.73 854.23 201.22 C 851.42 206.95 845.24 210.22 839.09 210.91 C 831.73 211.75 823.48 211.33 817.41 206.60 C 811.89 202.22 810.23 194.77 810.30 188.05 C 810.33 138.33 810.27 88.62 810.34 38.91 C 810.15 30.36 814.79 21.15 823.51 18.77 Z" />
<path fill="#ffffff" opacity="1.00" d=" M 1435.75 17.50 C 1441.41 17.50 1447.08 17.50 1452.75 17.50 C 1452.75 160.17 1452.75 302.83 1452.75 445.50 C 1447.08 445.50 1441.41 445.50 1435.75 445.50 C 1435.75 302.83 1435.75 160.17 1435.75 17.50 Z" />
<path fill="#ffffff" opacity="1.00" d=" M 1670.44 19.65 C 1675.80 17.97 1682.29 18.45 1686.67 22.25 C 1692.95 27.75 1692.01 39.45 1684.56 43.50 C 1678.63 46.65 1670.41 46.29 1665.45 41.52 C 1659.05 35.14 1661.37 22.22 1670.44 19.65 Z" />
<path fill="#ffffff" opacity="1.00" d=" M 1587.81 72.87 C 1600.65 53.94 1630.65 48.41 1648.28 63.78 C 1644.24 69.29 1640.19 74.80 1636.15 80.30 C 1633.41 78.40 1630.53 76.39 1627.13 76.07 C 1620.81 75.36 1614.12 78.24 1610.74 83.72 C 1606.60 90.32 1606.17 98.69 1607.83 106.14 C 1609.31 112.73 1614.02 119.08 1620.90 120.56 C 1627.44 122.16 1633.95 119.07 1639.04 115.16 C 1642.40 120.87 1645.78 126.58 1649.15 132.30 C 1635.12 144.18 1613.20 145.30 1597.89 135.24 C 1589.19 129.53 1583.48 119.99 1581.47 109.88 C 1578.95 97.38 1580.38 83.53 1587.81 72.87 Z" />
<path fill="#ffffff" opacity="1.00" d=" M 1731.51 57.42 C 1745.16 52.18 1762.75 54.94 1772.05 66.89 C 1780.54 77.90 1781.82 92.89 1779.40 106.19 C 1763.11 106.20 1746.82 106.16 1730.54 106.21 C 1731.81 111.77 1734.87 117.27 1740.22 119.80 C 1749.41 124.22 1760.38 121.98 1768.84 116.91 C 1771.70 122.15 1774.60 127.36 1777.47 132.59 C 1763.49 142.19 1744.54 145.20 1728.83 138.18 C 1719.01 133.90 1711.35 125.23 1708.05 115.07 C 1704.68 104.78 1704.53 93.38 1707.80 83.04 C 1711.41 71.56 1720.20 61.71 1731.51 57.42 M 1734.08 80.00 C 1731.90 82.58 1730.89 85.85 1730.08 89.06 C 1739.55 89.07 1749.02 89.06 1758.49 89.06 C 1758.28 84.78 1757.37 79.98 1753.71 77.26 C 1747.78 73.08 1738.60 74.26 1734.08 80.00 Z" />
<path fill="#ffffff" opacity="1.00" d=" M 1820.19 67.53 C 1825.98 61.99 1832.80 57.03 1840.84 55.52 C 1849.02 53.97 1858.52 55.14 1864.59 61.36 C 1871.11 68.07 1872.69 77.91 1872.92 86.90 C 1872.96 104.60 1872.92 122.30 1872.94 140.00 C 1864.27 140.00 1855.60 140.00 1846.94 140.00 C 1846.94 124.99 1846.93 109.98 1846.94 94.97 C 1846.83 90.10 1847.28 84.78 1844.73 80.41 C 1842.69 77.14 1838.34 76.81 1834.91 77.31 C 1830.13 77.91 1826.52 81.36 1823.11 84.43 C 1823.00 102.95 1823.09 121.48 1823.06 140.00 C 1814.39 140.00 1805.72 140.00 1797.06 140.00 C 1797.06 112.31 1797.06 84.62 1797.06 56.94 C 1804.12 56.94 1811.18 56.94 1818.25 56.94 C 1818.89 60.47 1819.54 64.00 1820.19 67.53 Z" />
<path fill="#ffffff" opacity="1.00" d=" M 1895.82 72.85 C 1908.67 53.94 1938.65 48.41 1956.27 63.78 C 1952.23 69.30 1948.18 74.80 1944.14 80.30 C 1941.40 78.39 1938.51 76.38 1935.09 76.07 C 1928.77 75.37 1922.09 78.26 1918.73 83.74 C 1914.58 90.37 1914.16 98.77 1915.85 106.24 C 1917.34 112.80 1922.08 119.11 1928.93 120.57 C 1935.47 122.14 1941.96 119.07 1947.03 115.16 C 1950.40 120.87 1953.76 126.58 1957.14 132.28 C 1943.48 143.91 1922.31 145.21 1907.05 135.99 C 1898.15 130.61 1892.07 121.30 1889.77 111.25 C 1886.82 98.36 1888.13 83.91 1895.82 72.85 Z" />
<path fill="#ffffff" opacity="1.00" d=" M 1989.16 58.99 C 2003.10 51.86 2022.42 53.82 2032.74 66.28 C 2041.67 77.30 2043.05 92.66 2040.58 106.18 C 2024.29 106.20 2008.01 106.17 1991.72 106.20 C 1993.00 111.91 1996.24 117.54 2001.79 119.99 C 2010.92 124.14 2021.67 121.92 2030.01 116.91 C 2032.88 122.14 2035.79 127.36 2038.64 132.61 C 2022.38 143.89 1998.71 145.95 1982.42 133.68 C 1969.09 123.75 1964.70 105.61 1967.34 89.81 C 1969.32 76.92 1977.36 64.86 1989.16 58.99 M 1995.07 80.24 C 1993.00 82.77 1992.06 85.95 1991.26 89.06 C 2000.73 89.07 2010.20 89.06 2019.68 89.06 C 2019.46 84.75 2018.54 79.90 2014.82 77.21 C 2008.79 73.04 1999.51 74.32 1995.07 80.24 Z" />
<path fill="#ffffff" opacity="1.00" d=" M 210.56 64.61 C 225.41 53.50 248.41 55.14 261.14 68.80 C 266.56 74.72 272.00 80.65 277.31 86.68 C 280.42 89.52 285.08 89.54 289.03 89.12 C 295.08 88.05 301.23 87.41 307.14 85.65 C 323.75 83.17 341.13 92.72 348.21 107.90 C 352.58 116.29 352.46 125.95 353.39 135.12 C 353.51 140.37 357.27 145.18 362.17 146.93 C 370.52 150.68 379.73 153.11 386.80 159.20 C 398.04 168.35 403.86 183.75 400.99 198.01 C 399.43 207.12 393.58 214.53 389.27 222.45 C 386.58 226.73 383.37 231.68 385.38 236.95 C 390.12 247.41 398.38 256.37 400.62 267.91 C 403.63 282.17 398.34 297.83 387.19 307.24 C 380.37 313.23 371.38 315.54 363.28 319.23 C 356.82 312.36 350.32 305.53 343.87 298.65 C 350.70 294.92 358.16 292.56 365.20 289.29 C 371.27 286.08 374.28 278.22 371.40 271.88 C 366.62 262.47 359.40 254.05 357.31 243.48 C 355.88 236.47 356.15 229.10 358.21 222.25 C 360.26 215.24 364.73 209.34 368.18 203.00 C 370.21 199.22 373.48 195.54 372.88 190.94 C 372.28 187.46 371.56 183.49 368.18 181.61 C 358.97 176.22 347.88 174.33 339.45 167.54 C 332.29 161.85 327.32 153.48 325.83 144.45 C 324.99 138.64 324.77 132.76 324.08 126.93 C 323.44 120.75 318.18 115.39 311.98 114.75 C 306.98 114.34 302.11 115.89 297.19 116.50 C 293.05 116.86 289.21 118.86 285.02 118.70 C 273.80 118.90 263.07 113.51 255.20 105.76 C 250.20 100.40 245.29 94.95 240.43 89.47 C 237.59 86.32 232.81 86.31 228.96 87.06 C 223.61 88.37 220.66 93.43 217.01 97.09 C 211.77 102.48 207.39 108.90 200.85 112.85 C 192.49 117.96 182.00 120.28 172.49 117.24 C 162.94 107.05 153.30 96.95 143.75 86.75 C 148.04 85.80 152.49 84.85 156.89 85.54 C 163.54 86.95 170.29 87.75 176.97 88.99 C 181.27 89.86 186.00 89.13 189.50 86.38 C 196.88 79.49 202.63 70.92 210.56 64.61 Z" />
<path fill="#ffffff" opacity="1.00" d=" M 1663.31 56.94 C 1671.97 56.94 1680.64 56.94 1689.31 56.94 C 1689.31 84.62 1689.31 112.31 1689.31 140.00 C 1680.64 140.00 1671.97 140.00 1663.31 140.00 C 1663.31 112.31 1663.31 84.62 1663.31 56.94 Z" />
<path fill="#ffffff" opacity="1.00" d=" M 192.32 138.18 C 205.58 135.90 219.65 137.97 231.43 144.56 C 244.70 151.85 254.83 164.54 259.06 179.06 C 262.03 188.97 262.24 199.64 259.89 209.70 C 237.32 185.90 214.83 162.03 192.32 138.18 Z" />
<path fill="#ffffff" opacity="1.00" d=" M 113.02 139.48 C 119.32 146.20 125.68 152.87 131.98 159.60 C 127.93 165.07 122.74 169.82 116.49 172.62 C 110.97 175.04 105.36 177.22 99.83 179.60 C 93.55 182.44 90.07 190.11 92.56 196.64 C 97.26 206.46 104.94 215.04 107.00 225.99 C 108.93 235.66 107.63 246.09 102.79 254.75 C 99.42 260.68 95.84 266.50 92.52 272.46 C 90.45 276.11 91.53 280.43 92.85 284.13 C 95.19 288.47 100.37 289.77 104.56 291.64 C 111.11 294.57 118.20 296.60 123.96 301.05 C 131.86 306.96 137.28 316.09 138.60 325.88 C 139.34 331.61 139.54 337.41 140.31 343.14 C 141.40 349.94 148.11 355.27 155.02 354.58 C 160.43 354.05 165.79 352.96 171.14 352.01 C 180.72 348.75 191.37 351.31 199.85 356.38 C 208.93 361.62 215.02 370.40 222.12 377.86 C 226.27 383.96 236.00 384.07 240.99 378.98 C 246.08 373.71 250.75 368.05 255.88 362.84 C 263.66 355.53 274.06 350.28 284.93 350.64 C 291.93 352.02 299.01 352.99 306.04 354.24 C 309.19 354.83 312.43 354.59 315.56 353.98 C 322.00 360.76 328.44 367.54 334.81 374.38 C 326.57 379.67 316.21 382.94 306.49 380.32 C 300.65 379.43 294.84 378.39 289.01 377.47 C 284.94 376.79 280.65 377.75 277.39 380.30 C 269.36 387.59 263.50 397.22 254.41 403.34 C 242.03 411.30 225.03 411.32 212.62 403.41 C 208.98 401.14 205.91 398.12 203.12 394.90 C 198.87 390.13 194.46 385.51 190.32 380.65 C 187.43 377.13 182.32 377.08 178.16 377.45 C 171.72 378.48 165.25 379.36 158.96 381.09 C 148.30 382.28 137.22 378.89 129.04 371.96 C 121.12 365.36 116.01 355.62 114.81 345.40 C 114.31 340.58 113.95 335.75 113.49 330.93 C 113.24 326.57 110.39 322.55 106.59 320.51 C 99.85 317.38 92.72 315.10 86.16 311.60 C 71.79 303.61 63.03 286.51 65.67 270.17 C 66.76 261.04 72.37 253.53 76.74 245.74 C 79.42 240.96 83.63 235.94 81.69 230.08 C 77.26 219.73 69.11 211.03 66.57 199.85 C 63.12 185.62 68.04 169.73 79.01 160.01 C 87.22 152.44 98.60 150.33 108.23 145.24 C 110.44 143.91 111.80 141.67 113.02 139.48 Z" />
<path fill="#ffffff" opacity="1.00" d=" M 189.22 173.17 C 192.48 171.49 195.97 175.78 193.80 178.67 C 192.14 181.56 187.92 185.10 184.72 182.35 C 181.81 178.89 185.99 174.52 189.22 173.17 Z" />
<path fill="#ffffff" opacity="1.00" d=" M 147.59 176.12 C 171.57 201.48 195.53 226.84 219.47 252.24 C 207.35 255.84 194.06 255.45 182.25 250.86 C 165.80 244.63 152.48 230.72 147.01 214.00 C 142.91 201.78 143.24 188.23 147.59 176.12 Z" />
<path fill="#ffffff" opacity="1.00" d=" M 201.07 190.42 C 202.45 189.09 203.84 187.77 205.25 186.47 C 206.63 188.05 209.25 190.71 206.61 192.45 C 204.51 194.30 202.55 191.72 201.07 190.42 Z" />
<path fill="#ffffff" opacity="1.00" d=" M 1645.08 191.57 C 1654.90 188.57 1666.34 191.02 1673.74 198.24 C 1680.86 205.08 1684.18 214.92 1685.27 224.53 C 1686.60 237.03 1685.01 250.33 1678.26 261.17 C 1672.56 270.54 1662.27 277.46 1651.09 277.46 C 1643.71 277.65 1636.82 274.01 1631.59 269.03 C 1632.82 281.19 1632.36 293.42 1632.44 305.63 C 1623.77 305.63 1615.10 305.63 1606.44 305.63 C 1606.43 267.88 1606.43 230.12 1606.44 192.37 C 1613.50 192.37 1620.58 192.37 1627.65 192.37 C 1628.29 195.11 1628.93 197.84 1629.61 200.57 C 1634.18 196.70 1639.28 193.27 1645.08 191.57 M 1632.44 218.49 C 1632.44 229.46 1632.43 240.43 1632.44 251.40 C 1637.16 255.37 1644.05 257.65 1649.93 254.95 C 1655.79 252.07 1657.90 245.16 1658.60 239.14 C 1659.20 232.23 1659.31 224.93 1656.56 218.43 C 1654.87 214.21 1650.51 211.41 1645.98 211.55 C 1640.52 211.19 1635.95 214.72 1632.44 218.49 Z" />
<path fill="#ffffff" opacity="1.00" d=" M 1721.16 193.96 C 1735.10 187.30 1754.06 189.56 1764.08 202.01 C 1772.78 213.01 1774.10 228.15 1771.69 241.55 C 1755.38 241.59 1739.08 241.54 1722.78 241.58 C 1724.10 247.28 1727.30 252.94 1732.87 255.40 C 1742.00 259.56 1752.76 257.33 1761.10 252.32 C 1763.97 257.55 1766.86 262.77 1769.74 268.01 C 1753.56 279.26 1730.04 281.35 1713.73 269.27 C 1699.94 259.17 1695.59 240.34 1698.61 224.18 C 1700.88 211.35 1709.23 199.51 1721.16 193.96 M 1726.32 215.45 C 1724.17 218.00 1723.18 221.25 1722.35 224.41 C 1731.82 224.45 1741.30 224.44 1750.78 224.42 C 1750.54 219.99 1749.51 214.98 1745.54 212.36 C 1739.57 208.58 1730.73 209.81 1726.32 215.45 Z" />
<path fill="#ffffff" opacity="1.00" d=" M 1990.44 200.38 C 2003.55 187.94 2026.37 186.52 2039.99 198.87 C 2051.29 209.66 2053.18 226.88 2050.52 241.55 C 2034.21 241.59 2017.91 241.53 2001.62 241.58 C 2002.90 247.20 2006.03 252.78 2011.46 255.29 C 2020.63 259.60 2031.52 257.38 2039.93 252.32 C 2042.80 257.56 2045.69 262.78 2048.57 268.01 C 2033.91 278.11 2013.62 280.90 1997.57 272.44 C 1986.51 266.77 1979.16 255.33 1977.32 243.19 C 1974.63 227.97 1978.64 210.92 1990.44 200.38 M 2005.27 215.32 C 2003.04 217.88 2002.03 221.20 2001.17 224.41 C 2010.66 224.45 2020.14 224.45 2029.63 224.41 C 2029.34 220.04 2028.39 215.07 2024.49 212.44 C 2018.57 208.60 2009.73 209.75 2005.27 215.32 Z" />
<path fill="#ffffff" opacity="1.00" d=" M 2147.61 198.66 C 2154.90 191.90 2165.37 189.86 2175.03 190.41 C 2184.90 190.90 2194.27 195.07 2202.00 201.10 L 2202.00 201.84 C 2197.24 205.92 2194.27 211.67 2190.30 216.47 C 2183.89 212.16 2176.09 207.76 2168.14 210.17 C 2164.31 211.05 2162.90 216.52 2165.97 219.05 C 2169.90 222.37 2175.15 223.41 2179.85 225.27 C 2187.47 228.09 2195.53 232.06 2199.49 239.58 C 2205.26 250.90 2200.67 266.19 2189.43 272.25 C 2172.31 281.65 2150.25 277.65 2135.31 265.85 C 2139.14 260.40 2143.02 254.98 2146.89 249.55 C 2154.07 254.78 2162.76 259.74 2171.99 257.91 C 2175.48 257.54 2178.57 254.11 2177.48 250.52 C 2176.21 247.22 2172.58 245.85 2169.63 244.46 C 2161.00 240.97 2151.45 238.14 2145.19 230.80 C 2137.21 221.75 2138.81 206.61 2147.61 198.66 Z" />
<path fill="#ffffff" opacity="1.00" d=" M 1812.47 202.95 C 1818.21 197.44 1824.96 192.52 1832.92 190.98 C 1841.25 189.31 1850.97 190.58 1857.08 196.98 C 1863.34 203.64 1864.94 213.21 1865.18 222.01 C 1865.20 239.82 1865.18 257.63 1865.19 275.44 C 1856.52 275.44 1847.85 275.44 1839.19 275.44 C 1839.18 258.97 1839.20 242.50 1839.18 226.03 C 1839.01 222.40 1838.87 218.46 1836.69 215.40 C 1834.49 212.43 1830.35 212.27 1827.03 212.75 C 1822.26 213.43 1818.61 216.84 1815.29 220.03 C 1815.34 238.50 1815.30 256.97 1815.31 275.44 C 1806.64 275.44 1797.97 275.44 1789.31 275.44 C 1789.31 247.75 1789.31 220.06 1789.31 192.37 C 1796.38 192.37 1803.45 192.37 1810.53 192.37 C 1811.17 195.90 1811.80 199.43 1812.47 202.95 Z" />
<path fill="#ffffff" opacity="1.00" d=" M 1908.43 202.95 C 1914.19 197.43 1920.96 192.48 1928.97 190.96 C 1937.47 189.26 1947.47 190.69 1953.49 197.47 C 1959.62 204.41 1961.00 214.11 1961.17 223.04 C 1961.21 240.51 1961.17 257.97 1961.19 275.44 C 1952.50 275.44 1943.81 275.44 1935.13 275.44 C 1935.12 258.96 1935.13 242.48 1935.12 226.01 C 1934.98 222.41 1934.81 218.49 1932.68 215.44 C 1930.97 213.03 1927.79 212.44 1925.05 212.56 C 1919.56 212.62 1914.77 216.13 1911.39 220.15 C 1911.21 238.57 1911.36 257.01 1911.31 275.44 C 1902.62 275.44 1893.93 275.44 1885.25 275.44 C 1885.25 247.75 1885.25 220.06 1885.25 192.37 C 1892.32 192.37 1899.40 192.37 1906.48 192.37 C 1907.12 195.90 1907.76 199.42 1908.43 202.95 Z" />
<path fill="#ffffff" opacity="1.00" d=" M 2073.48 198.43 C 2080.86 191.78 2091.32 189.82 2100.98 190.43 C 2110.67 190.97 2119.84 195.10 2127.47 200.97 C 2123.61 206.14 2119.75 211.32 2115.90 216.50 C 2109.45 212.06 2101.40 207.62 2093.39 210.30 C 2089.95 211.34 2088.72 216.21 2091.28 218.73 C 2094.64 221.94 2099.37 222.97 2103.59 224.59 C 2110.67 227.09 2118.01 230.22 2122.89 236.18 C 2128.35 242.92 2128.79 252.73 2125.55 260.56 C 2122.47 267.97 2115.48 273.12 2107.94 275.37 C 2091.93 280.37 2073.95 276.12 2060.95 265.82 C 2064.78 260.38 2068.67 254.98 2072.51 249.54 C 2079.28 254.48 2087.27 259.13 2095.99 258.17 C 2099.04 257.97 2102.71 256.43 2103.20 253.00 C 2103.92 250.16 2101.66 247.79 2099.39 246.53 C 2093.42 243.11 2086.59 241.59 2080.58 238.29 C 2074.91 235.31 2069.57 230.94 2067.18 224.83 C 2063.72 215.85 2066.23 204.83 2073.48 198.43 Z" />
<path fill="#ffffff" opacity="1.00" d=" M 284.81 236.14 C 291.33 230.41 300.55 227.84 309.03 230.00 C 319.72 232.45 328.26 242.09 329.33 253.02 C 330.33 261.08 327.19 269.27 321.57 275.03 C 309.29 262.09 297.07 249.10 284.81 236.14 Z" />
<path fill="#ffffff" opacity="1.00" d=" M 723.20 254.14 C 730.99 250.87 740.23 250.85 748.08 253.92 C 755.58 256.97 759.06 265.37 759.09 273.03 C 759.18 290.52 759.10 308.01 759.13 325.50 C 780.40 325.50 801.67 325.50 822.94 325.50 C 822.93 309.67 822.94 293.85 822.93 278.02 C 822.76 271.58 823.09 264.55 827.16 259.21 C 830.80 254.28 837.07 252.19 842.98 251.83 C 849.66 251.42 857.06 252.08 862.38 256.58 C 867.37 260.81 869.01 267.67 869.00 273.97 C 869.00 321.64 869.00 369.32 869.00 417.00 C 869.10 424.12 869.39 431.97 864.94 438.00 C 860.47 444.22 852.24 445.87 845.03 445.63 C 838.20 445.56 830.62 443.45 826.66 437.45 C 822.77 431.77 822.81 424.60 822.93 418.00 C 822.94 400.67 822.93 383.33 822.94 366.00 C 801.67 366.00 780.39 366.00 759.12 366.00 C 759.13 383.34 759.12 400.68 759.13 418.03 C 759.25 424.61 759.21 431.75 755.35 437.42 C 751.78 442.84 745.13 445.20 738.89 445.54 C 731.91 445.95 724.11 445.14 718.74 440.20 C 713.76 435.63 712.44 428.49 712.50 422.02 C 712.51 372.71 712.47 323.39 712.52 274.08 C 712.38 266.25 715.57 257.47 723.20 254.14 Z" />
<path fill="#ffffff" opacity="1.00" d=" M 921.48 259.45 C 924.39 254.42 930.22 251.56 935.96 251.75 C 965.29 251.75 994.63 251.74 1023.96 251.75 C 1029.22 251.78 1034.96 253.36 1038.31 257.70 C 1041.86 262.28 1042.34 268.40 1041.96 273.98 C 1041.63 279.04 1039.66 284.37 1035.30 287.30 C 1031.15 290.15 1025.92 290.55 1021.04 290.45 C 1002.61 290.42 984.18 290.45 965.75 290.44 C 965.75 302.38 965.75 314.31 965.75 326.25 C 981.18 326.26 996.62 326.23 1012.06 326.27 C 1017.24 326.32 1022.84 327.69 1026.36 331.75 C 1029.97 335.91 1030.75 341.69 1030.62 347.01 C 1030.49 352.15 1029.15 357.70 1025.14 361.22 C 1021.32 364.63 1015.99 365.51 1011.04 365.51 C 995.94 365.50 980.85 365.50 965.75 365.50 C 965.75 379.13 965.75 392.75 965.75 406.37 C 984.84 406.37 1003.94 406.38 1023.03 406.36 C 1028.44 406.27 1034.32 406.64 1038.80 410.04 C 1043.14 413.26 1044.86 418.83 1045.08 424.03 C 1045.34 429.55 1044.66 435.61 1040.94 439.98 C 1037.30 444.23 1031.44 445.60 1026.07 445.62 C 996.00 445.63 965.92 445.63 935.85 445.62 C 931.51 445.63 927.06 444.17 923.96 441.05 C 920.45 437.72 918.99 432.77 919.12 428.04 C 919.12 376.02 919.14 324.00 919.11 271.98 C 919.01 267.71 919.15 263.18 921.48 259.45 Z" />
<path fill="#ffffff" opacity="1.00" d=" M 1086.96 259.98 C 1091.06 253.79 1098.93 251.69 1105.97 251.73 C 1112.90 251.56 1120.68 253.13 1125.20 258.85 C 1129.50 264.19 1129.94 271.40 1129.82 277.98 C 1129.80 320.78 1129.82 363.57 1129.81 406.37 C 1146.53 406.37 1163.24 406.37 1179.96 406.37 C 1185.88 406.35 1192.30 405.99 1197.57 409.21 C 1202.34 412.03 1204.61 417.63 1204.96 422.96 C 1205.38 428.79 1204.86 435.26 1200.95 439.92 C 1197.33 444.21 1191.45 445.59 1186.07 445.62 C 1157.68 445.64 1129.29 445.61 1100.90 445.64 C 1096.68 445.74 1092.28 444.73 1089.00 441.96 C 1085.16 438.88 1083.16 433.95 1083.20 429.09 C 1083.18 380.42 1083.19 331.74 1083.19 283.07 C 1083.25 275.30 1082.32 266.75 1086.96 259.98 Z" />
<path fill="#ffffff" opacity="1.00" d=" M 1238.56 268.97 C 1237.80 259.82 1245.74 251.30 1254.98 251.75 C 1271.64 251.74 1288.31 251.76 1304.97 251.75 C 1323.80 251.60 1343.49 254.07 1359.81 264.14 C 1372.98 271.81 1381.21 286.12 1383.54 300.94 C 1386.38 318.74 1384.18 338.33 1373.17 353.14 C 1364.98 364.66 1352.77 373.07 1339.20 376.91 C 1321.75 382.56 1303.23 381.07 1285.19 381.25 C 1285.18 395.18 1285.21 409.11 1285.18 423.03 C 1285.13 429.38 1283.57 436.33 1278.54 440.64 C 1273.48 445.00 1266.43 445.85 1260.00 445.59 C 1254.10 445.36 1247.81 443.72 1243.76 439.16 C 1239.81 434.80 1238.60 428.69 1238.56 422.98 C 1238.56 371.65 1238.57 320.31 1238.56 268.97 M 1285.19 288.69 C 1285.19 307.31 1285.19 325.94 1285.19 344.56 C 1293.10 344.51 1301.02 344.66 1308.93 344.49 C 1317.60 344.09 1327.00 341.77 1332.84 334.90 C 1339.08 327.37 1339.94 316.77 1338.35 307.47 C 1337.21 300.63 1332.42 294.64 1325.91 292.20 C 1312.99 286.96 1298.75 289.17 1285.19 288.69 Z" />
<path fill="#ffffff" opacity="1.00" d=" M 205.11 283.04 C 214.64 280.71 225.21 286.54 228.33 295.82 C 231.05 303.14 228.97 311.94 223.21 317.22 C 217.49 322.76 208.35 324.25 201.14 320.87 C 193.60 317.53 188.69 309.21 189.50 300.99 C 190.05 292.43 196.72 284.77 205.11 283.04 Z" />
<path fill="#ffffff" opacity="1.00" d=" M 2037.81 327.79 C 2038.78 320.44 2039.76 313.09 2040.73 305.75 C 2047.90 305.75 2055.07 305.75 2062.25 305.75 C 2062.25 313.10 2062.24 320.46 2062.25 327.81 C 2068.74 327.81 2075.24 327.81 2081.75 327.81 C 2081.74 334.58 2081.74 341.35 2081.75 348.13 C 2075.24 348.12 2068.74 348.12 2062.25 348.13 C 2062.24 358.42 2062.26 368.72 2062.24 379.02 C 2062.13 383.37 2062.94 388.50 2066.91 391.04 C 2071.01 393.62 2076.03 392.32 2080.34 390.99 C 2081.67 397.28 2083.06 403.55 2084.41 409.83 C 2075.34 412.61 2065.54 414.00 2056.20 411.82 C 2049.97 410.38 2044.29 406.51 2041.04 400.97 C 2037.29 394.70 2036.23 387.25 2036.20 380.06 C 2036.17 369.42 2036.19 358.77 2036.19 348.13 C 2032.45 348.12 2028.72 348.12 2025.00 348.13 C 2024.99 341.69 2024.99 335.25 2025.00 328.81 C 2029.26 328.46 2033.53 328.13 2037.81 327.79 Z" />
<path fill="#ffffff" opacity="1.00" d=" M 315.13 311.38 C 316.50 310.04 317.89 308.72 319.30 307.42 C 320.44 309.01 323.12 311.07 321.09 313.03 C 319.10 315.41 316.62 312.94 315.13 311.38 Z" />
<path fill="#ffffff" opacity="1.00" d=" M 327.40 324.40 C 328.77 323.05 330.17 321.73 331.60 320.44 C 332.76 322.00 335.52 324.36 333.19 326.20 C 331.16 328.38 328.89 325.84 327.40 324.40 Z" />
<path fill="#ffffff" opacity="1.00" d=" M 1718.17 327.25 C 1727.90 323.97 1739.41 326.08 1747.04 333.06 C 1754.07 339.43 1757.64 348.77 1758.95 357.99 C 1760.42 368.88 1759.67 380.31 1755.36 390.52 C 1752.09 398.25 1746.50 405.17 1739.06 409.19 C 1732.04 413.01 1723.31 414.17 1715.79 411.17 C 1711.89 409.71 1708.54 407.18 1705.51 404.40 C 1706.75 416.56 1706.30 428.79 1706.38 441.00 C 1697.70 441.00 1689.03 441.00 1680.37 441.00 C 1680.38 403.27 1680.37 365.54 1680.37 327.81 C 1687.44 327.81 1694.50 327.82 1701.58 327.80 C 1702.22 330.53 1702.88 333.26 1703.55 336.00 C 1707.89 332.31 1712.70 329.02 1718.17 327.25 M 1710.35 350.25 C 1708.63 351.79 1705.87 353.24 1706.36 355.97 C 1706.38 366.25 1706.37 376.53 1706.38 386.81 C 1710.85 390.58 1717.16 392.77 1722.90 390.78 C 1727.72 389.04 1730.46 384.15 1731.64 379.43 C 1733.18 373.14 1733.17 366.54 1732.31 360.16 C 1731.61 355.84 1730.08 351.18 1726.23 348.70 C 1721.31 345.74 1714.70 346.67 1710.35 350.25 Z" />
<path fill="#ffffff" opacity="1.00" d=" M 1814.34 327.18 C 1824.24 323.92 1835.94 326.24 1843.50 333.53 C 1850.47 340.14 1853.86 349.65 1855.04 358.99 C 1856.27 369.36 1855.54 380.16 1851.57 389.90 C 1848.26 398.07 1842.38 405.42 1834.45 409.49 C 1826.47 413.70 1816.34 414.21 1808.42 409.61 C 1805.59 408.29 1803.60 405.73 1800.90 404.30 C 1803.42 416.24 1801.99 428.80 1802.38 441.00 C 1793.68 441.00 1784.99 441.00 1776.31 441.00 C 1776.31 403.27 1776.31 365.54 1776.31 327.81 C 1783.39 327.81 1790.47 327.81 1797.55 327.81 C 1798.18 330.54 1798.83 333.26 1799.49 335.99 C 1803.90 332.26 1808.79 328.94 1814.34 327.18 M 1802.56 353.78 C 1802.11 364.78 1802.51 375.83 1802.37 386.85 C 1807.16 390.89 1814.25 393.12 1820.16 390.21 C 1825.91 387.09 1827.90 380.16 1828.55 374.08 C 1829.05 367.41 1829.14 360.40 1826.57 354.11 C 1825.05 350.22 1821.34 347.29 1817.13 347.03 C 1811.42 346.23 1806.09 349.57 1802.56 353.78 Z" />
<path fill="#ffffff" opacity="1.00" d=" M 1899.50 326.69 C 1910.54 324.24 1922.61 326.55 1931.80 333.21 C 1939.59 338.73 1945.06 347.21 1947.37 356.44 C 1951.49 372.81 1947.70 392.14 1934.40 403.37 C 1919.94 416.10 1896.27 415.96 1881.91 403.14 C 1867.77 390.96 1864.49 369.69 1870.35 352.58 C 1874.71 339.65 1886.12 329.44 1899.50 326.69 M 1905.14 347.16 C 1898.37 348.66 1895.43 355.97 1894.69 362.17 C 1893.86 370.16 1893.76 378.88 1897.85 386.06 C 1901.58 392.79 1912.07 393.83 1917.15 388.13 C 1921.02 383.75 1921.92 377.63 1922.26 372.00 C 1922.44 365.16 1922.15 357.76 1918.26 351.87 C 1915.50 347.61 1909.93 345.94 1905.14 347.16 Z" />
<path fill="#ffffff" opacity="1.00" d=" M 2002.14 328.36 C 2008.32 324.98 2015.90 325.08 2022.44 327.38 C 2021.05 334.87 2019.60 342.35 2018.20 349.85 C 2012.10 348.25 2004.98 347.54 1999.70 351.67 C 1994.81 355.54 1990.37 361.46 1991.17 368.02 C 1991.20 382.29 1991.18 396.55 1991.19 410.81 C 1982.52 410.81 1973.85 410.81 1965.19 410.81 C 1965.19 383.14 1965.19 355.48 1965.19 327.81 C 1972.25 327.81 1979.33 327.81 1986.40 327.81 C 1987.03 332.73 1987.70 337.64 1988.32 342.56 C 1991.76 336.87 1996.09 331.42 2002.14 328.36 Z" />
<path fill="#ffffff" opacity="1.00" d=" M 1584.13 327.81 C 1592.79 327.81 1601.45 327.81 1610.13 327.81 C 1610.13 343.89 1610.10 359.97 1610.14 376.04 C 1610.28 380.10 1610.27 384.62 1612.85 388.00 C 1614.98 390.67 1618.76 390.86 1621.92 390.52 C 1626.90 390.04 1630.82 386.32 1633.42 382.29 C 1633.75 364.14 1633.46 345.97 1633.56 327.81 C 1642.22 327.81 1650.89 327.81 1659.56 327.81 C 1659.57 355.48 1659.56 383.14 1659.57 410.81 C 1652.50 410.81 1645.43 410.81 1638.37 410.81 C 1637.71 406.90 1637.10 402.99 1636.36 399.10 C 1631.28 405.05 1624.99 410.50 1617.13 412.13 C 1608.50 413.96 1598.29 412.73 1592.04 405.94 C 1585.92 399.25 1584.39 389.77 1584.15 381.03 C 1584.09 363.29 1584.14 345.55 1584.13 327.81 Z" />
<path fill="#ffffff" opacity="1.00" d=" M 340.52 335.73 C 343.03 333.37 347.77 335.46 347.00 339.02 C 345.99 342.67 341.33 346.91 337.56 344.42 C 334.53 341.55 337.81 337.41 340.52 335.73 Z" />
<path fill="#ffffff" opacity="1.00" d=" M 354.00 352.00 C 355.29 350.78 356.57 349.57 357.87 348.37 C 358.99 349.94 361.81 351.88 359.91 353.89 C 357.85 356.18 355.51 353.50 354.00 352.00 Z" />
</g>
<g id="#ff0c00ff">
<path fill="#ff0c00" opacity="1.00" d=" M 1516.19 31.44 C 1533.35 26.24 1553.09 31.08 1565.89 43.66 C 1561.54 49.13 1557.20 54.60 1552.85 60.07 C 1547.58 56.21 1541.67 52.89 1535.10 52.08 C 1530.40 51.50 1525.17 51.43 1521.07 54.11 C 1517.11 56.57 1516.44 62.88 1520.07 65.92 C 1524.51 69.73 1530.35 71.21 1535.63 73.49 C 1543.80 76.99 1552.80 79.29 1559.57 85.36 C 1570.52 94.82 1571.83 112.42 1564.43 124.42 C 1559.44 132.63 1550.75 138.05 1541.56 140.36 C 1522.54 145.12 1501.44 139.59 1486.95 126.46 C 1491.90 120.44 1496.89 114.46 1501.87 108.45 C 1509.02 114.32 1517.67 118.96 1527.07 119.49 C 1531.12 119.59 1535.51 119.26 1538.94 116.88 C 1542.97 114.15 1543.51 107.50 1539.72 104.34 C 1536.09 101.28 1531.45 99.84 1527.18 97.94 C 1521.34 95.42 1515.41 93.12 1509.64 90.46 C 1502.50 86.96 1496.22 81.19 1493.24 73.71 C 1489.74 64.98 1490.49 54.58 1495.53 46.60 C 1500.14 39.12 1507.85 33.93 1516.19 31.44 Z" />
<path fill="#ff0c00" opacity="1.00" d=" M 1527.47 165.84 C 1544.06 162.66 1563.00 166.43 1574.66 179.36 C 1587.45 193.43 1589.97 213.88 1587.67 232.08 C 1585.74 248.08 1577.36 264.19 1562.64 271.82 C 1543.51 281.68 1517.26 278.91 1502.65 262.35 C 1491.05 249.30 1487.93 230.87 1489.14 213.94 C 1490.10 199.46 1495.52 184.49 1507.09 175.15 C 1512.93 170.35 1520.07 167.26 1527.47 165.84 M 1534.41 187.58 C 1525.30 189.13 1519.34 197.61 1517.35 206.11 C 1514.87 216.46 1514.99 227.56 1518.11 237.77 C 1520.18 244.29 1524.34 250.66 1530.87 253.39 C 1538.43 256.65 1547.96 254.71 1553.39 248.43 C 1559.93 240.98 1561.70 230.63 1561.82 221.02 C 1561.82 211.60 1560.32 201.40 1554.01 193.99 C 1549.31 188.40 1541.46 186.14 1534.41 187.58 Z" />
<path fill="#ff0c00" opacity="1.00" d=" M 1516.93 302.05 C 1533.92 297.22 1553.26 302.09 1565.87 314.48 C 1561.56 319.98 1557.18 325.43 1552.85 330.91 C 1547.29 326.79 1540.93 323.35 1533.92 322.77 C 1529.35 322.39 1524.22 322.45 1520.46 325.40 C 1516.94 328.13 1516.69 334.05 1520.20 336.89 C 1524.72 340.63 1530.55 342.13 1535.85 344.41 C 1545.04 348.28 1555.44 350.94 1562.20 358.83 C 1572.99 371.41 1570.70 392.47 1557.92 402.88 C 1544.29 414.31 1524.44 415.06 1508.14 409.65 C 1500.31 407.06 1493.10 402.77 1486.95 397.30 C 1491.90 391.27 1496.90 385.29 1501.87 379.28 C 1509.02 385.16 1517.67 389.78 1527.07 390.33 C 1531.05 390.42 1535.35 390.10 1538.77 387.84 C 1542.92 385.19 1543.58 378.44 1539.76 375.23 C 1536.16 372.13 1531.52 370.71 1527.27 368.81 C 1521.20 366.16 1514.99 363.84 1509.02 360.98 C 1501.99 357.40 1495.88 351.55 1493.05 344.08 C 1489.85 335.67 1490.53 325.80 1495.16 318.05 C 1499.84 310.02 1508.09 304.52 1516.93 302.05 Z" />
<path fill="#ff0c00" opacity="1.00" d=" M 597.41 319.70 C 602.85 318.18 608.75 318.24 614.14 319.95 C 624.39 323.35 632.01 333.24 632.95 343.97 C 634.81 356.79 627.27 370.59 614.87 374.91 C 609.29 376.80 603.14 376.94 597.47 375.37 C 588.10 372.63 580.81 364.32 578.65 354.89 C 576.99 347.21 577.86 338.78 581.97 331.99 C 585.45 326.26 590.91 321.58 597.41 319.70 Z" />
</g>
</svg>
