<?xml version="1.0" encoding="UTF-8" ?>
<!DOCTYPE svg PUBLIC "-//W3C//DTD SVG 1.1//EN" "http://www.w3.org/Graphics/SVG/1.1/DTD/svg11.dtd">
<svg width="2026pt" height="467pt" viewBox="0 0 2026 467" version="1.1" xmlns="http://www.w3.org/2000/svg">
<g id="#ffffffff">
<path fill="#ffffff" opacity="1.00" d=" M 226.87 0.00 L 239.52 0.00 C 276.40 1.17 313.06 10.77 345.39 28.63 C 394.87 55.59 433.92 101.06 452.91 154.12 C 470.13 201.64 471.25 254.78 456.14 303.01 C 444.92 339.08 424.69 372.28 397.86 398.86 C 362.54 434.18 315.57 457.64 266.07 464.43 C 208.88 472.90 148.77 458.60 101.25 425.73 C 71.99 405.63 47.41 378.77 29.99 347.83 C 11.37 315.07 1.32 277.71 0.00 240.10 L 0.00 227.33 C 0.95 200.05 6.21 172.86 16.36 147.48 C 35.87 97.87 73.04 55.53 119.60 29.60 C 152.26 11.19 189.44 1.26 226.87 0.00 M 113.59 73.28 C 204.52 169.54 295.43 265.84 386.37 362.09 C 415.97 327.14 432.89 281.78 433.30 235.98 C 433.82 200.49 424.68 164.90 406.97 134.14 C 387.50 100.04 357.76 71.91 322.60 54.42 C 288.93 37.50 250.39 30.60 212.93 34.48 C 177.09 38.04 142.37 51.67 113.59 73.28 M 102.89 85.00 C 101.99 88.46 105.32 91.46 104.72 94.81 C 101.57 96.59 100.06 91.64 99.62 89.39 C 98.22 89.51 96.83 89.62 95.43 89.74 C 95.92 94.06 98.56 98.64 103.10 99.59 C 106.48 100.37 110.20 97.43 109.91 93.90 C 109.51 91.42 108.23 89.22 107.56 86.82 C 107.38 85.18 109.26 84.85 110.20 85.82 C 111.59 86.85 111.89 88.65 112.51 90.16 C 113.75 90.05 114.99 89.94 116.24 89.83 C 115.97 86.05 113.74 82.18 109.90 81.13 C 107.00 80.17 103.55 81.98 102.89 85.00 M 109.29 106.97 C 110.40 110.74 114.02 113.31 117.91 113.43 C 118.04 112.50 118.28 110.63 118.41 109.69 C 116.07 109.20 113.26 107.89 113.42 105.05 C 113.97 101.31 117.97 97.64 121.89 98.71 C 123.87 99.35 124.32 101.50 124.83 103.24 C 125.79 103.15 127.72 102.98 128.69 102.89 C 128.38 99.69 126.89 96.46 123.85 95.02 C 116.66 91.09 106.95 99.22 109.29 106.97 M 34.03 217.95 C 31.12 255.06 38.78 292.97 56.12 325.93 C 73.71 359.66 101.16 388.15 134.19 407.00 C 166.68 425.69 204.53 434.80 241.95 433.13 C 285.97 431.43 329.14 414.46 362.66 385.90 C 271.28 289.11 179.87 192.37 88.50 95.59 C 57.02 128.52 37.33 172.48 34.03 217.95 M 118.01 117.01 C 119.09 118.16 120.17 119.31 121.26 120.47 C 125.99 116.01 130.72 111.56 135.44 107.10 C 134.35 105.95 133.27 104.80 132.18 103.65 C 127.45 108.09 122.73 112.55 118.01 117.01 M 124.25 123.64 C 127.15 126.71 130.05 129.79 132.95 132.87 C 133.91 131.95 134.88 131.03 135.85 130.12 C 134.03 128.19 132.21 126.27 130.41 124.33 C 131.39 123.42 132.38 122.52 133.37 121.61 C 134.84 123.18 136.32 124.74 137.80 126.31 C 138.77 125.40 139.74 124.49 140.72 123.59 C 139.23 122.01 137.75 120.44 136.26 118.86 C 137.11 118.06 137.95 117.25 138.80 116.45 C 140.55 118.30 142.29 120.15 144.04 122.01 C 145.00 121.10 145.96 120.19 146.93 119.28 C 144.09 116.28 141.27 113.27 138.43 110.27 C 133.71 114.73 128.99 119.19 124.25 123.64 M 135.50 135.58 C 136.54 136.67 137.58 137.76 138.62 138.85 C 141.99 135.78 145.28 132.61 148.14 129.05 C 146.16 133.77 144.46 138.59 142.86 143.45 C 143.96 144.57 145.05 145.70 146.15 146.83 C 150.86 142.37 155.58 137.93 160.31 133.47 C 159.28 132.38 158.24 131.28 157.22 130.19 C 153.86 133.25 150.57 136.40 147.71 139.95 C 149.75 135.29 151.36 130.46 152.96 125.63 C 151.87 124.50 150.77 123.36 149.68 122.22 C 144.96 126.67 140.24 131.13 135.50 135.58 M 152.32 152.52 C 153.40 156.36 157.06 159.01 161.00 159.14 C 161.16 157.89 161.32 156.64 161.49 155.39 C 159.24 154.93 156.46 153.68 156.50 150.96 C 156.83 147.34 160.37 143.98 164.07 144.18 C 166.53 144.39 167.45 146.87 167.90 148.94 C 169.18 148.82 170.47 148.69 171.76 148.56 C 171.43 145.44 170.05 142.25 167.09 140.79 C 159.95 136.67 150.10 144.73 152.32 152.52 M 161.07 162.69 C 163.97 165.77 166.86 168.84 169.77 171.91 C 170.74 171.00 171.71 170.08 172.67 169.17 C 170.86 167.25 169.05 165.32 167.24 163.39 C 168.22 162.48 169.20 161.57 170.17 160.65 C 171.65 162.22 173.13 163.79 174.61 165.35 C 175.59 164.45 176.55 163.54 177.53 162.63 C 176.05 161.05 174.56 159.48 173.08 157.90 C 173.93 157.10 174.78 156.30 175.64 155.50 C 177.37 157.36 179.12 159.21 180.87 161.05 C 181.83 160.14 182.78 159.23 183.74 158.32 C 180.91 155.32 178.09 152.31 175.25 149.33 C 170.52 153.79 165.80 158.24 161.07 162.69 M 186.17 169.29 C 182.86 171.05 179.96 174.13 179.29 177.92 C 178.27 183.65 184.35 189.32 190.01 187.63 C 193.98 186.43 197.45 183.19 198.64 179.18 C 200.57 172.47 192.33 165.64 186.17 169.29 M 190.47 193.86 C 191.55 195.01 192.63 196.16 193.72 197.32 C 195.27 195.86 196.81 194.41 198.36 192.95 C 200.04 194.57 201.64 196.52 203.98 197.17 C 208.41 198.63 213.66 193.66 211.80 189.18 C 210.28 185.67 207.07 183.33 204.64 180.49 C 199.92 184.95 195.19 189.40 190.47 193.86 M 202.74 206.88 C 205.64 209.95 208.53 213.02 211.43 216.09 C 212.39 215.18 213.36 214.26 214.33 213.36 C 212.53 211.42 210.71 209.50 208.91 207.57 C 209.88 206.66 210.86 205.75 211.84 204.84 C 213.32 206.41 214.81 207.99 216.30 209.56 C 217.25 208.63 218.22 207.71 219.18 206.78 C 217.69 205.21 216.21 203.65 214.73 202.08 C 215.58 201.28 216.44 200.49 217.29 199.69 C 219.04 201.54 220.78 203.38 222.52 205.23 C 223.48 204.33 224.44 203.42 225.41 202.52 C 222.59 199.50 219.75 196.51 216.92 193.51 C 212.18 197.95 207.47 202.42 202.74 206.88 M 214.00 218.81 C 215.02 219.90 216.05 220.99 217.08 222.09 C 220.49 219.01 223.80 215.81 226.68 212.22 C 224.63 216.91 223.03 221.77 221.32 226.59 C 222.41 227.75 223.51 228.91 224.60 230.07 C 229.34 225.63 234.06 221.17 238.79 216.71 C 237.76 215.61 236.72 214.51 235.70 213.42 C 232.34 216.50 229.02 219.64 226.18 223.22 C 228.22 218.57 229.77 213.73 231.47 208.95 C 230.37 207.78 229.27 206.61 228.18 205.44 C 223.44 209.89 218.73 214.36 214.00 218.81 M 227.64 233.27 C 228.67 234.37 229.70 235.47 230.73 236.58 C 234.08 233.53 237.33 230.36 240.22 226.87 C 238.26 231.52 236.66 236.31 234.96 241.06 C 236.07 242.22 237.17 243.38 238.28 244.55 C 242.98 240.08 247.71 235.64 252.43 231.19 C 251.42 230.09 250.40 229.00 249.40 227.91 C 245.99 230.92 242.72 234.08 239.88 237.64 C 241.87 232.99 243.45 228.18 245.12 223.41 C 244.02 222.24 242.93 221.09 241.84 219.92 C 237.08 224.35 232.39 228.84 227.64 233.27 M 241.30 247.77 C 244.19 250.84 247.09 253.90 249.98 256.98 C 250.95 256.06 251.92 255.15 252.89 254.23 C 251.08 252.32 249.27 250.40 247.46 248.49 C 248.43 247.56 249.41 246.64 250.39 245.72 C 251.87 247.29 253.35 248.86 254.84 250.43 C 255.80 249.52 256.77 248.60 257.74 247.69 C 256.26 246.12 254.77 244.54 253.29 242.98 C 254.14 242.17 254.99 241.37 255.84 240.57 C 257.58 242.41 259.32 244.25 261.05 246.10 C 262.02 245.20 262.99 244.31 263.97 243.42 C 261.14 240.41 258.31 237.40 255.49 234.39 C 250.74 238.84 246.02 243.30 241.30 247.77 M 261.09 256.01 C 261.55 258.33 264.36 261.66 261.20 263.13 C 259.05 261.66 257.93 259.37 257.53 256.86 C 256.13 256.95 254.73 257.05 253.33 257.16 C 253.77 261.46 256.40 266.00 260.88 267.00 C 264.73 268.04 268.96 263.97 267.52 260.09 C 267.13 257.71 264.83 255.35 265.84 252.99 C 268.54 251.78 269.79 255.66 270.40 257.61 C 271.66 257.48 272.92 257.36 274.18 257.23 C 273.84 252.91 270.68 248.33 265.99 248.32 C 262.17 248.19 259.42 252.62 261.09 256.01 M 272.62 263.37 C 270.75 266.99 274.13 270.42 274.20 274.00 C 271.35 276.63 269.22 271.33 268.95 268.97 C 267.55 269.06 266.16 269.15 264.77 269.24 C 265.16 273.76 268.17 278.66 273.02 279.20 C 277.20 279.77 280.74 274.89 278.59 271.13 C 278.27 269.09 275.33 265.95 278.13 264.69 C 280.46 265.26 281.12 267.73 281.81 269.70 C 282.75 269.61 284.64 269.43 285.59 269.34 C 285.16 266.40 284.05 263.37 281.43 261.71 C 278.72 259.58 274.19 260.13 272.62 263.37 M 288.39 279.35 C 286.26 282.56 288.85 286.03 289.61 289.23 C 290.46 290.58 288.20 292.19 287.25 290.87 C 285.32 289.72 285.05 287.32 284.43 285.38 C 283.38 285.47 281.28 285.64 280.23 285.72 C 280.72 290.10 283.47 294.82 288.13 295.59 C 292.14 296.42 296.13 291.96 294.28 288.12 C 294.07 285.97 291.09 283.09 293.24 281.32 C 295.79 281.02 296.67 284.27 297.33 286.15 C 298.58 286.02 299.84 285.88 301.10 285.75 C 300.67 282.80 299.50 279.75 296.87 278.12 C 294.30 276.20 290.14 276.47 288.39 279.35 M 294.57 297.56 C 290.84 303.27 298.48 311.53 304.46 308.19 C 308.82 305.66 312.00 301.60 315.78 298.34 C 314.73 297.24 313.69 296.13 312.65 295.03 C 309.30 297.94 306.39 301.38 302.77 303.97 C 300.31 305.98 296.60 302.25 298.61 299.83 C 301.43 296.30 305.08 293.55 308.23 290.33 C 307.15 289.19 306.07 288.05 304.99 286.91 C 301.55 290.48 297.32 293.38 294.57 297.56 M 304.52 314.82 C 305.60 315.97 306.69 317.12 307.78 318.27 C 309.33 316.81 310.87 315.36 312.41 313.90 C 314.09 315.50 315.67 317.45 318.00 318.11 C 322.49 319.65 327.82 314.49 325.80 309.98 C 324.23 306.57 321.11 304.24 318.70 301.45 C 313.97 305.90 309.24 310.35 304.52 314.82 M 316.79 327.84 C 317.87 328.98 318.96 330.13 320.05 331.28 C 321.59 329.83 323.13 328.37 324.68 326.92 C 326.28 328.43 327.74 330.26 329.90 331.00 C 334.41 332.92 340.10 327.73 338.11 323.09 C 336.57 319.62 333.40 317.28 330.97 314.46 C 326.24 318.92 321.51 323.38 316.79 327.84 M 340.44 330.53 C 336.61 331.81 333.31 334.98 332.14 338.88 C 330.36 344.63 336.24 350.94 342.10 349.63 C 346.36 348.63 350.08 345.17 351.32 340.96 C 352.91 334.97 346.41 328.56 340.44 330.53 M 343.11 355.73 C 344.19 356.88 345.27 358.04 346.36 359.20 C 348.05 357.59 349.75 355.98 351.49 354.42 C 354.11 357.01 350.69 360.46 350.30 363.38 C 351.51 364.65 352.72 365.93 353.94 367.22 C 354.79 364.52 355.63 361.82 356.44 359.12 C 360.37 359.98 364.96 357.24 365.01 352.98 C 364.37 348.38 360.01 345.73 357.28 342.37 C 352.56 346.83 347.83 351.28 343.11 355.73 M 366.03 357.41 C 367.22 358.69 368.42 359.96 369.62 361.24 C 365.85 364.78 362.09 368.34 358.32 371.89 C 359.41 373.03 360.50 374.18 361.60 375.33 C 365.36 371.79 369.12 368.24 372.88 364.69 C 374.08 365.96 375.29 367.24 376.49 368.52 C 377.45 367.61 378.41 366.70 379.38 365.80 C 375.91 362.09 372.41 358.41 368.93 354.71 C 367.96 355.60 366.99 356.51 366.03 357.41 Z" />
<path fill="#ffffff" opacity="1.00" d=" M 756.58 14.82 C 774.10 12.29 792.66 14.09 808.44 22.54 C 814.18 25.69 820.64 29.04 823.31 35.43 C 825.60 40.75 823.52 46.74 820.24 51.15 C 816.19 56.78 810.27 62.00 802.98 62.16 C 797.77 62.39 793.09 59.83 788.80 57.21 C 776.86 51.46 761.91 52.49 750.89 59.86 C 741.98 65.82 735.40 74.90 731.66 84.88 C 727.01 97.33 726.34 110.90 727.38 124.04 C 728.56 138.59 733.05 153.74 743.84 164.11 C 756.50 176.51 777.39 177.95 792.57 169.51 C 796.54 166.71 800.93 163.97 805.97 163.97 C 813.29 163.79 819.36 168.99 823.48 174.54 C 826.95 179.10 828.59 185.47 826.05 190.84 C 823.11 197.71 816.40 201.63 810.21 205.16 C 791.99 215.20 770.12 216.76 749.96 212.90 C 730.01 209.09 711.75 197.76 699.08 181.94 C 687.71 167.76 681.84 149.87 679.95 131.96 C 677.94 112.57 679.13 92.53 685.83 74.10 C 692.01 57.02 703.12 41.71 717.60 30.73 C 728.92 22.14 742.54 16.78 756.58 14.82 Z" />
<path fill="#ffffff" opacity="1.00" d=" M 926.59 14.75 C 944.48 12.53 963.22 13.90 979.89 21.15 C 997.34 28.70 1011.64 42.91 1019.88 60.00 C 1027.72 76.11 1030.55 94.22 1030.63 112.02 C 1030.83 130.93 1027.83 150.21 1019.53 167.35 C 1011.89 183.08 999.87 197.05 984.24 205.21 C 967.10 214.22 947.02 216.21 928.01 213.99 C 910.07 211.90 892.76 203.88 880.14 190.87 C 865.51 176.32 857.24 156.40 854.37 136.18 C 851.77 117.25 852.12 97.75 856.62 79.13 C 860.78 61.98 869.68 45.78 883.05 34.10 C 895.09 23.30 910.62 16.81 926.59 14.75 M 934.14 54.19 C 927.03 55.46 920.43 59.16 915.56 64.48 C 905.47 75.40 901.83 90.62 900.91 105.09 C 900.10 120.93 901.20 137.44 908.10 151.96 C 912.32 160.81 919.14 168.96 928.52 172.50 C 940.43 176.96 954.95 175.11 964.55 166.46 C 974.89 157.17 980.06 143.47 981.91 129.97 C 983.54 117.64 983.48 105.02 981.21 92.77 C 978.93 80.83 973.70 68.84 964.06 61.04 C 955.82 54.27 944.46 52.31 934.14 54.19 Z" />
<path fill="#ffffff" opacity="1.00" d=" M 503.69 17.48 C 511.09 17.25 518.51 17.39 525.92 17.41 C 532.78 17.53 539.17 21.78 542.14 27.92 C 556.36 55.35 570.64 82.77 584.80 110.23 C 591.13 124.37 597.43 138.53 603.65 152.72 C 604.01 152.91 604.73 153.29 605.09 153.48 C 602.48 130.70 599.54 107.92 598.79 84.99 C 598.70 69.63 598.77 54.28 598.75 38.93 C 598.79 33.09 600.16 26.77 604.56 22.60 C 608.92 18.46 615.22 17.30 621.04 17.35 C 626.82 17.33 633.06 18.53 637.35 22.68 C 641.71 26.86 643.05 33.18 643.06 39.01 C 643.07 90.69 643.05 142.36 643.07 194.04 C 643.16 198.56 641.78 203.25 638.54 206.51 C 635.36 209.91 630.59 211.36 626.03 211.25 C 619.03 211.21 612.03 211.34 605.03 211.19 C 599.07 211.06 593.47 207.43 590.87 202.08 C 576.52 174.09 562.17 146.10 547.86 118.08 C 541.56 104.20 535.55 90.17 529.25 76.29 C 528.86 75.86 528.09 75.01 527.70 74.58 C 529.75 98.36 533.35 122.07 533.44 145.99 C 533.44 160.33 533.44 174.67 533.44 189.00 C 533.44 194.74 532.36 200.95 528.31 205.29 C 524.21 209.78 517.83 211.18 511.98 211.26 C 506.00 211.36 499.50 210.29 494.97 206.06 C 490.36 201.73 489.04 195.07 489.12 188.99 C 489.16 136.99 489.06 85.00 489.17 33.01 C 489.16 25.10 495.77 17.96 503.69 17.48 Z" />
<path fill="#ffffff" opacity="1.00" d=" M 1050.59 20.38 C 1055.54 16.52 1062.13 17.47 1067.98 17.37 C 1073.37 17.58 1079.06 16.58 1084.16 18.87 C 1089.14 20.97 1092.90 25.54 1094.12 30.81 C 1100.35 55.71 1106.51 80.64 1112.76 105.54 C 1118.02 124.49 1121.90 143.79 1126.74 162.86 C 1127.28 164.71 1127.42 166.89 1128.99 168.25 C 1134.83 147.05 1138.98 125.42 1144.60 104.16 C 1150.79 79.44 1156.87 54.70 1163.12 30.00 C 1164.93 22.94 1171.71 17.71 1178.95 17.43 C 1183.98 17.29 1189.03 17.41 1194.07 17.37 C 1198.67 17.29 1203.77 18.59 1206.59 22.50 C 1209.49 26.35 1209.31 31.58 1208.04 36.01 C 1192.23 88.65 1176.37 141.28 1160.55 193.93 C 1159.52 197.23 1158.75 200.72 1156.71 203.58 C 1153.42 208.35 1147.72 211.26 1141.94 211.24 C 1131.95 211.26 1121.97 211.26 1111.99 211.24 C 1104.72 211.26 1097.79 206.04 1095.96 198.98 C 1079.63 144.68 1063.27 90.38 1046.95 36.07 C 1045.22 30.73 1045.77 23.96 1050.59 20.38 Z" />
<path fill="#ffffff" opacity="1.00" d=" M 1259.75 17.50 C 1265.41 17.49 1271.07 17.50 1276.74 17.49 C 1276.75 160.16 1276.75 302.83 1276.74 445.51 C 1271.07 445.49 1265.41 445.50 1259.75 445.50 C 1259.75 302.83 1259.75 160.17 1259.75 17.50 Z" />
<path fill="#ffffff" opacity="1.00" d=" M 1494.47 19.64 C 1499.82 17.97 1506.30 18.45 1510.67 22.25 C 1516.94 27.75 1516.02 39.41 1508.59 43.48 C 1502.67 46.64 1494.46 46.30 1489.47 41.55 C 1483.04 35.18 1485.36 22.21 1494.47 19.64 Z" />
<path fill="#ffffff" opacity="1.00" d=" M 1411.82 72.86 C 1424.66 53.95 1454.66 48.40 1472.27 63.79 C 1468.23 69.30 1464.18 74.81 1460.14 80.31 C 1457.89 78.75 1455.61 77.10 1452.94 76.41 C 1446.14 74.80 1438.41 77.73 1434.73 83.75 C 1430.59 90.35 1430.17 98.73 1431.84 106.18 C 1433.33 112.73 1438.00 119.05 1444.84 120.55 C 1451.40 122.17 1457.94 119.09 1463.04 115.15 C 1466.40 120.86 1469.76 126.57 1473.14 132.28 C 1458.94 144.38 1436.52 145.34 1421.20 134.77 C 1412.67 128.88 1407.19 119.27 1405.33 109.17 C 1403.00 96.86 1404.52 83.32 1411.82 72.86 Z" />
<path fill="#ffffff" opacity="1.00" d=" M 1553.97 58.06 C 1567.87 51.95 1586.41 54.50 1596.07 66.92 C 1604.54 77.93 1605.83 92.91 1603.39 106.19 C 1587.11 106.20 1570.83 106.17 1554.55 106.20 C 1555.79 111.78 1558.90 117.30 1564.26 119.82 C 1573.44 124.21 1584.39 121.98 1592.83 116.91 C 1595.70 122.14 1598.59 127.35 1601.47 132.58 C 1587.30 142.36 1567.93 145.28 1552.11 137.85 C 1542.35 133.36 1534.89 124.49 1531.78 114.25 C 1528.70 104.19 1528.61 93.15 1531.78 83.10 C 1535.22 72.14 1543.35 62.62 1553.97 58.06 M 1558.09 79.99 C 1555.90 82.56 1554.88 85.84 1554.09 89.06 C 1563.55 89.07 1573.01 89.06 1582.48 89.06 C 1582.32 84.54 1581.18 79.39 1577.08 76.82 C 1571.11 73.21 1562.47 74.44 1558.09 79.99 Z" />
<path fill="#ffffff" opacity="1.00" d=" M 1644.19 67.53 C 1650.01 61.97 1656.85 57.00 1664.93 55.50 C 1673.09 53.98 1682.57 55.17 1688.61 61.38 C 1695.12 68.10 1696.69 77.94 1696.92 86.93 C 1696.96 104.62 1696.92 122.31 1696.94 140.00 C 1688.27 140.00 1679.60 140.00 1670.94 140.00 C 1670.93 123.98 1670.94 107.97 1670.94 91.95 C 1670.83 88.24 1670.79 84.33 1669.06 80.95 C 1667.92 78.74 1665.54 77.41 1663.11 77.24 C 1656.85 76.33 1650.71 80.14 1647.14 84.92 C 1646.95 103.27 1647.12 121.64 1647.06 140.00 C 1638.39 140.00 1629.72 140.00 1621.06 140.00 C 1621.06 112.31 1621.06 84.62 1621.06 56.94 C 1628.12 56.94 1635.18 56.94 1642.25 56.94 C 1642.89 60.47 1643.54 64.00 1644.19 67.53 Z" />
<path fill="#ffffff" opacity="1.00" d=" M 1719.35 73.54 C 1731.94 54.09 1762.44 48.21 1780.27 63.79 C 1776.23 69.30 1772.18 74.80 1768.14 80.31 C 1765.13 78.15 1761.83 75.99 1758.00 75.99 C 1751.73 75.66 1745.38 78.89 1742.30 84.42 C 1738.47 91.21 1738.14 99.59 1740.07 107.02 C 1741.68 113.25 1746.30 119.10 1752.81 120.55 C 1759.38 122.17 1765.93 119.10 1771.03 115.15 C 1774.39 120.86 1777.75 126.57 1781.13 132.26 C 1767.63 143.83 1746.71 145.17 1731.48 136.25 C 1722.33 130.89 1716.06 121.39 1713.75 111.14 C 1710.89 98.54 1712.08 84.49 1719.35 73.54 Z" />
<path fill="#ffffff" opacity="1.00" d=" M 1813.19 58.98 C 1822.57 54.14 1833.96 53.67 1843.86 57.21 C 1851.83 60.05 1858.27 66.46 1861.63 74.18 C 1866.02 84.17 1866.57 95.56 1864.57 106.19 C 1848.29 106.20 1832.01 106.17 1815.73 106.20 C 1817.00 111.95 1820.30 117.61 1825.89 120.04 C 1835.01 124.12 1845.71 121.91 1854.01 116.91 C 1856.87 122.15 1859.83 127.35 1862.63 132.64 C 1847.42 143.05 1826.12 145.66 1809.91 136.04 C 1800.78 130.69 1794.40 121.29 1792.07 111.04 C 1789.63 100.43 1790.17 88.93 1794.56 78.89 C 1798.26 70.39 1804.88 63.15 1813.19 58.98 M 1820.13 79.03 C 1817.42 81.72 1816.14 85.43 1815.27 89.05 C 1824.73 89.07 1834.20 89.06 1843.67 89.06 C 1843.48 84.72 1842.51 79.85 1838.75 77.16 C 1833.17 73.37 1824.83 74.15 1820.13 79.03 Z" />
<path fill="#ffffff" opacity="1.00" d=" M 214.98 61.81 C 229.70 53.86 249.67 56.47 261.19 68.85 C 266.60 74.77 272.03 80.68 277.33 86.70 C 280.43 89.51 285.06 89.53 288.99 89.13 C 295.06 88.05 301.24 87.41 307.17 85.64 C 323.78 83.18 341.15 92.73 348.22 107.92 C 352.74 116.62 352.45 126.63 353.49 136.11 C 353.81 139.98 356.29 143.46 359.45 145.59 C 367.82 149.91 377.34 152.04 384.98 157.76 C 396.92 166.43 403.60 181.87 401.26 196.51 C 399.81 207.16 392.78 215.69 387.83 224.89 C 385.12 228.67 383.67 233.78 385.86 238.16 C 389.34 244.60 393.30 250.79 396.82 257.21 C 401.78 266.62 402.78 278.00 399.63 288.15 C 396.32 299.18 388.13 308.73 377.51 313.29 C 372.78 315.30 368.02 317.25 363.27 319.23 C 356.82 312.36 350.32 305.53 343.88 298.66 C 350.70 294.92 358.16 292.56 365.20 289.29 C 371.28 286.08 374.28 278.21 371.39 271.87 C 366.61 262.46 359.40 254.04 357.30 243.47 C 355.63 235.20 356.29 226.41 359.50 218.59 C 363.08 210.77 368.16 203.74 372.08 196.10 C 373.80 192.41 372.53 188.24 371.19 184.66 C 368.73 180.82 364.07 179.52 360.12 177.80 C 352.71 174.51 344.60 172.23 338.44 166.71 C 331.66 160.93 327.06 152.68 325.73 143.87 C 324.93 137.93 324.75 131.92 323.93 125.98 C 322.73 118.80 315.33 113.58 308.16 114.75 C 301.69 115.77 295.16 116.56 288.86 118.37 C 276.18 120.18 263.50 114.20 254.74 105.29 C 249.92 100.04 245.11 94.78 240.40 89.44 C 237.56 86.32 232.80 86.31 228.97 87.06 C 223.86 88.27 220.96 93.01 217.52 96.53 C 211.60 102.64 206.64 110.05 198.86 114.00 C 190.87 118.17 181.02 120.35 172.38 116.98 C 162.75 107.01 153.28 96.86 143.78 86.76 C 147.81 85.82 151.96 85.00 156.12 85.42 C 163.38 86.88 170.73 87.87 178.03 89.14 C 183.73 90.23 189.54 87.53 192.93 82.95 C 200.07 75.72 205.83 66.71 214.98 61.81 Z" />
<path fill="#ffffff" opacity="1.00" d=" M 1487.31 56.94 C 1495.97 56.94 1504.64 56.93 1513.31 56.94 C 1513.31 84.63 1513.31 112.31 1513.31 140.00 C 1504.64 140.00 1495.97 140.00 1487.31 140.00 C 1487.31 112.31 1487.31 84.62 1487.31 56.94 Z" />
<path fill="#ffffff" opacity="1.00" d=" M 192.32 138.19 C 208.89 135.23 226.71 139.47 239.78 150.19 C 257.21 163.98 265.26 188.16 259.89 209.70 C 237.32 185.90 214.83 162.04 192.32 138.19 Z" />
<path fill="#ffffff" opacity="1.00" d=" M 113.00 139.47 C 119.22 146.27 125.88 152.71 131.84 159.72 C 127.77 165.37 122.32 170.10 115.90 172.89 C 110.58 175.17 105.19 177.31 99.86 179.59 C 93.55 182.41 90.07 190.13 92.57 196.68 C 96.85 205.54 103.44 213.33 106.25 222.88 C 109.27 233.68 108.08 245.77 102.37 255.51 C 99.11 261.17 95.71 266.75 92.52 272.45 C 90.40 276.31 91.53 280.94 93.16 284.74 C 95.92 288.79 100.98 290.00 105.21 291.91 C 111.36 294.65 117.98 296.59 123.44 300.66 C 131.60 306.56 137.24 315.84 138.59 325.84 C 139.34 331.57 139.54 337.37 140.30 343.11 C 141.38 349.93 148.10 355.28 155.03 354.58 C 160.45 354.05 165.81 352.96 171.17 352.01 C 180.49 348.82 190.86 351.20 199.20 356.00 C 209.63 361.82 216.23 372.14 224.53 380.38 C 229.57 383.99 237.28 383.15 241.45 378.54 C 246.14 373.53 250.62 368.31 255.36 363.35 C 263.19 355.75 273.80 350.30 284.90 350.64 C 291.92 352.02 299.01 352.99 306.06 354.24 C 309.20 354.83 312.43 354.60 315.55 353.97 C 321.99 360.76 328.43 367.54 334.81 374.38 C 326.58 379.67 316.21 382.95 306.49 380.32 C 300.68 379.44 294.89 378.40 289.09 377.49 C 284.99 376.77 280.65 377.74 277.36 380.32 C 269.15 387.77 263.21 397.74 253.73 403.77 C 241.18 411.44 224.19 411.16 211.96 402.97 C 206.16 399.18 202.08 393.47 197.34 388.53 C 194.61 385.63 192.05 382.58 189.36 379.65 C 185.99 376.96 181.26 377.06 177.19 377.58 C 171.48 378.62 165.66 379.18 160.09 380.87 C 143.11 383.66 125.23 373.58 118.34 357.89 C 114.22 349.50 114.48 339.97 113.49 330.90 C 113.26 326.76 110.64 322.99 107.19 320.83 C 98.88 316.68 89.54 314.48 82.01 308.88 C 70.04 300.21 63.33 284.76 65.68 270.11 C 67.14 259.32 74.30 250.71 79.30 241.39 C 82.03 237.58 83.21 232.33 80.88 228.04 C 77.48 221.92 73.78 215.96 70.36 209.86 C 65.27 200.49 64.12 189.11 67.17 178.91 C 70.29 168.03 78.14 158.52 88.44 153.75 C 94.54 151.05 100.78 148.67 106.89 145.99 C 109.73 144.75 111.65 142.17 113.00 139.47 Z" />
<path fill="#ffffff" opacity="1.00" d=" M 189.17 173.18 C 192.48 171.43 196.04 175.87 193.74 178.77 C 192.07 181.62 187.87 185.09 184.71 182.33 C 181.83 178.88 185.96 174.56 189.17 173.18 Z" />
<path fill="#ffffff" opacity="1.00" d=" M 147.59 176.13 C 171.57 201.48 195.53 226.84 219.47 252.23 C 207.34 255.84 194.04 255.44 182.23 250.85 C 165.80 244.63 152.50 230.74 147.03 214.04 C 142.91 201.81 143.23 188.25 147.59 176.13 Z" />
<path fill="#ffffff" opacity="1.00" d=" M 201.08 190.40 C 202.45 189.08 203.84 187.78 205.23 186.48 C 206.37 188.02 209.01 190.04 207.10 192.01 C 205.11 194.47 202.58 192.02 201.08 190.40 Z" />
<path fill="#ffffff" opacity="1.00" d=" M 1468.53 191.74 C 1478.48 188.49 1490.23 190.88 1497.77 198.27 C 1504.71 204.95 1508.04 214.52 1509.19 223.90 C 1510.61 236.13 1509.23 249.12 1503.01 259.94 C 1497.54 269.66 1487.34 277.09 1475.97 277.44 C 1468.29 277.90 1461.00 274.23 1455.59 269.02 C 1456.82 281.19 1456.36 293.42 1456.44 305.62 C 1447.77 305.63 1439.10 305.63 1430.44 305.63 C 1430.43 267.87 1430.43 230.12 1430.44 192.37 C 1437.50 192.37 1444.58 192.37 1451.65 192.37 C 1452.29 195.11 1452.93 197.84 1453.61 200.58 C 1458.03 196.82 1462.94 193.49 1468.53 191.74 M 1456.45 218.48 C 1456.43 229.45 1456.44 240.42 1456.44 251.38 C 1461.15 255.39 1468.09 257.65 1473.97 254.93 C 1479.80 252.04 1481.90 245.15 1482.60 239.14 C 1483.20 232.21 1483.31 224.87 1480.53 218.36 C 1478.81 214.17 1474.48 211.40 1469.97 211.55 C 1464.51 211.20 1459.96 214.72 1456.45 218.48 Z" />
<path fill="#ffffff" opacity="1.00" d=" M 1547.08 193.11 C 1560.71 187.56 1578.46 190.09 1588.02 201.94 C 1596.77 212.95 1598.12 228.13 1595.68 241.55 C 1579.38 241.59 1563.09 241.54 1546.79 241.58 C 1548.09 247.28 1551.30 252.93 1556.85 255.40 C 1565.99 259.57 1576.75 257.34 1585.10 252.32 C 1587.97 257.55 1590.86 262.77 1593.74 268.00 C 1577.56 279.27 1554.02 281.35 1537.72 269.26 C 1523.91 259.13 1519.57 240.26 1522.63 224.08 C 1525.02 210.58 1534.22 198.25 1547.08 193.11 M 1550.36 215.41 C 1548.18 217.97 1547.18 221.23 1546.36 224.41 C 1555.82 224.46 1565.29 224.43 1574.77 224.43 C 1574.56 219.97 1573.49 214.93 1569.49 212.33 C 1563.53 208.60 1554.77 209.82 1550.36 215.41 Z" />
<path fill="#ffffff" opacity="1.00" d=" M 1826.76 192.78 C 1840.26 187.67 1857.56 190.33 1866.90 202.00 C 1875.62 212.99 1876.92 228.15 1874.51 241.55 C 1858.22 241.59 1841.92 241.53 1825.63 241.58 C 1826.89 247.22 1830.05 252.80 1835.49 255.30 C 1844.66 259.59 1855.53 257.38 1863.93 252.32 C 1866.80 257.55 1869.69 262.77 1872.57 268.01 C 1858.31 277.83 1838.78 280.74 1822.91 273.12 C 1813.02 268.48 1805.59 259.31 1802.63 248.85 C 1799.57 238.10 1799.78 226.28 1803.85 215.82 C 1807.88 205.43 1816.28 196.72 1826.76 192.78 M 1829.31 215.27 C 1827.05 217.84 1826.02 221.17 1825.19 224.41 C 1834.66 224.45 1844.14 224.45 1853.62 224.42 C 1853.35 220.02 1852.37 215.04 1848.45 212.42 C 1842.55 208.62 1833.77 209.75 1829.31 215.27 Z" />
<path fill="#ffffff" opacity="1.00" d=" M 1970.63 199.63 C 1975.91 194.09 1983.51 191.36 1991.01 190.59 C 2002.64 189.30 2014.86 192.52 2024.03 199.88 C 2024.52 200.00 2025.51 200.23 2026.00 200.35 L 2026.00 201.48 C 2021.49 205.93 2018.26 211.54 2014.29 216.48 C 2007.89 212.15 2000.09 207.76 1992.14 210.17 C 1988.27 211.06 1986.89 216.60 1990.03 219.11 C 1994.17 222.52 1999.64 223.54 2004.52 225.52 C 2011.93 228.32 2019.70 232.30 2023.51 239.63 C 2029.27 250.97 2024.63 266.26 2013.36 272.29 C 1996.25 281.64 1974.22 277.65 1959.31 265.84 C 1963.15 260.40 1967.02 254.98 1970.89 249.55 C 1978.44 255.09 1987.99 260.40 1997.62 257.45 C 2001.55 256.43 2003.18 250.75 1999.90 248.11 C 1994.31 243.64 1986.98 242.42 1980.72 239.19 C 1974.25 236.10 1967.98 231.39 1965.40 224.45 C 1962.39 216.09 1964.39 206.03 1970.63 199.63 Z" />
<path fill="#ffffff" opacity="1.00" d=" M 1636.48 202.95 C 1642.22 197.42 1649.00 192.50 1656.99 190.96 C 1665.28 189.32 1674.96 190.59 1681.05 196.96 C 1687.34 203.61 1688.94 213.21 1689.18 222.03 C 1689.20 239.83 1689.18 257.63 1689.19 275.44 C 1680.52 275.44 1671.85 275.44 1663.19 275.44 C 1663.19 259.96 1663.17 244.48 1663.20 229.00 C 1663.13 224.60 1663.33 219.85 1661.06 215.92 C 1659.02 212.54 1654.57 212.21 1651.06 212.74 C 1646.28 213.42 1642.58 216.83 1639.28 220.08 C 1639.36 238.53 1639.29 256.99 1639.31 275.44 C 1630.64 275.44 1621.98 275.44 1613.32 275.44 C 1613.30 247.75 1613.31 220.06 1613.31 192.37 C 1620.38 192.37 1627.45 192.37 1634.53 192.37 C 1635.16 195.90 1635.80 199.43 1636.48 202.95 Z" />
<path fill="#ffffff" opacity="1.00" d=" M 1732.43 202.95 C 1738.18 197.44 1744.94 192.50 1752.93 190.97 C 1761.44 189.26 1771.46 190.68 1777.49 197.47 C 1783.60 204.39 1784.99 214.06 1785.17 222.97 C 1785.21 240.46 1785.17 257.95 1785.19 275.44 C 1776.50 275.44 1767.81 275.44 1759.12 275.44 C 1759.12 258.97 1759.13 242.50 1759.12 226.03 C 1758.99 222.42 1758.82 218.50 1756.68 215.44 C 1755.17 213.30 1752.43 212.57 1749.96 212.56 C 1744.15 212.26 1738.88 215.89 1735.38 220.20 C 1735.22 238.61 1735.36 257.03 1735.31 275.44 C 1726.62 275.44 1717.93 275.44 1709.25 275.44 C 1709.25 247.75 1709.25 220.06 1709.25 192.37 C 1716.32 192.37 1723.40 192.37 1730.48 192.37 C 1731.12 195.90 1731.76 199.42 1732.43 202.95 Z" />
<path fill="#ffffff" opacity="1.00" d=" M 1895.92 199.99 C 1901.30 194.11 1909.25 191.27 1917.03 190.55 C 1929.36 189.14 1941.81 193.35 1951.47 200.97 C 1947.61 206.14 1943.75 211.32 1939.90 216.50 C 1933.46 212.06 1925.43 207.64 1917.43 210.29 C 1913.99 211.30 1912.71 216.14 1915.24 218.69 C 1918.57 221.91 1923.30 222.95 1927.52 224.57 C 1935.39 227.34 1943.81 230.96 1948.41 238.34 C 1955.20 249.62 1950.77 265.86 1939.19 272.16 C 1922.09 281.67 1899.88 277.72 1884.95 265.82 C 1888.78 260.38 1892.67 254.97 1896.51 249.54 C 1902.31 253.73 1908.77 257.71 1916.10 258.24 C 1919.20 258.39 1922.67 258.27 1925.27 256.32 C 1927.69 254.44 1928.07 250.35 1925.69 248.27 C 1921.85 244.88 1916.73 243.58 1912.11 241.65 C 1905.18 238.99 1898.12 235.46 1893.65 229.32 C 1887.36 220.65 1888.72 207.71 1895.92 199.99 Z" />
<path fill="#ffffff" opacity="1.00" d=" M 284.82 236.14 C 291.32 230.41 300.54 227.85 309.00 230.00 C 319.38 232.37 327.78 241.52 329.21 252.09 C 330.56 260.42 327.41 269.04 321.58 275.03 C 309.29 262.11 297.08 249.10 284.82 236.14 Z" />
<path fill="#ffffff" opacity="1.00" d=" M 690.39 268.01 C 690.12 259.48 697.46 251.74 706.03 251.78 C 722.68 251.70 739.33 251.77 755.97 251.75 C 775.59 251.46 796.41 252.92 813.55 263.44 C 825.79 270.80 833.86 283.90 836.19 297.87 C 838.77 313.49 837.86 330.31 830.53 344.59 C 824.96 355.48 815.19 363.73 804.21 368.81 C 815.12 388.21 826.08 407.57 836.98 426.97 C 839.14 430.97 840.94 436.17 838.38 440.42 C 835.82 444.56 830.53 445.54 826.02 445.62 C 819.13 445.60 812.24 445.71 805.36 445.57 C 799.02 445.38 793.03 441.61 790.14 435.97 C 779.85 416.47 769.59 396.95 759.32 377.44 C 751.89 377.42 744.46 377.47 737.03 377.42 C 736.95 392.61 737.03 407.81 736.99 423.01 C 736.96 429.30 735.43 436.15 730.53 440.49 C 725.51 444.93 718.45 445.84 712.00 445.60 C 706.12 445.39 699.84 443.81 695.73 439.33 C 691.43 434.71 690.32 428.12 690.37 422.03 C 690.39 370.69 690.34 319.35 690.39 268.01 M 737.00 288.69 C 737.00 305.96 737.00 323.23 737.00 340.50 C 745.31 340.43 753.63 340.64 761.95 340.39 C 770.38 339.92 779.53 337.87 785.47 331.40 C 791.98 324.03 792.81 313.09 790.44 303.91 C 788.70 297.14 782.61 292.54 776.08 290.86 C 763.36 287.33 750.02 289.14 737.00 288.69 Z" />
<path fill="#ffffff" opacity="1.00" d=" M 891.48 267.30 C 891.52 259.02 898.79 251.75 907.09 251.78 C 936.72 251.70 966.34 251.77 995.97 251.75 C 1001.05 251.76 1006.56 253.09 1010.05 257.04 C 1013.65 261.07 1014.46 266.75 1014.37 271.97 C 1014.26 277.05 1013.00 282.55 1009.10 286.10 C 1005.33 289.55 1000.00 290.48 995.06 290.45 C 976.06 290.43 957.06 290.45 938.07 290.44 C 938.06 302.37 938.06 314.31 938.06 326.25 C 953.41 326.26 968.76 326.24 984.11 326.26 C 989.29 326.30 994.88 327.58 998.48 331.57 C 1002.24 335.73 1003.05 341.64 1002.91 347.04 C 1002.77 351.96 1001.56 357.25 997.89 360.79 C 994.26 364.35 988.97 365.44 984.04 365.50 C 968.71 365.51 953.39 365.49 938.06 365.50 C 938.06 379.13 938.06 392.75 938.06 406.37 C 957.71 406.37 977.35 406.38 997.00 406.37 C 1002.51 406.31 1008.58 407.25 1012.60 411.37 C 1016.63 415.47 1017.55 421.54 1017.42 427.06 C 1017.29 432.12 1015.99 437.59 1012.11 441.13 C 1008.34 444.60 1003.02 445.60 998.06 445.63 C 968.06 445.62 938.06 445.64 908.06 445.62 C 903.13 445.65 898.10 443.63 895.02 439.69 C 892.32 436.46 891.33 432.14 891.43 428.00 C 891.48 374.43 891.37 320.87 891.48 267.30 Z" />
<path fill="#ffffff" opacity="1.00" d=" M 1066.45 252.59 C 1070.81 251.23 1075.45 251.89 1079.95 251.75 C 1093.29 251.85 1106.64 251.53 1119.98 251.94 C 1142.84 252.97 1166.47 259.57 1183.62 275.38 C 1198.73 288.96 1206.13 309.09 1208.37 328.88 C 1210.41 347.93 1209.79 367.53 1204.45 386.02 C 1200.02 401.39 1191.24 415.66 1178.60 425.60 C 1161.49 439.56 1139.07 445.22 1117.33 445.59 C 1101.24 445.67 1085.14 445.61 1069.05 445.63 C 1064.71 445.70 1060.14 443.96 1057.72 440.22 C 1055.23 436.68 1055.39 432.15 1055.43 428.03 C 1055.44 376.70 1055.43 325.36 1055.43 274.03 C 1055.46 269.95 1055.11 265.72 1056.64 261.84 C 1058.28 257.48 1062.00 253.99 1066.45 252.59 M 1102.06 288.94 C 1102.06 328.69 1102.06 368.44 1102.06 408.19 C 1116.25 408.66 1131.50 407.07 1143.16 398.20 C 1152.11 391.82 1157.26 381.46 1159.51 370.92 C 1162.27 357.95 1162.38 344.50 1160.77 331.37 C 1159.17 319.62 1155.07 307.21 1145.30 299.74 C 1133.22 290.04 1117.00 288.44 1102.06 288.94 Z" />
<path fill="#ffffff" opacity="1.00" d=" M 205.13 283.04 C 214.66 280.71 225.22 286.56 228.34 295.85 C 231.14 303.39 228.81 312.47 222.69 317.70 C 216.58 323.22 206.95 324.25 199.79 320.19 C 192.70 316.38 188.45 308.03 189.60 300.05 C 190.52 291.85 197.05 284.71 205.13 283.04 Z" />
<path fill="#ffffff" opacity="1.00" d=" M 1861.81 327.79 C 1862.78 320.44 1863.75 313.10 1864.73 305.75 C 1871.90 305.75 1879.07 305.75 1886.25 305.75 C 1886.25 313.10 1886.25 320.46 1886.25 327.81 C 1892.74 327.81 1899.24 327.81 1905.75 327.81 C 1905.74 334.58 1905.74 341.35 1905.75 348.13 C 1899.24 348.13 1892.74 348.12 1886.25 348.13 C 1886.24 358.07 1886.26 368.02 1886.24 377.97 C 1886.08 382.63 1886.61 388.28 1890.92 391.05 C 1895.03 393.62 1900.04 392.33 1904.34 390.99 C 1905.67 397.27 1907.06 403.55 1908.41 409.83 C 1898.66 412.80 1887.96 414.27 1878.07 411.21 C 1870.93 409.05 1865.22 403.25 1862.78 396.26 C 1859.23 386.90 1860.39 376.74 1860.19 366.96 C 1860.18 360.68 1860.18 354.40 1860.19 348.13 C 1856.45 348.12 1852.72 348.12 1849.00 348.13 C 1848.99 341.69 1848.99 335.25 1849.00 328.81 C 1853.26 328.46 1857.53 328.13 1861.81 327.79 Z" />
<path fill="#ffffff" opacity="1.00" d=" M 319.27 307.45 C 320.50 309.00 323.14 311.13 321.04 313.08 C 319.04 315.40 316.59 312.92 315.14 311.36 C 316.50 310.04 317.88 308.74 319.27 307.45 Z" />
<path fill="#ffffff" opacity="1.00" d=" M 327.41 324.42 C 328.76 323.07 330.16 321.75 331.57 320.44 C 332.78 322.00 335.53 324.35 333.19 326.19 C 331.20 328.39 328.88 325.85 327.41 324.42 Z" />
<path fill="#ffffff" opacity="1.00" d=" M 1542.11 327.27 C 1552.05 323.89 1563.86 326.16 1571.50 333.49 C 1578.50 340.12 1581.92 349.67 1583.09 359.06 C 1585.06 374.84 1582.05 392.65 1570.12 404.05 C 1563.51 410.41 1554.01 413.99 1544.85 412.56 C 1538.98 411.66 1533.75 408.43 1529.52 404.39 C 1530.75 416.56 1530.30 428.79 1530.38 441.00 C 1521.70 441.00 1513.03 441.00 1504.37 441.00 C 1504.38 403.27 1504.36 365.54 1504.38 327.81 C 1511.45 327.81 1518.52 327.81 1525.60 327.81 C 1526.23 330.54 1526.88 333.27 1527.55 336.00 C 1531.87 332.31 1536.66 329.05 1542.11 327.27 M 1530.44 354.33 C 1530.27 365.14 1530.43 375.97 1530.37 386.79 C 1535.73 391.53 1544.76 393.71 1550.57 388.57 C 1556.33 383.05 1556.90 374.40 1556.87 366.90 C 1556.61 360.69 1556.08 353.31 1550.84 349.12 C 1544.19 344.40 1534.48 347.87 1530.44 354.33 Z" />
<path fill="#ffffff" opacity="1.00" d=" M 1639.04 326.96 C 1648.79 324.03 1660.12 326.41 1667.50 333.54 C 1674.48 340.15 1677.87 349.67 1679.04 359.02 C 1680.27 369.37 1679.54 380.16 1675.58 389.88 C 1672.44 397.61 1667.04 404.61 1659.73 408.80 C 1652.79 412.81 1644.06 414.20 1636.43 411.43 C 1632.27 409.99 1628.66 407.37 1625.47 404.39 C 1626.71 416.56 1626.33 428.79 1626.38 441.00 C 1617.68 441.00 1608.99 441.00 1600.31 441.00 C 1600.33 403.26 1600.27 365.53 1600.34 327.80 C 1607.40 327.82 1614.47 327.81 1621.54 327.81 C 1622.18 330.53 1622.83 333.26 1623.50 335.99 C 1628.08 332.09 1633.21 328.68 1639.04 326.96 M 1626.40 353.79 C 1626.34 364.80 1626.40 375.81 1626.37 386.82 C 1631.29 391.07 1638.90 393.30 1644.84 389.82 C 1650.41 386.26 1652.11 379.21 1652.65 373.03 C 1652.99 366.11 1653.12 358.65 1649.70 352.40 C 1647.25 347.90 1641.62 346.19 1636.83 347.19 C 1632.61 347.91 1629.32 350.88 1626.40 353.79 Z" />
<path fill="#ffffff" opacity="1.00" d=" M 1723.49 326.69 C 1734.54 324.24 1746.62 326.55 1755.81 333.21 C 1764.02 339.03 1769.63 348.14 1771.73 357.94 C 1775.25 373.92 1771.32 392.45 1758.44 403.33 C 1744.17 415.92 1720.90 416.00 1706.48 403.62 C 1690.73 390.49 1687.75 366.29 1696.15 348.27 C 1701.29 337.35 1711.69 329.17 1723.49 326.69 M 1729.11 347.17 C 1722.36 348.68 1719.44 355.96 1718.69 362.14 C 1717.86 370.16 1717.75 378.93 1721.90 386.14 C 1725.66 392.80 1736.07 393.81 1741.13 388.14 C 1745.26 383.46 1746.05 376.89 1746.30 370.90 C 1746.37 364.39 1745.96 357.38 1742.23 351.82 C 1739.45 347.59 1733.89 345.95 1729.11 347.17 Z" />
<path fill="#ffffff" opacity="1.00" d=" M 1826.13 328.37 C 1832.32 325.01 1839.94 325.00 1846.46 327.44 C 1845.00 334.90 1843.62 342.38 1842.20 349.85 C 1836.08 348.24 1828.94 347.55 1823.64 351.71 C 1818.79 355.58 1814.37 361.46 1815.17 368.00 C 1815.21 382.27 1815.18 396.54 1815.19 410.81 C 1806.52 410.81 1797.85 410.81 1789.19 410.81 C 1789.19 383.14 1789.19 355.48 1789.19 327.81 C 1796.25 327.81 1803.32 327.81 1810.40 327.81 C 1811.03 332.72 1811.70 337.63 1812.32 342.55 C 1815.76 336.87 1820.09 331.43 1826.13 328.37 Z" />
<path fill="#ffffff" opacity="1.00" d=" M 1408.13 327.81 C 1416.79 327.81 1425.45 327.81 1434.12 327.81 C 1434.13 343.87 1434.10 359.93 1434.14 376.00 C 1434.26 379.89 1434.28 384.12 1436.48 387.52 C 1438.27 390.28 1441.85 390.84 1444.91 390.61 C 1450.34 390.44 1455.27 386.46 1457.50 381.73 C 1457.65 363.76 1457.51 345.79 1457.56 327.81 C 1466.22 327.81 1474.89 327.81 1483.56 327.81 C 1483.58 355.48 1483.56 383.14 1483.57 410.81 C 1476.50 410.81 1469.43 410.81 1462.37 410.81 C 1461.71 406.91 1461.10 402.99 1460.36 399.11 C 1455.29 405.05 1448.99 410.49 1441.14 412.12 C 1432.53 413.95 1422.36 412.74 1416.09 406.00 C 1409.93 399.31 1408.39 389.80 1408.15 381.03 C 1408.09 363.29 1408.14 345.55 1408.13 327.81 Z" />
<path fill="#ffffff" opacity="1.00" d=" M 340.56 335.70 C 343.37 333.02 348.50 336.16 346.77 339.84 C 345.33 343.06 341.05 346.89 337.53 344.38 C 334.54 341.49 337.86 337.38 340.56 335.70 Z" />
<path fill="#ffffff" opacity="1.00" d=" M 354.02 352.01 C 355.29 350.79 356.57 349.58 357.85 348.38 C 358.98 349.91 361.79 351.85 359.93 353.87 C 357.89 356.18 355.50 353.54 354.02 352.01 Z" />
</g>
<g id="#ff0c00ff">
<path fill="#ff0c00" opacity="1.00" d=" M 1340.08 31.47 C 1357.27 26.22 1377.08 31.04 1389.89 43.67 C 1385.53 49.13 1381.20 54.61 1376.84 60.07 C 1371.57 56.19 1365.63 52.87 1359.04 52.08 C 1354.35 51.50 1349.15 51.45 1345.06 54.11 C 1341.13 56.57 1340.44 62.84 1344.04 65.90 C 1348.45 69.70 1354.26 71.18 1359.52 73.44 C 1367.93 77.04 1377.24 79.40 1384.08 85.82 C 1395.47 96.25 1395.83 115.58 1386.36 127.39 C 1380.22 135.28 1370.62 139.82 1360.89 141.33 C 1343.13 144.16 1324.28 138.54 1310.95 126.46 C 1315.90 120.44 1320.90 114.45 1325.87 108.45 C 1333.02 114.34 1341.69 118.96 1351.10 119.49 C 1355.12 119.59 1359.48 119.26 1362.91 116.90 C 1366.98 114.18 1367.52 107.46 1363.68 104.31 C 1359.86 101.12 1354.99 99.67 1350.52 97.66 C 1344.66 95.10 1338.66 92.88 1332.92 90.10 C 1326.11 86.58 1320.16 80.98 1317.27 73.79 C 1313.83 65.26 1314.43 55.12 1319.17 47.19 C 1323.71 39.44 1331.57 34.03 1340.08 31.47 Z" />
<path fill="#ff0c00" opacity="1.00" d=" M 1351.51 165.83 C 1363.99 163.57 1377.52 164.87 1388.63 171.31 C 1402.40 179.09 1410.05 194.55 1411.77 209.85 C 1413.86 227.65 1411.29 247.32 1399.44 261.47 C 1384.95 278.85 1357.89 281.92 1338.40 271.66 C 1324.27 264.20 1316.02 248.85 1313.85 233.42 C 1311.62 217.34 1312.97 199.88 1321.71 185.80 C 1328.18 175.25 1339.38 168.00 1351.51 165.83 M 1358.42 187.57 C 1349.35 189.11 1343.39 197.53 1341.38 206.00 C 1338.86 216.40 1338.98 227.57 1342.13 237.83 C 1344.20 244.33 1348.37 250.67 1354.87 253.40 C 1362.43 256.65 1371.98 254.71 1377.40 248.41 C 1383.95 240.95 1385.70 230.58 1385.82 220.96 C 1385.81 211.56 1384.31 201.40 1378.02 194.00 C 1373.33 188.41 1365.48 186.15 1358.42 187.57 Z" />
<path fill="#ff0c00" opacity="1.00" d=" M 1322.88 312.97 C 1334.43 300.29 1353.79 297.61 1369.64 302.52 C 1377.21 304.83 1384.20 308.97 1389.87 314.51 C 1385.53 319.99 1381.18 325.44 1376.84 330.91 C 1371.28 326.78 1364.92 323.35 1357.90 322.77 C 1353.34 322.40 1348.23 322.45 1344.47 325.39 C 1340.96 328.11 1340.68 334.01 1344.17 336.86 C 1348.69 340.63 1354.55 342.13 1359.87 344.42 C 1368.64 348.13 1378.43 350.64 1385.21 357.75 C 1396.05 369.03 1395.44 388.69 1384.89 399.97 C 1378.09 407.53 1368.09 411.50 1358.14 412.53 C 1341.20 414.42 1323.65 408.72 1310.97 397.35 C 1315.84 391.25 1320.92 385.31 1325.87 379.28 C 1333.00 385.16 1341.64 389.76 1351.01 390.33 C 1355.23 390.43 1359.87 390.09 1363.35 387.40 C 1367.25 384.37 1367.32 377.60 1363.19 374.72 C 1358.73 371.42 1353.32 369.84 1348.33 367.57 C 1339.22 363.54 1328.95 360.67 1322.31 352.74 C 1312.42 341.85 1312.81 323.63 1322.88 312.97 Z" />
<path fill="#ff0c00" opacity="1.00" d=" M 563.51 319.72 C 571.52 317.46 580.69 318.59 587.45 323.64 C 596.97 330.36 601.11 342.95 598.65 354.17 C 596.67 364.14 588.91 372.98 578.98 375.53 C 571.58 377.37 563.30 376.54 556.87 372.25 C 545.76 365.18 541.41 350.36 545.40 338.05 C 548.06 329.56 554.90 322.27 563.51 319.72 Z" />
</g>
</svg>
