<?xml version="1.0" encoding="UTF-8" ?>
<!DOCTYPE svg PUBLIC "-//W3C//DTD SVG 1.1//EN" "http://www.w3.org/Graphics/SVG/1.1/DTD/svg11.dtd">
<svg width="2026pt" height="467pt" viewBox="0 0 2026 467" version="1.1" xmlns="http://www.w3.org/2000/svg">
<g id="#ffffffff">
<path fill="#ffffff" opacity="1.00" d=" M 227.06 0.00 L 239.17 0.00 C 277.88 1.13 316.33 11.66 349.84 31.14 C 398.56 59.09 436.54 105.18 454.42 158.45 C 470.82 206.66 470.80 260.26 454.37 308.47 C 442.78 342.65 423.07 374.03 397.36 399.37 C 362.07 434.42 315.29 457.69 265.99 464.45 C 209.51 472.78 150.19 458.93 102.98 426.91 C 73.79 407.24 49.15 380.89 31.49 350.45 C 11.90 317.00 1.29 278.57 0.00 239.88 L 0.00 227.61 C 0.90 200.25 6.17 172.98 16.34 147.53 C 36.03 97.42 73.75 54.72 120.95 28.85 C 153.34 10.88 190.08 1.21 227.06 0.00 M 113.59 73.27 C 204.52 169.55 295.43 265.83 386.37 362.09 C 416.62 326.38 433.60 279.78 433.32 232.97 C 433.30 198.22 424.04 163.53 406.59 133.47 C 386.99 99.47 357.17 71.47 321.97 54.11 C 288.45 37.41 250.14 30.63 212.91 34.48 C 177.08 38.04 142.38 51.68 113.59 73.27 M 103.01 87.93 C 103.45 90.24 105.24 92.42 104.73 94.80 C 101.56 96.60 100.08 91.66 99.61 89.39 C 98.22 89.50 96.82 89.62 95.43 89.74 C 95.94 94.05 98.53 98.61 103.05 99.58 C 106.42 100.39 110.15 97.49 109.91 93.97 C 109.55 91.47 108.23 89.26 107.57 86.84 C 107.34 85.22 109.19 84.85 110.15 85.78 C 111.52 86.83 111.81 88.65 112.62 90.08 C 113.52 90.03 115.34 89.93 116.24 89.88 C 116.01 85.82 113.34 81.57 109.07 80.97 C 105.26 80.14 101.62 84.27 103.01 87.93 M 109.27 106.91 C 110.36 110.72 114.00 113.30 117.91 113.43 C 118.04 112.50 118.28 110.63 118.41 109.70 C 116.06 109.21 113.19 107.85 113.43 104.98 C 114.02 101.26 118.01 97.63 121.90 98.72 C 123.87 99.36 124.32 101.51 124.84 103.24 C 125.80 103.15 127.73 102.98 128.69 102.89 C 128.37 99.72 126.93 96.52 123.93 95.06 C 116.76 91.04 106.99 99.14 109.27 106.91 M 33.75 222.05 C 31.52 260.31 40.57 299.16 59.66 332.41 C 79.09 366.51 108.78 394.67 143.91 412.21 C 175.01 427.89 210.30 435.04 245.06 432.98 C 288.01 430.64 329.93 413.78 362.66 385.89 C 271.28 289.11 179.87 192.37 88.49 95.59 C 56.06 129.51 36.18 175.15 33.75 222.05 M 118.00 117.01 C 119.09 118.16 120.17 119.31 121.26 120.47 C 125.99 116.01 130.71 111.56 135.44 107.10 C 134.35 105.95 133.27 104.79 132.18 103.64 C 127.45 108.10 122.73 112.55 118.00 117.01 M 124.25 123.64 C 127.15 126.71 130.05 129.79 132.95 132.87 C 133.91 131.95 134.88 131.03 135.85 130.12 C 134.04 128.20 132.23 126.27 130.41 124.36 C 131.39 123.44 132.38 122.52 133.36 121.61 C 134.84 123.17 136.32 124.74 137.80 126.31 C 138.77 125.40 139.74 124.49 140.71 123.58 C 139.23 122.01 137.74 120.43 136.26 118.86 C 137.10 118.06 137.95 117.25 138.80 116.45 C 140.55 118.30 142.29 120.15 144.04 122.01 C 145.00 121.10 145.96 120.19 146.93 119.28 C 144.10 116.28 141.27 113.27 138.43 110.27 C 133.71 114.73 128.99 119.19 124.25 123.64 M 135.50 135.58 C 136.54 136.67 137.58 137.76 138.62 138.85 C 142.00 135.77 145.31 132.59 148.17 129.01 C 146.15 133.70 144.56 138.55 142.82 143.35 C 143.93 144.51 145.03 145.68 146.13 146.84 C 150.86 142.38 155.58 137.93 160.31 133.47 C 159.28 132.37 158.24 131.28 157.21 130.19 C 153.85 133.27 150.52 136.41 147.70 140.01 C 149.72 135.33 151.33 130.49 152.97 125.67 C 151.88 124.52 150.78 123.37 149.69 122.21 C 144.96 126.67 140.24 131.13 135.50 135.58 M 152.35 152.61 C 153.45 156.41 157.09 159.00 161.00 159.14 C 161.16 157.89 161.32 156.64 161.49 155.39 C 159.24 154.92 156.48 153.69 156.50 150.97 C 156.82 147.35 160.35 143.99 164.06 144.18 C 166.49 144.39 167.47 146.84 167.88 148.91 C 169.17 148.81 170.47 148.70 171.76 148.58 C 171.43 145.45 170.05 142.25 167.09 140.79 C 159.92 136.66 150.02 144.80 152.35 152.61 M 161.07 162.69 C 163.97 165.77 166.86 168.84 169.77 171.91 C 170.74 171.00 171.71 170.08 172.67 169.17 C 170.86 167.25 169.05 165.32 167.24 163.40 C 168.22 162.48 169.20 161.57 170.18 160.65 C 171.65 162.22 173.13 163.79 174.61 165.35 C 175.59 164.45 176.55 163.54 177.53 162.63 C 176.05 161.05 174.57 159.48 173.08 157.91 C 173.72 157.31 174.99 156.10 175.62 155.50 C 177.37 157.35 179.12 159.20 180.87 161.05 C 181.83 160.14 182.78 159.23 183.74 158.32 C 180.91 155.32 178.09 152.31 175.25 149.33 C 170.52 153.78 165.80 158.24 161.07 162.69 M 186.21 169.27 C 182.89 171.02 179.96 174.11 179.29 177.91 C 178.28 183.61 184.27 189.25 189.90 187.65 C 194.22 186.38 198.13 182.67 198.84 178.11 C 199.71 171.72 192.01 165.90 186.21 169.27 M 204.63 180.49 C 199.92 184.96 195.19 189.40 190.47 193.86 C 191.55 195.01 192.64 196.16 193.73 197.32 C 195.27 195.86 196.81 194.41 198.36 192.95 C 200.05 194.59 201.67 196.55 204.05 197.19 C 208.45 198.58 213.63 193.66 211.81 189.21 C 210.29 185.69 207.08 183.33 204.63 180.49 M 202.74 206.88 C 205.64 209.94 208.53 213.02 211.43 216.09 C 212.39 215.18 213.36 214.26 214.33 213.36 C 212.53 211.42 210.71 209.50 208.91 207.58 C 209.88 206.66 210.86 205.75 211.84 204.83 C 213.32 206.41 214.81 207.99 216.30 209.56 C 217.26 208.63 218.22 207.70 219.17 206.77 C 217.69 205.21 216.21 203.65 214.74 202.09 C 215.59 201.28 216.44 200.48 217.30 199.69 C 219.04 201.54 220.78 203.38 222.52 205.24 C 223.48 204.33 224.44 203.42 225.41 202.51 C 222.59 199.50 219.75 196.51 216.92 193.51 C 212.18 197.95 207.47 202.42 202.74 206.88 M 214.00 218.80 C 215.02 219.89 216.04 220.99 217.07 222.08 C 220.50 219.02 223.80 215.81 226.68 212.21 C 224.64 216.93 222.99 221.80 221.33 226.66 C 222.43 227.79 223.52 228.92 224.62 230.06 C 229.35 225.62 234.07 221.17 238.79 216.71 C 237.75 215.61 236.72 214.51 235.70 213.42 C 232.33 216.51 228.99 219.67 226.15 223.27 C 228.23 218.61 229.76 213.75 231.47 208.95 C 230.37 207.78 229.27 206.61 228.18 205.44 C 223.44 209.89 218.73 214.35 214.00 218.80 M 241.80 219.93 C 237.09 224.39 232.36 228.83 227.65 233.29 C 228.67 234.38 229.70 235.48 230.73 236.57 C 234.11 233.49 237.41 230.32 240.29 226.75 C 238.27 231.43 236.68 236.26 234.97 241.05 C 236.06 242.22 237.16 243.38 238.27 244.55 C 242.99 240.09 247.71 235.64 252.44 231.18 C 251.41 230.09 250.38 228.99 249.36 227.90 C 245.98 230.98 242.65 234.12 239.83 237.72 C 241.87 233.05 243.43 228.20 245.12 223.40 C 244.01 222.23 242.91 221.08 241.80 219.93 M 241.30 247.77 C 244.19 250.84 247.09 253.90 249.98 256.98 C 250.95 256.06 251.92 255.15 252.89 254.24 C 251.08 252.32 249.27 250.40 247.46 248.49 C 248.43 247.56 249.41 246.64 250.39 245.72 C 251.87 247.29 253.35 248.86 254.83 250.43 C 255.80 249.52 256.77 248.60 257.74 247.69 C 256.26 246.12 254.77 244.54 253.29 242.98 C 254.14 242.17 254.99 241.37 255.84 240.57 C 257.58 242.42 259.33 244.27 261.07 246.12 C 262.03 245.21 263.00 244.31 263.97 243.41 C 261.13 240.40 258.31 237.39 255.47 234.39 C 250.75 238.85 246.01 243.30 241.30 247.77 M 261.10 256.05 C 261.41 258.21 264.05 261.00 261.89 262.81 C 258.88 262.60 258.10 259.22 257.52 256.85 C 256.12 256.95 254.72 257.05 253.33 257.17 C 253.77 261.50 256.45 266.08 260.99 267.02 C 265.11 268.05 269.27 263.41 267.33 259.47 C 266.96 257.30 264.56 254.90 266.00 252.86 C 268.73 252.11 269.74 255.67 270.41 257.61 C 271.67 257.48 272.92 257.35 274.18 257.23 C 273.83 252.91 270.68 248.31 265.97 248.32 C 262.15 248.20 259.40 252.65 261.10 256.05 M 272.35 264.00 C 271.15 267.51 274.13 270.60 274.22 274.03 C 271.27 276.58 269.27 271.33 268.95 268.97 C 267.55 269.06 266.16 269.15 264.77 269.24 C 265.17 273.76 268.15 278.66 273.01 279.19 C 276.76 279.72 280.41 275.62 278.87 271.98 C 278.51 269.70 276.19 267.32 277.31 265.11 C 279.95 263.92 281.19 267.78 281.81 269.70 C 282.76 269.61 284.65 269.43 285.59 269.34 C 285.19 265.86 283.41 262.28 279.99 260.94 C 277.17 259.56 273.35 260.97 272.35 264.00 M 287.69 281.01 C 287.01 284.37 289.61 287.23 289.77 290.51 C 286.69 293.00 284.85 287.78 284.43 285.38 C 283.38 285.47 281.28 285.64 280.22 285.73 C 280.72 290.12 283.51 294.89 288.21 295.60 C 292.25 296.38 296.16 291.84 294.25 288.02 C 293.79 285.65 290.86 282.55 293.85 280.80 C 295.62 282.15 296.83 283.98 297.33 286.16 C 298.59 286.02 299.85 285.88 301.11 285.74 C 300.67 282.10 298.66 278.32 294.95 277.19 C 292.00 276.04 288.33 277.89 287.69 281.01 M 294.57 297.55 C 290.84 303.25 298.45 311.51 304.44 308.20 C 308.80 305.68 311.99 301.61 315.78 298.35 C 314.73 297.24 313.69 296.13 312.65 295.03 C 309.31 297.94 306.40 301.36 302.79 303.96 C 300.36 305.99 296.63 302.30 298.59 299.88 C 301.39 296.32 305.06 293.56 308.23 290.34 C 307.15 289.19 306.07 288.05 304.99 286.91 C 301.55 290.47 297.33 293.38 294.57 297.55 M 304.52 314.82 C 305.60 315.96 306.69 317.12 307.78 318.27 C 309.33 316.81 310.87 315.36 312.41 313.90 C 314.09 315.50 315.67 317.45 318.01 318.11 C 322.47 319.64 327.78 314.54 325.83 310.04 C 324.27 306.59 321.12 304.25 318.69 301.45 C 313.97 305.91 309.24 310.35 304.52 314.82 M 316.80 327.84 C 317.88 328.99 318.96 330.13 320.05 331.28 C 321.59 329.83 323.13 328.38 324.67 326.92 C 326.29 328.45 327.78 330.29 329.97 331.03 C 334.48 332.88 340.11 327.68 338.10 323.06 C 336.55 319.60 333.39 317.27 330.97 314.46 C 326.24 318.92 321.51 323.37 316.80 327.84 M 340.39 330.54 C 336.58 331.84 333.31 335.00 332.13 338.88 C 330.37 344.63 336.23 350.93 342.09 349.63 C 346.33 348.64 350.02 345.22 351.29 341.06 C 352.98 335.03 346.40 328.52 340.39 330.54 M 343.11 355.73 C 344.19 356.88 345.27 358.04 346.36 359.20 C 348.06 357.59 349.76 355.97 351.50 354.41 C 354.08 357.04 350.71 360.46 350.29 363.38 C 351.50 364.66 352.73 365.92 353.96 367.19 C 354.80 364.49 355.63 361.80 356.46 359.10 C 360.38 359.99 364.98 357.22 365.00 352.97 C 364.37 348.38 360.01 345.73 357.28 342.37 C 352.56 346.83 347.84 351.28 343.11 355.73 M 366.03 357.42 C 367.23 358.69 368.42 359.96 369.62 361.24 C 365.85 364.78 362.09 368.34 358.32 371.88 C 359.41 373.03 360.49 374.18 361.58 375.33 C 365.36 371.80 369.12 368.24 372.88 364.68 C 374.08 365.96 375.29 367.24 376.50 368.53 C 377.45 367.61 378.41 366.70 379.37 365.80 C 375.90 362.09 372.40 358.40 368.92 354.70 C 367.96 355.60 366.99 356.51 366.03 357.42 Z" />
<path fill="#ffffff" opacity="1.00" d=" M 756.63 14.82 C 773.89 12.34 792.16 14.03 807.78 22.20 C 813.58 25.37 820.14 28.60 823.08 34.91 C 825.47 39.84 823.98 45.66 821.02 49.99 C 817.28 55.56 811.97 60.85 805.08 61.96 C 799.48 62.93 794.05 60.53 789.45 57.56 C 777.66 51.50 762.66 52.34 751.50 59.46 C 742.80 65.06 736.25 73.65 732.34 83.17 C 727.32 95.42 726.40 108.95 727.23 122.05 C 728.18 137.03 732.42 152.76 743.35 163.63 C 756.27 176.75 778.41 178.25 793.79 168.71 C 799.10 164.55 806.60 162.31 812.96 165.44 C 819.31 168.64 824.65 174.39 826.79 181.24 C 828.75 187.92 824.92 194.73 819.84 198.89 C 808.18 207.90 793.81 213.13 779.17 214.41 C 760.64 216.02 741.40 212.96 725.04 203.84 C 709.38 195.10 696.24 181.59 688.79 165.21 C 680.04 146.16 678.07 124.67 679.52 103.96 C 681.11 81.55 689.44 59.34 704.69 42.63 C 717.93 27.50 736.69 17.42 756.63 14.82 Z" />
<path fill="#ffffff" opacity="1.00" d=" M 926.56 14.76 C 943.93 12.59 962.08 13.82 978.40 20.52 C 995.84 27.64 1010.32 41.37 1018.91 58.08 C 1026.42 72.54 1029.68 88.87 1030.46 105.05 C 1031.36 124.84 1029.21 145.14 1021.30 163.47 C 1014.64 178.82 1004.02 192.77 989.86 201.91 C 976.91 210.35 961.42 214.22 946.08 214.74 C 929.93 215.38 913.35 212.71 899.00 205.00 C 881.08 195.45 867.46 178.78 860.41 159.86 C 853.04 140.17 851.70 118.71 853.47 97.92 C 855.37 76.46 862.77 54.75 877.96 39.02 C 890.59 25.44 908.23 17.06 926.56 14.76 M 934.17 54.18 C 926.07 55.59 918.73 60.24 913.66 66.66 C 902.91 80.18 900.51 98.22 900.68 114.97 C 900.88 132.19 904.19 150.74 916.10 163.93 C 928.23 177.71 951.71 178.50 965.03 166.03 C 975.46 156.34 980.46 142.21 982.13 128.36 C 983.56 115.77 983.42 102.90 980.73 90.48 C 978.21 79.11 972.83 67.80 963.43 60.56 C 955.26 54.16 944.22 52.37 934.17 54.18 Z" />
<path fill="#ffffff" opacity="1.00" d=" M 497.44 19.34 C 502.81 16.39 509.12 17.63 514.97 17.37 C 521.14 17.62 527.72 16.43 533.50 19.25 C 537.54 21.12 540.55 24.66 542.50 28.59 C 553.54 49.89 564.59 71.19 575.64 92.49 C 579.54 100.26 583.92 107.81 587.32 115.82 C 592.55 127.64 597.81 139.43 603.03 151.25 C 603.35 152.30 604.14 153.06 605.06 153.61 C 602.56 130.78 599.50 107.97 598.79 84.99 C 598.70 69.66 598.77 54.33 598.75 39.00 C 598.78 33.13 600.15 26.76 604.58 22.58 C 608.93 18.46 615.19 17.30 620.99 17.35 C 626.77 17.32 633.02 18.51 637.32 22.66 C 641.69 26.82 643.04 33.13 643.06 38.96 C 643.05 90.97 643.09 142.98 643.05 194.99 C 643.09 200.90 639.88 206.89 634.47 209.50 C 629.05 212.19 622.83 210.98 617.03 211.25 C 611.06 210.96 604.80 212.14 599.10 209.89 C 595.23 208.34 592.30 205.08 590.50 201.39 C 576.30 173.61 562.04 145.86 547.86 118.07 C 541.54 104.18 535.54 90.14 529.23 76.25 C 528.85 75.82 528.08 74.98 527.70 74.56 C 529.73 98.34 533.35 122.04 533.44 145.96 C 533.44 160.32 533.44 174.69 533.44 189.05 C 533.43 194.78 532.35 200.98 528.29 205.31 C 524.20 209.77 517.87 211.17 512.04 211.26 C 506.01 211.36 499.45 210.29 494.91 206.00 C 490.62 201.93 489.18 195.76 489.13 190.04 C 489.12 138.01 489.12 85.98 489.13 33.96 C 488.99 28.05 492.13 22.09 497.44 19.34 Z" />
<path fill="#ffffff" opacity="1.00" d=" M 1056.53 17.78 C 1063.30 16.93 1070.17 17.56 1076.99 17.38 C 1084.56 17.27 1091.93 22.53 1093.86 29.93 C 1100.37 55.55 1106.60 81.25 1113.12 106.88 C 1118.79 127.03 1122.44 147.72 1128.23 167.83 C 1128.46 167.77 1128.94 167.67 1129.17 167.61 C 1134.74 147.28 1138.75 126.54 1144.10 106.14 C 1150.47 80.76 1156.71 55.33 1163.13 29.95 C 1164.96 22.92 1171.71 17.73 1178.91 17.43 C 1184.28 17.30 1189.66 17.37 1195.04 17.39 C 1199.54 17.43 1204.43 19.06 1206.96 23.02 C 1209.52 26.88 1209.23 31.86 1208.00 36.14 C 1192.54 87.58 1177.06 139.01 1161.59 190.45 C 1159.71 196.40 1158.63 203.32 1153.24 207.28 C 1146.48 212.99 1137.15 210.84 1129.06 211.25 C 1121.76 210.90 1114.29 212.06 1107.11 210.47 C 1101.77 208.79 1097.36 204.37 1095.94 198.93 C 1079.68 144.85 1063.41 90.78 1047.12 36.71 C 1045.86 32.52 1045.37 27.69 1047.66 23.76 C 1049.46 20.48 1052.94 18.48 1056.53 17.78 Z" />
<path fill="#ffffff" opacity="1.00" d=" M 1259.75 17.50 C 1265.41 17.50 1271.08 17.50 1276.75 17.50 C 1276.74 160.17 1276.76 302.84 1276.74 445.51 C 1271.07 445.50 1265.41 445.50 1259.75 445.50 C 1259.75 302.83 1259.75 160.17 1259.75 17.50 Z" />
<path fill="#ffffff" opacity="1.00" d=" M 1494.44 19.65 C 1500.67 17.64 1508.78 18.75 1512.67 24.53 C 1516.63 30.55 1515.09 39.97 1508.53 43.52 C 1502.63 46.63 1494.46 46.29 1489.49 41.56 C 1483.05 35.21 1485.34 22.24 1494.44 19.65 Z" />
<path fill="#ffffff" opacity="1.00" d=" M 1411.80 72.90 C 1424.62 53.95 1454.65 48.39 1472.27 63.79 C 1468.23 69.30 1464.18 74.80 1460.14 80.31 C 1456.89 77.91 1453.15 75.67 1448.96 75.99 C 1442.81 75.97 1436.83 79.48 1434.00 84.95 C 1430.36 91.92 1430.13 100.39 1432.32 107.85 C 1434.14 114.08 1439.16 119.74 1445.81 120.74 C 1452.09 121.89 1458.17 118.88 1463.04 115.16 C 1466.41 120.85 1469.73 126.57 1473.14 132.24 C 1458.98 144.41 1436.50 145.32 1421.19 134.76 C 1412.65 128.86 1407.16 119.22 1405.32 109.11 C 1403.01 96.83 1404.53 83.33 1411.80 72.90 Z" />
<path fill="#ffffff" opacity="1.00" d=" M 1556.31 57.12 C 1569.83 52.29 1587.01 55.17 1596.10 66.96 C 1604.54 77.97 1605.83 92.92 1603.39 106.19 C 1587.11 106.20 1570.83 106.16 1554.55 106.21 C 1555.82 112.00 1559.17 117.69 1564.83 120.09 C 1573.93 124.10 1584.55 121.87 1592.83 116.91 C 1595.70 122.14 1598.59 127.35 1601.47 132.58 C 1587.49 142.21 1568.50 145.20 1552.78 138.16 C 1542.71 133.76 1534.95 124.72 1531.78 114.23 C 1528.48 103.42 1528.58 91.45 1532.58 80.83 C 1536.63 70.03 1545.39 60.99 1556.31 57.12 M 1558.06 80.03 C 1555.89 82.60 1554.88 85.86 1554.09 89.06 C 1563.55 89.07 1573.01 89.06 1582.48 89.06 C 1582.29 84.74 1581.35 79.90 1577.63 77.20 C 1571.68 73.09 1562.55 74.29 1558.06 80.03 Z" />
<path fill="#ffffff" opacity="1.00" d=" M 1644.19 67.53 C 1650.00 61.98 1656.83 57.01 1664.89 55.51 C 1673.09 53.97 1682.62 55.17 1688.67 61.43 C 1695.13 68.16 1696.69 77.97 1696.92 86.94 C 1696.96 104.62 1696.92 122.31 1696.94 140.00 C 1688.27 140.00 1679.60 140.00 1670.94 140.00 C 1670.93 124.00 1670.94 107.99 1670.94 91.99 C 1670.81 88.07 1670.82 83.84 1668.71 80.39 C 1666.66 77.12 1662.31 76.81 1658.87 77.32 C 1654.10 77.93 1650.48 81.37 1647.10 84.46 C 1647.02 102.97 1647.08 121.49 1647.06 140.00 C 1638.39 140.00 1629.72 140.00 1621.06 140.00 C 1621.06 112.31 1621.06 84.62 1621.06 56.94 C 1628.12 56.94 1635.18 56.94 1642.25 56.94 C 1642.89 60.47 1643.54 64.00 1644.19 67.53 Z" />
<path fill="#ffffff" opacity="1.00" d=" M 1719.35 73.55 C 1731.94 54.09 1762.44 48.21 1780.27 63.79 C 1776.23 69.30 1772.18 74.80 1768.14 80.31 C 1765.15 78.16 1761.86 76.02 1758.06 75.99 C 1751.78 75.64 1745.41 78.86 1742.32 84.39 C 1738.47 91.18 1738.14 99.56 1740.06 107.00 C 1741.68 113.27 1746.35 119.16 1752.91 120.57 C 1759.44 122.15 1765.95 119.08 1771.03 115.15 C 1774.39 120.87 1777.77 126.58 1781.14 132.29 C 1767.30 144.05 1745.76 145.26 1730.47 135.63 C 1721.86 130.20 1716.02 121.06 1713.77 111.23 C 1710.89 98.61 1712.07 84.52 1719.35 73.55 Z" />
<path fill="#ffffff" opacity="1.00" d=" M 1792.66 84.08 C 1796.75 69.42 1809.58 57.34 1824.83 55.28 C 1836.35 53.68 1849.22 56.98 1856.75 66.30 C 1865.67 77.32 1867.07 92.67 1864.57 106.19 C 1848.29 106.20 1832.01 106.17 1815.73 106.20 C 1816.99 111.91 1820.25 117.54 1825.80 119.99 C 1834.93 124.14 1845.68 121.92 1854.01 116.91 C 1856.88 122.14 1859.79 127.36 1862.64 132.61 C 1846.38 143.89 1822.71 145.95 1806.42 133.68 C 1791.51 122.47 1787.70 101.28 1792.66 84.08 M 1820.10 79.05 C 1817.40 81.75 1816.14 85.44 1815.27 89.06 C 1824.73 89.07 1834.20 89.06 1843.67 89.06 C 1843.50 84.54 1842.37 79.40 1838.27 76.83 C 1832.66 73.45 1824.68 74.28 1820.10 79.05 Z" />
<path fill="#ffffff" opacity="1.00" d=" M 210.54 64.62 C 225.22 53.64 247.88 55.08 260.69 68.34 C 266.32 74.40 271.88 80.54 277.36 86.73 C 280.47 89.51 285.09 89.54 289.01 89.12 C 295.09 88.04 301.27 87.40 307.21 85.64 C 320.33 83.79 334.15 89.21 342.65 99.37 C 348.99 106.69 352.18 116.31 352.58 125.92 C 353.50 131.32 352.32 137.52 355.87 142.15 C 356.87 143.50 358.06 144.73 359.50 145.63 C 368.56 150.24 378.98 152.46 386.84 159.23 C 398.34 168.60 404.13 184.55 400.77 199.08 C 399.13 207.24 393.97 213.97 390.04 221.13 C 387.27 225.89 383.17 231.09 385.37 236.94 C 388.22 243.07 392.11 248.68 395.37 254.60 C 401.29 264.19 403.02 276.24 399.93 287.10 C 396.89 298.34 388.81 308.20 378.15 313.00 C 373.22 315.14 368.23 317.15 363.28 319.23 C 356.82 312.36 350.33 305.53 343.87 298.66 C 350.70 294.92 358.16 292.55 365.21 289.28 C 371.28 286.06 374.29 278.21 371.39 271.87 C 366.61 262.47 359.41 254.06 357.31 243.50 C 355.58 234.97 356.33 225.89 359.80 217.89 C 363.47 210.17 368.57 203.20 372.31 195.52 C 373.78 190.37 372.27 183.45 367.07 180.90 C 360.23 177.49 352.92 175.11 346.03 171.80 C 335.71 166.62 328.00 156.50 325.95 145.11 C 324.90 138.80 324.83 132.37 323.94 126.04 C 322.81 119.19 315.99 113.93 309.05 114.68 C 302.26 115.58 295.42 116.55 288.81 118.38 C 276.15 120.16 263.51 114.19 254.76 105.31 C 249.94 100.07 245.14 94.81 240.43 89.47 C 237.60 86.32 232.81 86.31 228.96 87.06 C 223.62 88.37 220.68 93.40 217.04 97.05 C 211.80 102.44 207.43 108.87 200.89 112.82 C 192.52 117.96 181.99 120.29 172.47 117.22 C 162.95 107.02 153.27 96.98 143.79 86.75 C 147.80 85.83 151.93 85.01 156.06 85.41 C 162.98 86.83 169.99 87.72 176.94 88.98 C 181.24 89.86 185.97 89.14 189.48 86.40 C 196.86 79.51 202.61 70.94 210.54 64.62 Z" />
<path fill="#ffffff" opacity="1.00" d=" M 1487.31 56.94 C 1495.97 56.94 1504.64 56.94 1513.31 56.94 C 1513.31 84.63 1513.31 112.31 1513.31 140.00 C 1504.64 140.00 1495.97 140.00 1487.31 140.00 C 1487.31 112.31 1487.31 84.62 1487.31 56.94 Z" />
<path fill="#ffffff" opacity="1.00" d=" M 192.32 138.19 C 208.65 135.29 226.20 139.33 239.21 149.73 C 257.02 163.45 265.33 187.92 259.89 209.70 C 237.32 185.90 214.83 162.03 192.32 138.19 Z" />
<path fill="#ffffff" opacity="1.00" d=" M 113.01 139.47 C 119.32 146.19 125.67 152.86 131.98 159.59 C 127.93 165.08 122.72 169.83 116.45 172.64 C 110.97 175.03 105.39 177.22 99.89 179.57 C 93.58 182.38 90.06 190.09 92.56 196.65 C 96.52 204.75 102.23 211.98 105.47 220.44 C 108.98 230.47 108.64 241.84 104.38 251.59 C 100.75 258.99 96.01 265.80 92.22 273.12 C 90.16 278.49 91.95 285.94 97.49 288.53 C 104.09 291.74 111.08 294.12 117.74 297.22 C 128.54 302.43 136.55 313.02 138.45 324.88 C 139.33 330.90 139.49 337.00 140.29 343.03 C 141.33 349.88 148.06 355.27 155.00 354.58 C 160.43 354.06 165.80 352.96 171.17 352.01 C 180.74 348.74 191.38 351.32 199.85 356.37 C 208.94 361.62 215.03 370.42 222.15 377.89 C 226.30 383.97 236.02 384.05 241.00 378.97 C 246.08 373.71 250.75 368.06 255.88 362.85 C 263.66 355.53 274.07 350.28 284.95 350.64 C 291.96 352.03 299.04 352.99 306.08 354.24 C 309.22 354.83 312.44 354.60 315.55 353.97 C 321.99 360.75 328.43 367.54 334.81 374.38 C 326.58 379.68 316.20 382.94 306.49 380.32 C 300.67 379.44 294.88 378.40 289.07 377.48 C 284.74 376.72 280.14 377.88 276.81 380.77 C 270.26 387.21 264.75 394.69 257.89 400.82 C 243.37 412.94 219.78 412.01 206.47 398.49 C 200.67 392.30 195.02 385.97 189.37 379.65 C 186.28 377.14 181.95 377.11 178.17 377.45 C 171.77 378.49 165.32 379.32 159.07 381.08 C 148.40 382.30 137.27 378.93 129.07 371.98 C 120.98 365.25 115.82 355.24 114.74 344.80 C 114.29 340.19 113.92 335.57 113.50 330.96 C 113.20 325.85 109.40 321.29 104.64 319.62 C 95.56 315.60 85.50 312.90 78.25 305.75 C 65.82 294.44 61.51 275.02 68.78 259.74 C 72.45 252.59 76.85 245.85 80.74 238.83 C 82.30 235.97 82.57 232.45 81.46 229.39 C 76.71 219.19 68.77 210.38 66.41 199.14 C 63.28 185.09 68.22 169.57 79.00 160.01 C 87.20 152.47 98.54 150.34 108.16 145.29 C 110.40 143.96 111.80 141.71 113.01 139.47 Z" />
<path fill="#ffffff" opacity="1.00" d=" M 189.24 173.16 C 192.51 171.50 195.99 175.83 193.77 178.71 C 192.11 181.59 187.90 185.09 184.72 182.35 C 181.81 178.88 185.99 174.51 189.24 173.16 Z" />
<path fill="#ffffff" opacity="1.00" d=" M 147.59 176.13 C 171.57 201.48 195.53 226.85 219.47 252.24 C 207.36 255.83 194.08 255.45 182.28 250.87 C 165.83 244.66 152.51 230.76 147.03 214.04 C 142.91 201.81 143.23 188.25 147.59 176.13 Z" />
<path fill="#ffffff" opacity="1.00" d=" M 201.08 190.40 C 202.45 189.08 203.84 187.77 205.24 186.48 C 206.38 188.02 209.05 190.10 207.06 192.05 C 205.06 194.46 202.57 192.00 201.08 190.40 Z" />
<path fill="#ffffff" opacity="1.00" d=" M 1468.50 191.74 C 1478.47 188.48 1490.23 190.88 1497.78 198.28 C 1504.71 204.95 1508.03 214.50 1509.19 223.87 C 1510.64 236.34 1509.18 249.63 1502.63 260.57 C 1496.96 270.27 1486.44 277.51 1474.97 277.46 C 1467.63 277.61 1460.78 273.98 1455.59 269.02 C 1456.82 281.19 1456.36 293.42 1456.44 305.62 C 1447.77 305.63 1439.10 305.63 1430.44 305.63 C 1430.43 267.88 1430.43 230.12 1430.44 192.37 C 1437.50 192.37 1444.58 192.37 1451.65 192.37 C 1452.29 195.11 1452.93 197.85 1453.62 200.58 C 1458.02 196.82 1462.93 193.50 1468.50 191.74 M 1456.44 218.49 C 1456.44 229.46 1456.43 240.43 1456.44 251.39 C 1460.99 255.23 1467.50 257.46 1473.29 255.24 C 1478.80 253.00 1481.32 246.95 1482.26 241.46 C 1483.29 234.51 1483.36 227.23 1481.35 220.44 C 1480.06 215.75 1476.01 211.73 1470.97 211.60 C 1465.18 210.84 1460.13 214.44 1456.44 218.49 Z" />
<path fill="#ffffff" opacity="1.00" d=" M 1549.14 192.34 C 1562.41 187.84 1579.01 190.67 1588.07 201.99 C 1596.77 213.00 1598.12 228.15 1595.68 241.55 C 1579.38 241.59 1563.09 241.54 1546.79 241.58 C 1548.09 247.28 1551.30 252.93 1556.85 255.39 C 1565.99 259.57 1576.75 257.34 1585.10 252.32 C 1587.97 257.55 1590.86 262.77 1593.74 268.00 C 1579.59 277.75 1560.27 280.69 1544.46 273.30 C 1534.29 268.67 1526.67 259.27 1523.71 248.57 C 1520.46 236.73 1521.03 223.57 1526.51 212.48 C 1531.06 203.18 1539.30 195.67 1549.14 192.34 M 1550.82 214.87 C 1548.36 217.50 1547.22 221.00 1546.36 224.41 C 1555.82 224.46 1565.30 224.43 1574.77 224.42 C 1574.55 219.98 1573.51 214.98 1569.54 212.36 C 1563.77 208.73 1555.36 209.71 1550.82 214.87 Z" />
<path fill="#ffffff" opacity="1.00" d=" M 1825.50 193.28 C 1839.22 187.49 1857.27 189.98 1866.90 202.00 C 1875.62 213.00 1876.92 228.15 1874.51 241.55 C 1858.21 241.59 1841.92 241.53 1825.62 241.58 C 1826.89 247.20 1830.03 252.76 1835.44 255.28 C 1844.61 259.60 1855.51 257.39 1863.93 252.32 C 1866.80 257.55 1869.69 262.77 1872.57 268.01 C 1858.71 277.53 1839.97 280.57 1824.33 273.77 C 1814.89 269.76 1807.33 261.74 1803.75 252.15 C 1800.04 242.26 1799.59 231.21 1802.16 220.99 C 1805.20 208.86 1813.87 198.11 1825.50 193.28 M 1829.25 215.34 C 1827.03 217.90 1826.02 221.20 1825.18 224.41 C 1834.66 224.45 1844.14 224.45 1853.62 224.42 C 1853.35 220.01 1852.36 215.01 1848.41 212.39 C 1842.48 208.61 1833.70 209.77 1829.25 215.34 Z" />
<path fill="#ffffff" opacity="1.00" d=" M 1970.16 200.13 C 1975.26 194.46 1982.79 191.56 1990.24 190.67 C 2002.11 189.17 2014.67 192.36 2024.04 199.90 C 2024.53 200.01 2025.51 200.23 2026.00 200.35 L 2026.00 201.48 C 2021.48 205.94 2018.26 211.54 2014.29 216.48 C 2007.89 212.16 2000.11 207.77 1992.16 210.16 C 1988.30 211.03 1986.89 216.54 1989.99 219.07 C 1993.90 222.36 1999.11 223.40 2003.78 225.24 C 2011.42 228.06 2019.49 232.02 2023.47 239.54 C 2029.28 250.88 2024.67 266.21 2013.39 272.27 C 1996.28 281.64 1974.23 277.65 1959.31 265.84 C 1963.15 260.40 1967.02 254.98 1970.89 249.55 C 1977.60 254.41 1985.43 259.02 1994.05 258.20 C 1997.29 258.06 2001.27 256.42 2001.62 252.73 C 2002.17 249.89 1999.81 247.64 1997.56 246.41 C 1991.17 242.84 1983.86 241.28 1977.56 237.52 C 1971.90 234.33 1966.77 229.47 1964.93 223.07 C 1962.73 215.21 1964.59 206.19 1970.16 200.13 Z" />
<path fill="#ffffff" opacity="1.00" d=" M 1636.48 202.95 C 1642.21 197.44 1648.97 192.52 1656.92 190.98 C 1665.23 189.31 1674.93 190.57 1681.04 196.94 C 1687.33 203.59 1688.94 213.18 1689.18 221.99 C 1689.20 239.81 1689.18 257.62 1689.19 275.44 C 1680.52 275.44 1671.85 275.44 1663.19 275.44 C 1663.18 258.95 1663.20 242.46 1663.18 225.97 C 1663.01 222.37 1662.85 218.45 1660.70 215.41 C 1658.51 212.44 1654.37 212.27 1651.04 212.75 C 1646.27 213.43 1642.59 216.84 1639.28 220.07 C 1639.35 238.52 1639.29 256.98 1639.31 275.44 C 1630.64 275.44 1621.98 275.44 1613.31 275.44 C 1613.30 247.75 1613.31 220.06 1613.31 192.37 C 1620.38 192.37 1627.45 192.37 1634.53 192.37 C 1635.16 195.90 1635.80 199.43 1636.48 202.95 Z" />
<path fill="#ffffff" opacity="1.00" d=" M 1732.43 202.95 C 1738.18 197.43 1744.95 192.49 1752.94 190.97 C 1761.46 189.26 1771.47 190.68 1777.50 197.48 C 1783.61 204.41 1784.99 214.09 1785.17 223.00 C 1785.21 240.48 1785.17 257.96 1785.19 275.44 C 1776.50 275.44 1767.81 275.44 1759.13 275.44 C 1759.12 258.97 1759.13 242.50 1759.12 226.03 C 1758.99 222.42 1758.81 218.49 1756.67 215.42 C 1755.14 213.29 1752.40 212.56 1749.92 212.55 C 1744.13 212.28 1738.83 215.90 1735.38 220.22 C 1735.21 238.62 1735.36 257.03 1735.31 275.44 C 1726.62 275.44 1717.94 275.43 1709.26 275.44 C 1709.24 247.75 1709.25 220.06 1709.25 192.37 C 1716.32 192.37 1723.40 192.37 1730.48 192.37 C 1731.12 195.90 1731.76 199.42 1732.43 202.95 Z" />
<path fill="#ffffff" opacity="1.00" d=" M 1895.94 199.97 C 1901.33 194.10 1909.28 191.26 1917.07 190.54 C 1929.38 189.15 1941.83 193.36 1951.47 200.97 C 1947.61 206.14 1943.75 211.32 1939.90 216.50 C 1933.45 212.05 1925.40 207.62 1917.39 210.30 C 1913.96 211.34 1912.72 216.18 1915.26 218.71 C 1917.93 221.37 1921.69 222.43 1925.14 223.74 C 1932.60 226.29 1940.41 229.16 1945.93 235.06 C 1952.43 241.98 1953.06 252.90 1949.23 261.29 C 1946.00 268.34 1939.22 273.18 1931.94 275.37 C 1915.93 280.36 1897.94 276.13 1884.95 265.82 C 1888.78 260.38 1892.67 254.97 1896.51 249.53 C 1902.30 253.72 1908.74 257.68 1916.05 258.23 C 1919.18 258.39 1922.70 258.28 1925.32 256.28 C 1927.69 254.39 1928.05 250.35 1925.71 248.29 C 1921.90 244.91 1916.82 243.61 1912.22 241.70 C 1905.26 239.03 1898.16 235.51 1893.67 229.34 C 1887.35 220.67 1888.72 207.69 1895.94 199.97 Z" />
<path fill="#ffffff" opacity="1.00" d=" M 284.82 236.14 C 291.32 230.41 300.55 227.85 309.01 230.00 C 319.36 232.37 327.73 241.47 329.19 251.99 C 330.57 260.34 327.45 269.04 321.56 275.03 C 309.29 262.08 297.06 249.10 284.82 236.14 Z" />
<path fill="#ffffff" opacity="1.00" d=" M 668.37 259.44 C 671.14 254.68 676.56 251.79 682.03 251.77 C 700.35 251.72 718.67 251.77 736.99 251.74 C 755.63 251.77 775.41 254.07 791.22 264.78 C 802.93 272.58 810.16 285.83 812.14 299.59 C 814.29 314.78 813.27 331.05 806.04 344.84 C 800.47 355.59 790.79 363.76 779.89 368.77 C 790.75 388.32 801.86 407.72 812.77 427.24 C 814.82 431.09 816.43 436.01 814.19 440.13 C 811.81 444.38 806.53 445.50 802.03 445.61 C 795.11 445.63 788.18 445.68 781.26 445.58 C 774.88 445.46 768.77 441.75 765.85 436.06 C 755.51 416.54 745.27 396.96 734.95 377.43 C 727.50 377.45 720.06 377.43 712.63 377.44 C 712.62 392.93 712.65 408.41 712.61 423.90 C 712.49 430.08 710.72 436.75 705.77 440.84 C 700.60 445.10 693.54 445.88 687.07 445.57 C 681.26 445.29 675.08 443.58 671.13 439.06 C 667.05 434.45 665.99 428.04 666.00 422.08 C 665.99 371.37 666.01 320.66 665.99 269.95 C 665.96 266.33 666.43 262.57 668.37 259.44 M 712.63 288.69 C 712.63 305.96 712.63 323.23 712.63 340.50 C 724.70 340.04 737.08 341.80 748.90 338.58 C 756.70 336.56 763.72 330.79 765.90 322.83 C 767.94 315.33 768.07 306.78 764.32 299.78 C 760.82 293.52 753.55 290.91 746.88 289.72 C 735.55 287.89 724.04 288.99 712.63 288.69 Z" />
<path fill="#ffffff" opacity="1.00" d=" M 868.39 268.10 C 868.08 259.56 875.39 251.76 883.99 251.78 C 911.00 251.70 938.01 251.77 965.02 251.75 C 971.23 251.85 977.93 251.00 983.56 254.25 C 988.14 256.79 990.57 261.95 991.08 267.00 C 991.69 272.93 991.32 279.52 987.58 284.44 C 984.20 288.85 978.37 290.39 973.05 290.43 C 953.70 290.45 934.35 290.44 915.00 290.44 C 914.99 302.37 915.00 314.31 915.00 326.25 C 928.66 326.25 942.32 326.26 955.99 326.25 C 961.62 326.18 967.74 326.02 972.66 329.23 C 977.29 332.11 979.40 337.64 979.75 342.88 C 980.16 348.67 979.63 355.07 975.82 359.74 C 972.25 364.08 966.35 365.47 960.98 365.50 C 945.65 365.51 930.33 365.50 915.01 365.50 C 914.99 379.12 915.00 392.75 915.00 406.37 C 935.01 406.38 955.03 406.36 975.04 406.38 C 980.23 406.42 985.85 407.55 989.60 411.42 C 993.56 415.48 994.49 421.49 994.37 426.95 C 994.25 432.04 992.98 437.54 989.09 441.11 C 985.32 444.59 979.99 445.60 975.02 445.63 C 945.03 445.62 915.04 445.63 885.06 445.62 C 880.42 445.64 875.69 443.92 872.58 440.41 C 869.47 437.11 868.27 432.49 868.37 428.05 C 868.39 374.74 868.34 321.42 868.39 268.10 Z" />
<path fill="#ffffff" opacity="1.00" d=" M 1061.47 252.64 C 1067.16 251.00 1073.16 252.03 1079.00 251.75 C 1097.02 252.07 1115.23 250.61 1133.06 253.96 C 1152.53 257.37 1171.64 266.23 1184.66 281.43 C 1196.68 295.43 1202.16 313.84 1203.88 331.93 C 1205.53 350.94 1204.66 370.48 1198.77 388.75 C 1194.10 403.35 1185.31 416.73 1173.11 426.13 C 1156.25 439.59 1134.36 445.12 1113.10 445.58 C 1097.06 445.70 1081.03 445.58 1065.00 445.64 C 1060.85 445.77 1056.40 444.57 1053.69 441.25 C 1051.23 438.47 1050.55 434.64 1050.62 431.05 C 1050.63 379.37 1050.62 327.69 1050.62 276.01 C 1050.72 271.69 1050.20 267.26 1051.41 263.04 C 1052.78 258.20 1056.68 254.19 1061.47 252.64 M 1097.25 288.94 C 1097.25 328.69 1097.25 368.44 1097.25 408.19 C 1112.54 408.78 1129.24 406.65 1141.05 396.00 C 1150.55 387.80 1154.52 375.15 1156.06 363.07 C 1157.48 350.77 1157.39 338.20 1155.03 326.01 C 1153.01 315.81 1148.46 305.50 1139.83 299.23 C 1127.79 289.96 1111.93 288.46 1097.25 288.94 Z" />
<path fill="#ffffff" opacity="1.00" d=" M 205.11 283.04 C 215.80 280.35 227.53 288.16 229.19 299.04 C 231.40 309.59 223.56 320.82 212.91 322.37 C 202.35 324.52 191.20 316.59 189.71 305.94 C 187.74 295.79 194.98 285.05 205.11 283.04 Z" />
<path fill="#ffffff" opacity="1.00" d=" M 1861.81 327.79 C 1862.78 320.44 1863.75 313.09 1864.73 305.75 C 1871.90 305.75 1879.07 305.75 1886.25 305.75 C 1886.25 313.10 1886.25 320.46 1886.25 327.81 C 1892.74 327.81 1899.24 327.81 1905.75 327.81 C 1905.74 334.58 1905.74 341.35 1905.75 348.13 C 1899.24 348.13 1892.74 348.12 1886.25 348.13 C 1886.27 359.07 1886.20 370.02 1886.28 380.97 C 1886.36 384.92 1887.72 389.38 1891.45 391.35 C 1895.50 393.52 1900.20 392.26 1904.34 390.99 C 1905.67 397.27 1907.06 403.55 1908.41 409.83 C 1898.67 412.79 1887.99 414.27 1878.10 411.22 C 1870.96 409.07 1865.25 403.28 1862.79 396.29 C 1859.23 386.94 1860.39 376.78 1860.19 367.01 C 1860.18 360.71 1860.18 354.42 1860.19 348.13 C 1856.45 348.12 1852.72 348.12 1849.00 348.13 C 1848.99 341.69 1848.99 335.25 1849.00 328.81 C 1853.26 328.46 1857.53 328.13 1861.81 327.79 Z" />
<path fill="#ffffff" opacity="1.00" d=" M 319.26 307.45 C 320.48 308.95 323.16 311.19 321.04 313.04 C 319.08 315.43 316.59 312.91 315.14 311.37 C 316.50 310.04 317.88 308.74 319.26 307.45 Z" />
<path fill="#ffffff" opacity="1.00" d=" M 331.54 320.46 C 332.80 321.99 335.52 324.35 333.19 326.19 C 331.19 328.40 328.86 325.85 327.42 324.37 C 328.78 323.05 330.16 321.75 331.54 320.46 Z" />
<path fill="#ffffff" opacity="1.00" d=" M 1542.20 327.24 C 1552.13 323.89 1563.90 326.19 1571.52 333.50 C 1578.76 340.38 1582.15 350.34 1583.21 360.07 C 1584.89 375.35 1581.91 392.39 1570.60 403.58 C 1563.97 410.23 1554.25 414.03 1544.85 412.56 C 1538.98 411.66 1533.75 408.43 1529.51 404.38 C 1530.75 416.55 1530.30 428.79 1530.38 441.00 C 1521.70 441.00 1513.03 441.00 1504.37 441.00 C 1504.38 403.27 1504.37 365.54 1504.38 327.81 C 1511.44 327.81 1518.52 327.81 1525.60 327.81 C 1526.23 330.54 1526.88 333.27 1527.55 336.00 C 1531.89 332.30 1536.71 329.01 1542.20 327.24 M 1530.45 354.19 C 1530.27 365.05 1530.43 375.93 1530.37 386.80 C 1535.74 391.52 1544.76 393.71 1550.57 388.56 C 1556.54 382.81 1556.97 373.78 1556.85 366.00 C 1556.53 359.87 1555.77 352.48 1550.24 348.71 C 1543.53 344.61 1534.59 348.06 1530.45 354.19 Z" />
<path fill="#ffffff" opacity="1.00" d=" M 1638.32 327.19 C 1648.24 323.91 1659.98 326.24 1667.55 333.58 C 1674.21 339.92 1677.60 348.96 1678.89 357.92 C 1680.20 367.54 1679.77 377.53 1676.73 386.80 C 1673.99 395.06 1668.92 402.75 1661.61 407.62 C 1654.55 412.40 1645.28 414.35 1637.08 411.65 C 1632.66 410.25 1628.82 407.52 1625.47 404.40 C 1626.71 416.56 1626.33 428.79 1626.38 441.00 C 1617.68 441.00 1608.99 441.00 1600.31 441.00 C 1600.31 403.27 1600.31 365.54 1600.31 327.81 C 1607.38 327.81 1614.46 327.81 1621.55 327.81 C 1622.18 330.54 1622.83 333.26 1623.50 335.99 C 1627.89 332.26 1632.77 328.95 1638.32 327.19 M 1626.40 353.79 C 1626.34 364.80 1626.40 375.81 1626.37 386.82 C 1631.15 390.92 1638.31 393.13 1644.23 390.18 C 1649.92 387.04 1651.90 380.16 1652.54 374.12 C 1653.05 367.06 1653.21 359.52 1650.04 353.00 C 1648.07 348.89 1643.44 346.63 1638.99 346.95 C 1633.90 346.98 1629.76 350.33 1626.40 353.79 Z" />
<path fill="#ffffff" opacity="1.00" d=" M 1723.54 326.68 C 1734.79 324.19 1747.11 326.66 1756.36 333.61 C 1764.29 339.45 1769.69 348.39 1771.74 357.98 C 1775.24 373.97 1771.29 392.50 1758.40 403.36 C 1744.13 415.93 1720.87 415.99 1706.47 403.62 C 1691.10 390.82 1687.95 367.46 1695.53 349.63 C 1700.45 338.05 1711.22 329.24 1723.54 326.68 M 1729.15 347.16 C 1722.37 348.66 1719.43 355.97 1718.69 362.17 C 1717.87 370.19 1717.75 378.95 1721.91 386.15 C 1725.68 392.82 1736.13 393.80 1741.18 388.10 C 1745.25 383.43 1746.04 376.90 1746.30 370.94 C 1746.37 364.43 1745.97 357.40 1742.23 351.82 C 1739.46 347.60 1733.92 345.95 1729.15 347.16 Z" />
<path fill="#ffffff" opacity="1.00" d=" M 1826.20 328.33 C 1832.37 324.98 1839.93 325.07 1846.44 327.39 C 1845.04 334.88 1843.60 342.36 1842.20 349.85 C 1837.60 348.83 1832.69 347.77 1828.11 349.38 C 1821.86 351.55 1817.46 357.27 1815.32 363.33 C 1815.01 379.14 1815.27 394.99 1815.19 410.81 C 1806.52 410.81 1797.85 410.81 1789.19 410.81 C 1789.19 383.14 1789.19 355.48 1789.19 327.81 C 1796.25 327.81 1803.33 327.81 1810.40 327.81 C 1811.03 332.72 1811.70 337.63 1812.32 342.55 C 1815.77 336.85 1820.12 331.39 1826.20 328.33 Z" />
<path fill="#ffffff" opacity="1.00" d=" M 1408.13 327.81 C 1416.79 327.81 1425.45 327.81 1434.12 327.81 C 1434.13 343.85 1434.11 359.90 1434.14 375.94 C 1434.26 379.86 1434.27 384.11 1436.49 387.52 C 1438.27 390.28 1441.85 390.84 1444.90 390.61 C 1450.33 390.44 1455.25 386.46 1457.50 381.75 C 1457.65 363.78 1457.51 345.79 1457.56 327.81 C 1466.22 327.81 1474.89 327.81 1483.56 327.81 C 1483.57 355.48 1483.56 383.14 1483.57 410.81 C 1476.50 410.81 1469.43 410.81 1462.37 410.81 C 1461.71 406.90 1461.10 402.99 1460.36 399.11 C 1455.30 405.04 1449.02 410.47 1441.19 412.11 C 1432.55 413.96 1422.33 412.74 1416.06 405.96 C 1409.92 399.27 1408.39 389.78 1408.15 381.03 C 1408.08 363.29 1408.14 345.55 1408.13 327.81 Z" />
<path fill="#ffffff" opacity="1.00" d=" M 340.55 335.71 C 343.06 333.37 347.75 335.47 347.01 339.01 C 346.00 342.66 341.32 346.93 337.55 344.40 C 334.53 341.53 337.83 337.39 340.55 335.71 Z" />
<path fill="#ffffff" opacity="1.00" d=" M 357.82 348.39 C 358.79 349.59 360.12 350.62 360.58 352.15 C 360.72 353.61 359.28 354.56 358.05 354.90 C 356.32 354.58 355.25 353.09 354.02 352.00 C 355.28 350.79 356.55 349.59 357.82 348.39 Z" />
</g>
<g id="#ff0c00ff">
<path fill="#ff0c00" opacity="1.00" d=" M 1338.80 31.88 C 1356.26 25.99 1376.76 30.73 1389.89 43.66 C 1385.54 49.13 1381.20 54.61 1376.84 60.07 C 1371.60 56.22 1365.71 52.91 1359.17 52.09 C 1354.46 51.51 1349.22 51.42 1345.10 54.09 C 1341.13 56.53 1340.43 62.84 1344.04 65.90 C 1348.49 69.72 1354.34 71.21 1359.63 73.49 C 1367.77 76.98 1376.75 79.28 1383.51 85.30 C 1394.32 94.59 1395.79 111.81 1388.81 123.79 C 1383.90 132.31 1375.03 137.96 1365.64 140.34 C 1346.60 145.14 1325.46 139.61 1310.95 126.46 C 1315.90 120.44 1320.90 114.45 1325.87 108.45 C 1335.37 116.31 1348.60 122.43 1360.93 118.02 C 1367.06 116.01 1368.24 106.67 1362.57 103.41 C 1355.70 99.19 1347.89 96.83 1340.58 93.48 C 1333.10 90.67 1325.69 86.72 1320.87 80.14 C 1313.78 70.81 1313.18 57.19 1319.18 47.18 C 1323.49 39.83 1330.80 34.57 1338.80 31.88 Z" />
<path fill="#ff0c00" opacity="1.00" d=" M 1351.52 165.83 C 1368.09 162.67 1387.02 166.45 1398.66 179.37 C 1411.22 193.15 1413.85 213.13 1411.81 231.01 C 1410.08 247.09 1402.04 263.40 1387.44 271.38 C 1368.04 281.91 1340.87 279.04 1326.18 261.81 C 1314.74 248.50 1311.83 229.96 1313.22 212.96 C 1314.35 198.31 1320.23 183.22 1332.29 174.20 C 1337.91 169.92 1344.60 167.16 1351.52 165.83 M 1358.40 187.58 C 1352.58 188.62 1347.59 192.61 1344.73 197.71 C 1340.54 205.03 1339.55 213.70 1339.67 222.01 C 1339.87 230.29 1341.32 238.93 1346.03 245.93 C 1349.33 250.93 1354.88 254.50 1360.93 254.87 C 1367.78 255.58 1374.75 252.35 1378.75 246.77 C 1384.58 238.83 1385.94 228.58 1385.81 218.99 C 1385.56 210.18 1383.87 200.78 1377.94 193.92 C 1373.24 188.37 1365.42 186.15 1358.40 187.58 Z" />
<path fill="#ff0c00" opacity="1.00" d=" M 1338.72 302.74 C 1356.19 296.83 1376.75 301.52 1389.87 314.51 C 1385.54 319.99 1381.18 325.44 1376.84 330.91 C 1371.04 326.57 1364.30 323.06 1356.93 322.68 C 1352.45 322.44 1347.33 322.65 1343.90 325.92 C 1340.70 328.96 1341.01 334.73 1344.66 337.29 C 1349.37 340.84 1355.19 342.39 1360.56 344.69 C 1369.75 348.50 1380.12 351.30 1386.66 359.37 C 1396.92 372.03 1394.51 392.59 1381.93 402.86 C 1367.90 414.62 1347.35 415.12 1330.73 409.15 C 1323.44 406.53 1316.69 402.47 1310.96 397.26 C 1315.93 391.27 1320.90 385.27 1325.87 379.28 C 1333.00 385.16 1341.64 389.76 1351.01 390.33 C 1355.03 390.43 1359.37 390.10 1362.82 387.81 C 1366.90 385.15 1367.57 378.49 1363.81 375.27 C 1360.02 372.00 1355.10 370.56 1350.62 368.54 C 1344.56 365.87 1338.32 363.61 1332.41 360.65 C 1325.40 356.94 1319.38 350.90 1316.77 343.31 C 1313.99 335.32 1314.62 326.12 1318.78 318.72 C 1323.00 311.03 1330.50 305.52 1338.72 302.74 Z" />
<path fill="#ff0c00" opacity="1.00" d=" M 538.41 319.56 C 546.84 317.35 556.45 318.94 563.15 324.71 C 573.84 333.22 576.58 349.38 570.48 361.37 C 567.35 367.38 562.12 372.45 555.70 374.79 C 546.06 378.25 534.33 376.39 527.07 368.89 C 518.01 360.37 516.02 346.03 520.96 334.86 C 524.27 327.63 530.64 321.63 538.41 319.56 Z" />
</g>
</svg>
