<?xml version="1.0" encoding="UTF-8" ?>
<!DOCTYPE svg PUBLIC "-//W3C//DTD SVG 1.1//EN" "http://www.w3.org/Graphics/SVG/1.1/DTD/svg11.dtd">
<svg width="2027pt" height="467pt" viewBox="0 0 2027 467" version="1.1" xmlns="http://www.w3.org/2000/svg">
<g id="#ffffffff">
<path fill="#ffffff" opacity="1.00" d=" M 227.48 0.00 L 238.61 0.00 C 278.72 1.03 318.58 12.26 352.99 32.98 C 401.57 61.87 439.00 108.97 455.89 162.93 C 471.27 211.40 470.23 264.91 452.88 312.71 C 441.06 345.47 421.74 375.48 396.87 399.85 C 359.29 436.99 308.75 460.71 256.13 465.61 C 230.37 468.61 204.20 466.14 179.01 460.35 C 122.54 447.07 71.79 411.61 39.59 363.40 C 14.89 326.93 1.25 283.31 0.00 239.32 L 0.00 228.14 C 0.81 201.05 5.94 174.04 15.84 148.79 C 35.22 98.63 72.62 55.76 119.60 29.61 C 152.44 11.10 189.84 1.13 227.48 0.00 M 113.58 73.27 C 204.51 169.55 295.43 265.83 386.37 362.10 C 415.74 327.41 432.65 282.46 433.28 237.00 C 433.99 201.18 424.85 165.21 406.98 134.15 C 387.50 100.04 357.76 71.91 322.59 54.41 C 288.91 37.49 250.36 30.60 212.88 34.48 C 177.06 38.04 142.37 51.68 113.58 73.27 M 103.16 84.18 C 101.52 87.86 105.25 91.19 104.76 94.81 C 101.55 96.60 100.10 91.63 99.57 89.36 C 98.17 89.50 96.78 89.63 95.40 89.77 C 95.99 94.05 98.52 98.63 103.06 99.58 C 107.17 100.63 111.41 96.04 109.46 92.07 C 109.06 89.82 106.65 87.46 108.20 85.26 C 110.96 85.04 111.80 88.13 112.54 90.17 C 113.47 90.08 115.34 89.89 116.28 89.80 C 115.88 86.76 114.63 83.60 111.85 81.99 C 109.04 79.99 104.49 80.80 103.16 84.18 M 109.29 106.98 C 110.39 110.77 114.02 113.22 117.86 113.47 C 118.00 112.54 118.28 110.68 118.42 109.75 C 116.11 109.16 113.21 107.89 113.42 105.01 C 114.00 101.29 117.98 97.64 121.89 98.71 C 123.86 99.36 124.29 101.55 124.89 103.25 C 125.85 103.15 127.77 102.94 128.73 102.84 C 128.32 99.69 126.90 96.47 123.88 95.03 C 116.68 91.07 106.94 99.21 109.29 106.98 M 88.49 95.58 C 54.43 131.19 34.30 179.72 33.48 229.01 C 32.61 265.73 42.12 302.63 60.75 334.29 C 80.32 367.78 109.82 395.36 144.59 412.55 C 177.03 428.74 213.96 435.67 250.07 432.62 C 291.27 429.34 331.20 412.67 362.66 385.90 C 271.28 289.12 179.87 192.36 88.49 95.58 M 118.00 117.01 C 119.09 118.16 120.17 119.31 121.26 120.47 C 125.99 116.01 130.72 111.56 135.44 107.10 C 134.35 105.95 133.27 104.79 132.18 103.64 C 127.45 108.10 122.73 112.55 118.00 117.01 M 124.25 123.64 C 127.15 126.71 130.05 129.79 132.95 132.87 C 133.91 131.95 134.88 131.03 135.85 130.12 C 134.04 128.20 132.23 126.27 130.41 124.36 C 131.39 123.44 132.37 122.52 133.36 121.61 C 134.84 123.17 136.32 124.74 137.80 126.31 C 138.77 125.40 139.74 124.48 140.71 123.57 C 139.23 122.00 137.74 120.43 136.26 118.87 C 137.10 118.06 137.95 117.25 138.80 116.45 C 140.55 118.30 142.29 120.15 144.04 122.01 C 145.00 121.10 145.97 120.19 146.93 119.28 C 144.10 116.28 141.26 113.28 138.44 110.27 C 133.70 114.72 128.99 119.19 124.25 123.64 M 135.50 135.59 C 136.54 136.68 137.58 137.76 138.62 138.85 C 142.00 135.76 145.31 132.58 148.18 129.00 C 146.15 133.69 144.56 138.54 142.83 143.34 C 143.93 144.51 145.03 145.67 146.13 146.85 C 150.85 142.38 155.58 137.93 160.31 133.47 C 159.28 132.37 158.24 131.28 157.21 130.19 C 153.84 133.28 150.50 136.42 147.69 140.05 C 149.72 135.37 151.30 130.51 152.98 125.70 C 151.88 124.53 150.78 123.37 149.69 122.21 C 144.96 126.67 140.23 131.13 135.50 135.59 M 152.56 153.22 C 153.83 156.77 157.33 158.90 160.98 159.20 C 161.15 157.95 161.33 156.70 161.51 155.46 C 159.29 154.88 156.50 153.73 156.49 150.99 C 156.81 147.36 160.35 143.98 164.07 144.19 C 166.52 144.38 167.43 146.89 167.93 148.93 C 169.22 148.80 170.51 148.68 171.81 148.54 C 171.36 145.42 170.03 142.19 167.02 140.75 C 159.65 136.57 149.49 145.34 152.56 153.22 M 161.07 162.69 C 163.97 165.77 166.86 168.84 169.77 171.91 C 170.74 171.00 171.71 170.08 172.67 169.17 C 170.86 167.25 169.05 165.32 167.24 163.40 C 168.22 162.48 169.20 161.57 170.18 160.65 C 171.65 162.22 173.13 163.79 174.62 165.35 C 175.59 164.45 176.56 163.54 177.53 162.63 C 176.05 161.05 174.56 159.48 173.08 157.90 C 173.93 157.10 174.78 156.30 175.63 155.50 C 177.37 157.35 179.12 159.20 180.87 161.06 C 181.83 160.14 182.79 159.23 183.74 158.32 C 180.91 155.32 178.09 152.32 175.25 149.33 C 170.52 153.78 165.80 158.24 161.07 162.69 M 186.24 169.25 C 182.88 171.01 179.93 174.15 179.28 177.99 C 178.33 183.67 184.30 189.25 189.91 187.65 C 194.23 186.38 198.11 182.67 198.84 178.13 C 199.72 171.75 192.05 165.91 186.24 169.25 M 190.47 193.86 C 191.55 195.01 192.63 196.16 193.72 197.32 C 195.27 195.87 196.80 194.41 198.33 192.96 C 200.03 194.55 201.63 196.49 203.95 197.16 C 208.38 198.65 213.64 193.70 211.81 189.21 C 210.30 185.69 207.08 183.33 204.64 180.49 C 199.92 184.95 195.19 189.40 190.47 193.86 M 202.74 206.88 C 205.64 209.94 208.53 213.02 211.43 216.09 C 212.40 215.18 213.36 214.26 214.33 213.35 C 212.52 211.43 210.71 209.50 208.90 207.58 C 209.88 206.66 210.86 205.75 211.84 204.83 C 213.32 206.41 214.80 207.98 216.28 209.55 C 217.25 208.64 218.22 207.72 219.19 206.81 C 217.71 205.23 216.22 203.66 214.74 202.09 C 215.58 201.28 216.44 200.48 217.29 199.69 C 219.04 201.54 220.78 203.39 222.53 205.24 C 223.49 204.33 224.45 203.42 225.41 202.51 C 222.58 199.50 219.75 196.51 216.92 193.51 C 212.18 197.95 207.47 202.42 202.74 206.88 M 213.99 218.81 C 215.02 219.90 216.06 221.00 217.09 222.10 C 220.48 219.00 223.80 215.81 226.67 212.23 C 224.63 216.91 223.03 221.77 221.31 226.59 C 222.41 227.74 223.51 228.91 224.61 230.08 C 229.34 225.62 234.07 221.17 238.79 216.71 C 237.75 215.61 236.72 214.51 235.70 213.41 C 232.33 216.52 228.99 219.67 226.14 223.27 C 228.23 218.61 229.76 213.75 231.47 208.95 C 230.37 207.78 229.27 206.61 228.18 205.44 C 223.44 209.89 218.72 214.35 213.99 218.81 M 241.82 219.92 C 237.10 224.37 232.37 228.83 227.65 233.28 C 228.67 234.38 229.70 235.48 230.73 236.58 C 234.11 233.49 237.42 230.31 240.30 226.74 C 238.27 231.41 236.68 236.26 234.96 241.06 C 236.06 242.22 237.17 243.38 238.27 244.55 C 242.99 240.09 247.71 235.64 252.44 231.18 C 251.41 230.08 250.38 228.99 249.35 227.90 C 245.98 230.98 242.64 234.12 239.82 237.73 C 241.87 233.06 243.43 228.20 245.12 223.40 C 244.02 222.24 242.92 221.08 241.82 219.92 M 241.29 247.77 C 244.19 250.83 247.09 253.90 249.98 256.98 C 250.95 256.06 251.92 255.15 252.89 254.23 C 251.07 252.32 249.27 250.40 247.46 248.48 C 248.43 247.56 249.41 246.64 250.39 245.72 C 251.87 247.29 253.35 248.86 254.84 250.43 C 255.80 249.52 256.77 248.60 257.74 247.69 C 256.26 246.11 254.77 244.55 253.29 242.98 C 254.13 242.17 254.99 241.37 255.84 240.57 C 257.58 242.42 259.33 244.27 261.07 246.12 C 262.03 245.21 263.00 244.31 263.97 243.41 C 261.13 240.40 258.31 237.39 255.47 234.39 C 250.75 238.85 246.01 243.30 241.29 247.77 M 261.10 256.01 C 261.59 258.38 264.25 261.55 261.24 263.21 C 259.11 261.68 257.94 259.37 257.49 256.83 C 256.08 256.95 254.68 257.07 253.29 257.21 C 253.85 261.50 256.42 266.07 260.95 267.01 C 264.77 267.98 268.92 263.99 267.53 260.14 C 267.13 257.75 264.90 255.41 265.81 253.02 C 268.53 251.70 269.76 255.73 270.47 257.63 C 271.73 257.49 272.98 257.35 274.24 257.21 C 273.75 252.92 270.70 248.30 265.96 248.32 C 262.16 248.21 259.41 252.62 261.10 256.01 M 272.33 264.06 C 271.29 267.54 273.96 270.65 274.33 274.03 C 271.29 276.63 269.32 271.36 268.90 268.97 C 267.50 269.05 266.11 269.15 264.73 269.26 C 265.22 273.48 267.69 277.94 272.06 279.05 C 275.34 279.99 279.09 277.43 279.22 273.98 C 279.03 271.16 277.40 268.72 276.81 266.00 C 278.81 262.62 281.46 267.66 281.86 269.72 C 282.80 269.61 284.69 269.41 285.64 269.31 C 285.12 265.88 283.45 262.29 280.03 260.95 C 277.18 259.54 273.30 260.98 272.33 264.06 M 287.55 281.95 C 287.61 284.94 289.49 287.53 289.81 290.48 C 286.69 293.05 284.88 287.77 284.39 285.36 C 283.34 285.46 281.24 285.65 280.19 285.75 C 280.79 288.97 282.01 292.31 284.84 294.22 C 288.07 297.04 294.01 295.49 294.66 291.02 C 295.52 287.62 290.97 284.16 293.19 281.18 C 295.83 281.25 296.62 284.16 297.39 286.17 C 298.64 286.02 299.90 285.86 301.16 285.70 C 300.60 282.09 298.66 278.28 294.92 277.18 C 291.65 275.89 287.62 278.39 287.55 281.95 M 296.26 295.27 C 294.39 297.26 292.88 300.15 293.86 302.93 C 295.27 307.02 300.12 310.57 304.40 308.22 C 308.79 305.70 311.98 301.62 315.78 298.34 C 314.73 297.23 313.69 296.13 312.64 295.03 C 309.30 297.95 306.38 301.39 302.76 303.97 C 300.32 305.96 296.64 302.30 298.58 299.88 C 301.39 296.32 305.06 293.56 308.24 290.35 C 307.15 289.20 306.07 288.05 305.00 286.91 C 302.11 289.72 299.04 292.34 296.26 295.27 M 318.69 301.45 C 313.97 305.91 309.24 310.35 304.52 314.82 C 305.60 315.96 306.69 317.12 307.78 318.27 C 309.32 316.82 310.86 315.37 312.39 313.90 C 314.09 315.50 315.68 317.45 318.02 318.12 C 322.49 319.63 327.79 314.52 325.82 310.03 C 324.25 306.59 321.13 304.24 318.69 301.45 M 316.79 327.84 C 317.88 328.98 318.96 330.13 320.05 331.29 C 321.59 329.83 323.13 328.38 324.67 326.92 C 326.29 328.45 327.79 330.29 329.97 331.03 C 334.49 332.87 340.11 327.68 338.10 323.07 C 336.55 319.61 333.39 317.27 330.97 314.46 C 326.24 318.92 321.52 323.38 316.79 327.84 M 340.40 330.54 C 336.57 331.84 333.27 335.03 332.12 338.94 C 330.40 344.69 336.27 350.94 342.12 349.63 C 346.35 348.63 350.04 345.21 351.30 341.04 C 352.97 335.02 346.40 328.53 340.40 330.54 M 343.11 355.73 C 344.19 356.88 345.27 358.04 346.36 359.20 C 348.09 357.55 349.81 355.91 351.63 354.37 C 353.89 357.17 350.79 360.43 350.30 363.38 C 351.51 364.65 352.72 365.93 353.94 367.22 C 354.79 364.52 355.63 361.82 356.45 359.12 C 360.37 359.96 364.96 357.25 365.00 352.99 C 364.38 348.39 360.02 345.73 357.28 342.37 C 352.56 346.83 347.83 351.28 343.11 355.73 M 366.03 357.43 C 367.23 358.69 368.42 359.96 369.62 361.24 C 365.85 364.78 362.09 368.34 358.32 371.88 C 359.41 373.03 360.49 374.18 361.59 375.33 C 365.36 371.79 369.12 368.24 372.88 364.68 C 374.08 365.96 375.28 367.24 376.49 368.53 C 377.45 367.61 378.41 366.70 379.38 365.80 C 375.90 362.09 372.40 358.40 368.92 354.70 C 367.95 355.60 366.99 356.51 366.03 357.43 Z" />
<path fill="#ffffff" opacity="1.00" d=" M 756.60 14.82 C 773.87 12.34 792.15 14.02 807.78 22.20 C 813.92 25.53 821.03 29.08 823.56 36.11 C 825.80 42.35 822.45 48.81 818.43 53.47 C 814.02 58.91 807.18 63.27 799.91 61.96 C 794.13 61.35 789.86 56.95 784.40 55.43 C 771.49 51.15 756.43 54.16 746.33 63.34 C 734.37 73.68 728.48 89.42 727.33 104.89 C 726.32 119.10 727.26 133.80 732.59 147.14 C 737.00 158.13 745.32 168.10 756.69 172.22 C 769.40 176.80 784.52 175.41 795.62 167.48 C 800.94 163.73 808.35 162.65 814.13 166.02 C 819.89 169.42 824.84 174.77 826.80 181.26 C 828.73 187.90 824.95 194.67 819.92 198.82 C 808.24 207.89 793.81 213.14 779.12 214.42 C 760.14 216.06 740.41 212.78 723.82 203.15 C 708.51 194.29 695.73 180.83 688.51 164.60 C 679.86 145.35 678.00 123.69 679.61 102.84 C 681.38 80.60 689.88 58.64 705.12 42.15 C 718.32 27.29 736.88 17.41 756.60 14.82 Z" />
<path fill="#ffffff" opacity="1.00" d=" M 926.54 14.76 C 943.92 12.59 962.08 13.82 978.40 20.52 C 996.31 27.82 1011.08 42.10 1019.59 59.41 C 1027.65 75.66 1030.55 94.00 1030.63 111.99 C 1030.83 130.94 1027.83 150.25 1019.50 167.41 C 1012.07 182.67 1000.54 196.28 985.54 204.50 C 969.91 213.19 951.54 215.71 933.89 214.56 C 918.65 213.59 903.47 208.95 890.96 200.05 C 875.41 189.12 864.18 172.65 858.57 154.58 C 852.60 135.45 851.71 115.03 853.75 95.19 C 856.01 74.18 863.81 53.08 879.00 37.95 C 891.52 24.96 908.73 17.02 926.54 14.76 M 934.16 54.19 C 925.79 55.63 918.27 60.57 913.16 67.29 C 902.62 81.06 900.43 99.17 900.69 116.01 C 901.02 132.90 904.42 151.02 916.10 163.94 C 928.22 177.69 951.65 178.50 964.97 166.08 C 975.25 156.57 980.29 142.73 982.03 129.11 C 983.59 116.28 983.47 103.14 980.73 90.48 C 978.20 79.08 972.81 67.76 963.38 60.52 C 955.21 54.15 944.19 52.38 934.16 54.19 Z" />
<path fill="#ffffff" opacity="1.00" d=" M 503.64 17.49 C 511.04 17.24 518.46 17.39 525.87 17.41 C 532.46 17.53 538.72 21.41 541.77 27.25 C 553.47 49.65 565.04 72.10 576.69 94.52 C 587.05 113.44 594.93 133.56 603.88 153.15 C 604.19 153.17 604.80 153.21 605.10 153.23 C 602.44 130.86 599.65 108.47 598.81 85.95 C 598.67 70.31 598.78 54.67 598.75 39.04 C 598.78 33.16 600.14 26.78 604.57 22.59 C 608.92 18.46 615.19 17.30 621.00 17.35 C 626.77 17.32 633.01 18.51 637.31 22.64 C 641.69 26.81 643.05 33.14 643.06 38.98 C 643.05 90.99 643.09 142.99 643.05 195.00 C 643.29 202.90 637.08 210.47 629.08 211.08 C 622.07 211.49 615.04 211.13 608.03 211.27 C 603.60 211.40 598.90 210.60 595.40 207.70 C 592.04 205.11 590.36 201.10 588.47 197.43 C 577.12 175.24 565.75 153.06 554.39 130.87 C 545.67 114.65 538.89 97.51 531.29 80.77 C 530.28 78.54 529.49 76.15 527.76 74.35 C 529.53 97.24 533.11 120.02 533.41 143.03 C 533.48 158.33 533.42 173.63 533.44 188.93 C 533.46 194.91 532.28 201.44 527.83 205.78 C 523.46 210.14 516.97 211.30 511.03 211.26 C 505.12 211.25 498.70 209.95 494.45 205.54 C 490.25 201.20 489.07 194.87 489.12 189.04 C 489.17 137.01 489.06 84.97 489.17 32.94 C 489.20 25.07 495.76 17.99 503.64 17.49 Z" />
<path fill="#ffffff" opacity="1.00" d=" M 1047.03 25.05 C 1048.89 20.30 1053.99 17.71 1058.88 17.46 C 1064.91 17.26 1070.96 17.41 1077.01 17.38 C 1082.82 17.37 1088.63 20.33 1091.76 25.28 C 1093.91 28.53 1094.48 32.47 1095.46 36.16 C 1101.22 59.28 1106.95 82.40 1112.75 105.51 C 1117.20 121.49 1120.62 137.72 1124.52 153.83 C 1125.96 158.71 1126.39 163.98 1128.85 168.51 C 1134.89 147.24 1138.92 125.45 1144.62 104.09 C 1150.72 79.64 1156.79 55.19 1162.90 30.75 C 1164.50 23.38 1171.38 17.73 1178.89 17.43 C 1184.28 17.30 1189.68 17.37 1195.08 17.39 C 1199.58 17.44 1204.46 19.08 1206.98 23.05 C 1209.63 27.07 1209.19 32.24 1207.86 36.65 C 1191.68 90.41 1175.52 144.17 1159.35 197.92 C 1157.47 205.26 1150.58 210.90 1143.00 211.19 C 1134.67 211.35 1126.33 211.19 1118.00 211.25 C 1114.13 211.20 1110.13 211.62 1106.44 210.25 C 1101.41 208.43 1097.32 204.15 1095.95 198.95 C 1080.10 146.26 1064.25 93.57 1048.38 40.89 C 1046.81 35.84 1044.84 30.23 1047.03 25.05 Z" />
<path fill="#ffffff" opacity="1.00" d=" M 1249.75 17.50 C 1255.41 17.50 1261.08 17.50 1266.75 17.50 C 1266.75 160.17 1266.75 302.83 1266.75 445.50 C 1261.08 445.50 1255.41 445.50 1249.75 445.50 C 1249.75 302.83 1249.75 160.17 1249.75 17.50 Z" />
<path fill="#ffffff" opacity="1.00" d=" M 1522.40 19.58 C 1529.03 16.76 1537.83 19.34 1541.03 26.03 C 1543.49 31.57 1542.98 38.99 1538.33 43.27 C 1533.23 48.19 1524.41 48.54 1518.97 44.00 C 1511.22 37.78 1512.82 23.19 1522.40 19.58 Z" />
<path fill="#ffffff" opacity="1.00" d=" M 1447.55 55.79 C 1459.48 54.55 1471.84 55.47 1483.04 60.02 C 1481.39 66.05 1479.75 72.09 1478.11 78.12 C 1468.48 74.77 1457.95 73.85 1447.96 75.97 C 1440.72 77.53 1434.01 82.57 1431.89 89.87 C 1429.25 98.92 1429.55 109.75 1435.62 117.40 C 1439.95 122.93 1447.21 124.84 1453.90 125.43 C 1463.06 126.10 1472.41 125.35 1481.21 122.61 C 1482.29 128.77 1483.40 134.94 1484.50 141.10 C 1473.46 144.98 1461.58 145.77 1449.98 144.96 C 1439.77 144.23 1429.48 141.03 1421.50 134.44 C 1414.80 128.94 1410.48 120.95 1408.75 112.52 C 1405.32 96.47 1408.50 77.59 1421.49 66.50 C 1428.76 60.28 1438.10 56.81 1447.55 55.79 Z" />
<path fill="#ffffff" opacity="1.00" d=" M 1611.84 58.68 C 1621.19 54.52 1632.00 54.40 1641.77 57.14 C 1649.81 59.37 1656.83 64.92 1660.79 72.28 C 1666.66 83.03 1667.05 95.73 1666.29 107.68 C 1647.68 107.71 1629.07 107.66 1610.46 107.71 C 1610.51 114.45 1615.00 120.38 1621.14 122.90 C 1633.12 128.09 1646.65 125.22 1658.58 121.31 C 1659.59 127.72 1660.65 134.12 1661.67 140.53 C 1653.39 143.27 1644.78 145.23 1636.03 145.24 C 1624.21 145.45 1611.69 143.24 1602.17 135.80 C 1593.83 129.40 1589.01 119.24 1587.87 108.92 C 1586.66 98.12 1587.65 86.73 1592.79 76.99 C 1596.81 68.96 1603.55 62.25 1611.84 58.68 M 1619.96 75.97 C 1613.96 79.01 1611.43 85.85 1610.54 92.12 C 1622.00 92.12 1633.47 92.14 1644.93 92.12 C 1644.67 87.61 1643.73 82.88 1640.67 79.38 C 1635.72 73.47 1626.60 72.78 1619.96 75.97 Z" />
<path fill="#ffffff" opacity="1.00" d=" M 1880.46 61.22 C 1888.98 55.83 1899.50 54.30 1909.37 55.86 C 1918.75 57.07 1927.83 62.02 1932.93 70.14 C 1940.04 81.20 1940.54 94.95 1939.72 107.68 C 1921.11 107.72 1902.49 107.66 1883.87 107.71 C 1883.99 114.30 1888.25 120.21 1894.27 122.75 C 1906.29 128.15 1919.99 125.25 1932.01 121.31 C 1933.03 127.71 1934.08 134.11 1935.11 140.52 C 1927.30 143.10 1919.21 145.03 1910.96 145.20 C 1899.06 145.61 1886.43 143.70 1876.59 136.54 C 1868.50 130.76 1863.39 121.48 1861.73 111.78 C 1860.47 104.24 1860.52 96.45 1861.99 88.94 C 1864.29 77.83 1870.68 67.26 1880.46 61.22 M 1893.11 76.13 C 1887.29 79.24 1884.87 85.96 1883.98 92.12 C 1895.44 92.13 1906.91 92.13 1918.38 92.12 C 1918.08 87.73 1917.25 83.13 1914.34 79.67 C 1909.40 73.44 1899.87 72.67 1893.11 76.13 Z" />
<path fill="#ffffff" opacity="1.00" d=" M 1684.38 60.20 C 1697.26 56.93 1710.60 54.99 1723.91 55.89 C 1732.13 56.45 1740.69 59.50 1745.90 66.18 C 1751.83 73.76 1753.05 83.74 1753.34 93.05 C 1753.42 109.79 1753.35 126.52 1753.38 143.25 C 1745.87 143.25 1738.37 143.25 1730.87 143.25 C 1730.84 127.16 1730.93 111.07 1730.83 94.98 C 1730.45 89.35 1730.43 82.95 1726.62 78.40 C 1721.25 73.56 1713.39 75.49 1706.88 75.94 C 1706.87 98.38 1706.87 120.81 1706.87 143.25 C 1699.37 143.25 1691.87 143.25 1684.37 143.25 C 1684.37 115.57 1684.36 87.89 1684.38 60.20 Z" />
<path fill="#ffffff" opacity="1.00" d=" M 1794.66 60.83 C 1805.18 55.46 1817.37 54.73 1828.96 55.62 C 1835.37 56.08 1841.64 57.71 1847.63 60.01 C 1845.98 66.05 1844.32 72.09 1842.70 78.13 C 1832.87 74.71 1822.08 73.77 1811.91 76.13 C 1804.81 77.81 1798.38 82.96 1796.39 90.15 C 1793.81 99.19 1794.20 110.00 1800.34 117.57 C 1804.81 123.13 1812.23 124.93 1819.03 125.47 C 1828.01 126.06 1837.18 125.30 1845.80 122.61 C 1846.86 128.77 1847.99 134.93 1849.08 141.09 C 1838.17 144.95 1826.41 145.74 1814.94 144.99 C 1804.93 144.32 1794.84 141.32 1786.87 135.08 C 1780.44 130.05 1775.92 122.79 1773.92 114.90 C 1771.00 103.69 1771.40 91.45 1775.82 80.68 C 1779.38 72.03 1786.27 64.92 1794.66 60.83 Z" />
<path fill="#ffffff" opacity="1.00" d=" M 210.02 65.01 C 225.65 52.79 250.61 55.34 263.10 70.91 C 267.47 75.82 272.00 80.58 276.30 85.56 C 279.17 89.43 284.59 89.61 288.96 89.13 C 295.05 88.06 301.24 87.40 307.18 85.65 C 318.40 84.07 330.21 87.77 338.66 95.30 C 346.26 101.97 351.08 111.59 352.17 121.61 C 352.66 126.42 353.01 131.25 353.49 136.06 C 353.79 139.95 356.28 143.47 359.47 145.60 C 368.06 150.02 377.87 152.16 385.58 158.22 C 397.14 166.94 403.54 182.09 401.26 196.45 C 399.50 208.88 390.54 218.41 385.44 229.47 C 383.78 233.79 385.50 238.38 387.98 241.98 C 392.57 250.41 398.80 258.27 400.62 267.92 C 403.57 281.91 398.54 297.27 387.78 306.72 C 380.89 313.07 371.61 315.45 363.28 319.23 C 356.82 312.36 350.32 305.52 343.87 298.65 C 350.02 295.31 356.67 293.03 363.09 290.25 C 368.43 288.29 372.84 282.90 372.42 277.01 C 372.69 272.34 369.40 268.71 367.35 264.84 C 364.08 258.91 359.94 253.33 358.12 246.72 C 355.11 236.29 356.03 224.64 361.19 215.03 C 364.72 208.65 368.70 202.52 372.09 196.07 C 373.97 190.84 372.40 183.58 367.09 180.92 C 358.22 176.26 348.03 174.10 339.97 167.95 C 332.72 162.39 327.61 154.13 325.96 145.14 C 324.90 138.82 324.84 132.38 323.94 126.04 C 322.89 119.88 317.24 114.82 310.96 114.68 C 303.25 115.06 295.60 116.71 288.10 118.50 C 275.65 119.90 263.34 114.04 254.75 105.30 C 249.93 100.06 245.13 94.80 240.42 89.47 C 237.60 86.33 232.84 86.31 229.00 87.05 C 223.65 88.34 220.69 93.38 217.06 97.04 C 211.80 102.44 207.41 108.89 200.85 112.85 C 192.50 117.96 182.01 120.27 172.51 117.24 C 162.94 107.06 153.31 96.94 143.75 86.75 C 148.02 85.81 152.45 84.86 156.83 85.53 C 163.52 86.94 170.31 87.75 177.03 88.99 C 181.51 89.91 186.49 89.03 190.01 85.97 C 196.91 79.21 202.59 71.22 210.02 65.01 Z" />
<path fill="#ffffff" opacity="1.00" d=" M 1497.19 57.50 C 1512.58 57.50 1527.98 57.50 1543.38 57.50 C 1543.37 73.35 1543.38 89.20 1543.38 105.04 C 1543.45 110.48 1542.76 116.41 1545.72 121.27 C 1547.44 124.16 1550.85 125.47 1554.09 125.62 C 1560.59 125.92 1567.03 124.19 1572.91 121.50 C 1573.84 127.55 1574.87 133.59 1575.81 139.64 C 1565.72 144.41 1554.19 146.42 1543.14 144.55 C 1536.39 143.44 1529.91 139.73 1526.31 133.80 C 1521.91 126.72 1521.18 118.12 1520.90 109.99 C 1520.84 98.70 1520.89 87.41 1520.87 76.13 C 1512.97 76.13 1505.08 76.12 1497.19 76.13 C 1497.18 69.92 1497.18 63.71 1497.19 57.50 Z" />
<path fill="#ffffff" opacity="1.00" d=" M 192.32 138.17 C 205.59 135.91 219.67 137.97 231.46 144.58 C 244.74 151.88 254.87 164.60 259.09 179.15 C 262.04 189.04 262.23 199.67 259.89 209.71 C 237.32 185.90 214.82 162.04 192.32 138.17 Z" />
<path fill="#ffffff" opacity="1.00" d=" M 113.03 139.50 C 119.34 146.21 125.69 152.87 131.98 159.60 C 128.06 164.88 123.10 169.51 117.10 172.33 C 111.18 175.02 105.06 177.26 99.14 179.94 C 94.94 182.35 91.50 186.95 91.86 191.99 C 91.54 195.55 93.44 198.66 95.23 201.55 C 97.59 205.56 99.93 209.59 102.28 213.60 C 109.19 225.34 109.67 240.53 103.82 252.78 C 100.19 259.70 95.83 266.22 92.21 273.14 C 90.16 278.51 91.95 285.94 97.49 288.52 C 104.10 291.75 111.10 294.12 117.77 297.24 C 126.41 301.45 133.36 309.06 136.65 318.11 C 139.74 326.34 138.98 335.30 140.45 343.84 C 141.61 348.96 145.88 353.24 151.03 354.31 C 154.02 354.89 157.07 354.47 160.03 353.95 C 165.05 353.03 170.15 352.48 175.05 350.98 C 186.99 349.03 199.07 354.30 207.79 362.28 C 212.96 367.44 217.71 373.01 222.62 378.42 C 226.90 384.06 236.23 383.84 241.01 378.96 C 245.90 373.87 250.45 368.46 255.34 363.37 C 262.96 355.94 273.20 350.66 284.01 350.58 C 287.76 350.96 291.41 352.04 295.18 352.42 C 301.94 353.29 308.75 355.61 315.59 354.00 C 322.01 360.78 328.45 367.55 334.82 374.39 C 326.57 379.67 316.21 382.94 306.49 380.32 C 300.01 379.43 293.59 377.98 287.08 377.31 C 281.25 376.73 276.25 380.52 272.88 384.90 C 266.26 391.64 260.86 399.92 252.40 404.55 C 237.74 412.72 217.70 410.30 206.01 398.04 C 200.57 392.10 195.12 386.17 189.82 380.11 C 186.84 377.10 182.12 377.11 178.18 377.45 C 171.79 378.48 165.35 379.34 159.11 381.06 C 148.40 382.32 137.25 378.92 129.03 371.95 C 120.99 365.25 115.85 355.30 114.76 344.92 C 114.29 340.25 113.93 335.57 113.49 330.90 C 113.17 325.76 109.32 321.22 104.52 319.57 C 97.16 316.25 89.20 314.03 82.58 309.29 C 70.11 300.60 63.12 284.60 65.77 269.55 C 67.33 259.21 74.16 250.90 78.98 241.93 C 81.80 238.00 83.35 232.65 80.93 228.13 C 77.53 221.98 73.79 216.00 70.36 209.86 C 65.29 200.53 64.13 189.18 67.15 178.99 C 70.25 168.08 78.12 158.53 88.45 153.75 C 94.54 151.04 100.78 148.68 106.88 145.99 C 109.74 144.76 111.60 142.15 113.03 139.50 Z" />
<path fill="#ffffff" opacity="1.00" d=" M 189.26 173.15 C 192.52 171.51 195.98 175.83 193.78 178.70 C 192.12 181.58 187.91 185.09 184.72 182.35 C 181.81 178.88 186.00 174.49 189.26 173.15 Z" />
<path fill="#ffffff" opacity="1.00" d=" M 147.59 176.12 C 171.57 201.48 195.53 226.85 219.48 252.24 C 207.38 255.82 194.11 255.45 182.32 250.89 C 165.37 244.51 151.75 229.95 146.57 212.59 C 142.92 200.73 143.42 187.77 147.59 176.12 Z" />
<path fill="#ffffff" opacity="1.00" d=" M 201.06 190.44 C 202.44 189.09 203.85 187.76 205.27 186.46 C 206.34 188.07 209.02 190.02 207.11 192.01 C 205.11 194.47 202.61 192.01 201.06 190.44 Z" />
<path fill="#ffffff" opacity="1.00" d=" M 1410.94 195.61 C 1421.65 192.45 1432.86 191.16 1444.02 191.08 C 1453.62 191.03 1463.70 193.37 1471.11 199.81 C 1479.27 206.80 1483.54 217.38 1484.61 227.90 C 1485.63 238.61 1484.84 249.70 1480.93 259.81 C 1478.00 267.47 1472.52 274.42 1464.93 277.85 C 1454.93 282.41 1443.20 281.02 1433.43 276.55 C 1433.45 287.28 1433.43 298.02 1433.44 308.75 C 1425.93 308.75 1418.43 308.75 1410.94 308.75 C 1410.94 271.04 1410.94 233.32 1410.94 195.61 M 1433.44 211.02 C 1433.43 226.71 1433.46 242.40 1433.42 258.09 C 1439.32 261.06 1446.65 262.57 1452.94 259.93 C 1459.79 256.43 1461.47 247.96 1462.03 240.97 C 1462.60 231.72 1461.65 221.14 1454.79 214.21 C 1449.04 208.76 1440.55 210.40 1433.44 211.02 Z" />
<path fill="#ffffff" opacity="1.00" d=" M 1521.00 193.97 C 1529.92 190.06 1540.14 189.91 1549.50 192.23 C 1557.86 194.29 1565.31 199.81 1569.46 207.38 C 1575.49 218.20 1575.95 231.05 1575.13 243.12 C 1556.53 243.16 1537.93 243.06 1519.34 243.17 C 1519.36 250.06 1524.10 256.04 1530.39 258.49 C 1542.29 263.43 1555.63 260.58 1567.43 256.74 C 1568.45 263.14 1569.50 269.55 1570.53 275.96 C 1562.27 278.65 1553.70 280.66 1544.97 280.63 C 1533.30 280.89 1520.97 278.74 1511.46 271.55 C 1503.09 265.34 1498.12 255.36 1496.83 245.15 C 1495.44 234.18 1496.38 222.56 1501.53 212.61 C 1505.60 204.40 1512.51 197.53 1521.00 193.97 M 1528.54 211.54 C 1522.71 214.64 1520.30 221.37 1519.38 227.54 C 1530.86 227.57 1542.34 227.59 1553.82 227.52 C 1553.47 223.18 1552.69 218.61 1549.82 215.16 C 1544.91 208.88 1535.32 208.08 1528.54 211.54 Z" />
<path fill="#ffffff" opacity="1.00" d=" M 1593.25 195.62 C 1606.22 192.33 1619.65 190.37 1633.05 191.33 C 1641.11 191.93 1649.48 194.94 1654.63 201.45 C 1660.55 208.90 1661.88 218.77 1662.17 227.99 C 1662.21 244.87 1662.18 261.75 1662.19 278.63 C 1654.70 278.63 1647.22 278.63 1639.75 278.63 C 1639.74 263.41 1639.76 248.20 1639.74 232.98 C 1639.61 227.54 1639.48 221.91 1637.41 216.81 C 1636.21 213.65 1633.16 211.58 1629.93 211.02 C 1625.22 210.24 1620.44 210.87 1615.75 211.35 C 1615.74 233.78 1615.75 256.20 1615.75 278.63 C 1608.24 278.63 1600.75 278.63 1593.25 278.63 C 1593.25 250.96 1593.25 223.29 1593.25 195.62 Z" />
<path fill="#ffffff" opacity="1.00" d=" M 1684.38 195.62 C 1697.64 192.27 1711.41 190.26 1725.11 191.42 C 1733.05 192.14 1741.22 195.36 1746.14 201.91 C 1751.97 209.61 1753.11 219.64 1753.36 229.01 C 1753.40 245.55 1753.36 262.09 1753.38 278.63 C 1745.87 278.63 1738.37 278.63 1730.87 278.63 C 1730.82 262.16 1730.98 245.70 1730.79 229.24 C 1730.30 223.70 1730.26 217.06 1725.79 213.08 C 1720.28 209.22 1713.10 210.93 1706.88 211.36 C 1706.87 233.78 1706.87 256.20 1706.87 278.63 C 1699.37 278.62 1691.87 278.63 1684.37 278.63 C 1684.37 250.96 1684.37 223.29 1684.38 195.62 Z" />
<path fill="#ffffff" opacity="1.00" d=" M 1794.87 193.78 C 1803.86 189.99 1814.10 189.93 1823.46 192.38 C 1831.77 194.54 1839.09 200.19 1843.13 207.80 C 1848.95 218.54 1849.37 231.20 1848.57 243.12 C 1829.97 243.14 1811.38 243.10 1792.79 243.14 C 1792.78 249.84 1797.27 255.76 1803.36 258.28 C 1815.34 263.52 1828.93 260.64 1840.87 256.73 C 1841.88 263.14 1842.94 269.54 1843.97 275.95 C 1835.59 278.70 1826.88 280.71 1818.03 280.64 C 1806.60 280.85 1794.57 278.72 1785.21 271.78 C 1776.67 265.59 1771.58 255.51 1770.27 245.18 C 1768.85 234.07 1769.83 222.29 1775.15 212.27 C 1779.29 204.06 1786.31 197.26 1794.87 193.78 M 1797.87 214.88 C 1794.81 218.41 1793.56 223.05 1792.82 227.55 C 1804.29 227.56 1815.77 227.57 1827.25 227.55 C 1827.08 221.20 1824.57 214.23 1818.52 211.28 C 1811.87 208.14 1802.79 209.06 1797.87 214.88 Z" />
<path fill="#ffffff" opacity="1.00" d=" M 1875.22 199.23 C 1881.99 193.27 1891.26 191.20 1900.06 190.81 C 1910.86 190.43 1921.94 191.42 1932.01 195.59 C 1930.87 201.96 1929.69 208.33 1928.53 214.70 C 1917.70 210.96 1905.96 207.62 1894.53 210.68 C 1891.32 211.63 1888.03 215.30 1890.21 218.67 C 1893.58 223.22 1899.47 224.67 1904.52 226.60 C 1913.58 229.82 1923.68 232.26 1930.36 239.69 C 1936.40 246.19 1937.16 256.20 1934.13 264.25 C 1932.00 269.99 1926.95 274.11 1921.45 276.45 C 1911.61 280.68 1900.62 281.00 1890.09 280.42 C 1881.33 279.96 1873.11 276.70 1865.03 273.58 C 1866.16 267.28 1867.35 260.99 1868.50 254.70 C 1877.63 258.14 1887.00 261.82 1896.93 261.63 C 1901.60 261.52 1906.50 261.61 1910.93 259.86 C 1914.49 258.51 1914.42 253.41 1911.86 251.13 C 1908.61 248.18 1904.19 247.11 1900.17 245.65 C 1890.94 242.56 1880.79 240.39 1873.57 233.41 C 1864.10 224.43 1865.52 207.50 1875.22 199.23 Z" />
<path fill="#ffffff" opacity="1.00" d=" M 1966.33 199.25 C 1972.80 193.55 1981.61 191.38 1990.04 190.87 C 2001.23 190.32 2012.71 191.32 2023.17 195.56 C 2022.01 201.94 2020.84 208.32 2019.67 214.70 C 2008.98 210.98 1997.44 207.74 1986.12 210.55 C 1983.36 211.36 1980.21 213.73 1980.73 216.95 C 1981.34 220.04 1984.36 221.74 1986.93 223.10 C 1996.97 228.01 2008.63 229.49 2017.78 236.25 C 2023.13 240.12 2026.63 246.35 2027.00 252.98 L 2027.00 256.11 C 2026.71 262.98 2023.56 269.87 2017.66 273.66 C 2007.22 280.50 1994.14 281.01 1982.06 280.48 C 1973.01 280.15 1964.51 276.81 1956.18 273.59 C 1957.31 267.29 1958.49 261.00 1959.65 254.71 C 1968.47 257.99 1977.47 261.59 1987.04 261.62 C 1992.00 261.58 1997.17 261.68 2001.91 259.94 C 2005.59 258.66 2005.65 253.45 2002.99 251.12 C 1999.49 248.00 1994.76 246.91 1990.47 245.37 C 1981.48 242.41 1971.65 240.19 1964.68 233.35 C 1955.25 224.39 1956.69 207.52 1966.33 199.25 Z" />
<path fill="#ffffff" opacity="1.00" d=" M 284.81 236.14 C 291.32 230.42 300.52 227.85 308.99 229.99 C 319.71 232.43 328.28 242.11 329.33 253.07 C 330.33 261.11 327.17 269.27 321.58 275.03 C 309.29 262.10 297.08 249.10 284.81 236.14 Z" />
<path fill="#ffffff" opacity="1.00" d=" M 679.98 268.02 C 679.73 259.71 686.68 252.04 695.06 251.82 C 711.37 251.65 727.69 251.80 744.00 251.75 C 763.99 251.42 785.24 252.61 802.79 263.22 C 815.21 270.56 823.44 283.77 825.77 297.88 C 828.33 313.33 827.46 329.96 820.34 344.15 C 814.81 355.25 804.92 363.66 793.78 368.82 C 804.53 387.84 815.23 406.89 825.99 425.91 C 828.28 429.97 830.44 435.02 828.39 439.63 C 826.32 444.00 821.12 445.41 816.68 445.58 C 809.56 445.66 802.45 445.65 795.34 445.59 C 788.96 445.50 782.81 441.85 779.85 436.18 C 769.49 416.62 759.23 397.01 748.89 377.44 C 741.45 377.44 734.00 377.44 726.56 377.44 C 726.55 392.95 726.59 408.46 726.55 423.97 C 726.42 430.31 724.50 437.20 719.25 441.21 C 713.84 445.34 706.66 445.94 700.10 445.51 C 694.35 445.11 688.28 443.15 684.59 438.49 C 680.64 433.62 679.86 427.08 679.93 421.02 C 679.97 370.02 679.88 319.02 679.98 268.02 M 726.56 288.69 C 726.56 305.96 726.56 323.23 726.56 340.50 C 734.69 340.44 742.83 340.61 750.96 340.42 C 759.46 340.01 768.66 338.09 774.76 331.70 C 781.43 324.54 782.32 313.70 780.21 304.54 C 778.70 297.97 773.17 293.06 766.83 291.23 C 753.81 287.16 739.97 289.19 726.56 288.69 Z" />
<path fill="#ffffff" opacity="1.00" d=" M 872.47 267.34 C 872.48 259.05 879.75 251.77 888.05 251.78 C 917.69 251.70 947.34 251.77 976.98 251.75 C 983.15 251.65 990.06 254.00 992.99 259.84 C 996.09 266.30 996.10 274.15 993.69 280.83 C 991.37 287.21 984.40 290.39 977.97 290.40 C 958.33 290.49 938.70 290.41 919.06 290.44 C 919.06 302.38 919.06 314.31 919.06 326.25 C 934.40 326.26 949.75 326.24 965.09 326.26 C 970.04 326.31 975.35 327.43 978.97 331.05 C 982.63 334.67 983.81 340.02 983.90 345.01 C 984.01 350.36 983.14 356.21 979.38 360.29 C 975.75 364.24 970.15 365.46 964.99 365.50 C 949.68 365.51 934.37 365.50 919.06 365.50 C 919.06 379.12 919.06 392.75 919.06 406.37 C 939.04 406.38 959.03 406.36 979.01 406.38 C 984.43 406.40 990.36 407.65 994.09 411.90 C 997.92 416.26 998.62 422.41 998.36 428.00 C 998.13 432.99 996.57 438.31 992.57 441.59 C 988.56 444.93 983.13 445.69 978.07 445.64 C 948.14 445.59 918.20 445.68 888.27 445.59 C 879.83 445.68 872.40 438.29 872.47 429.85 C 872.42 375.68 872.41 321.51 872.47 267.34 Z" />
<path fill="#ffffff" opacity="1.00" d=" M 1060.15 252.10 C 1074.72 251.29 1089.37 251.98 1103.98 251.75 C 1128.96 251.46 1155.12 255.58 1176.19 269.82 C 1188.93 278.22 1198.80 290.74 1204.13 305.03 C 1211.21 323.77 1212.14 344.29 1210.26 364.06 C 1208.42 381.70 1202.73 399.43 1191.21 413.20 C 1179.24 427.57 1162.13 437.02 1144.13 441.54 C 1132.01 444.63 1119.45 445.73 1106.97 445.63 C 1091.09 445.58 1075.21 445.72 1059.34 445.56 C 1052.54 445.55 1046.26 439.88 1046.40 432.92 C 1046.35 377.92 1046.37 322.91 1046.39 267.91 C 1046.25 260.13 1052.55 253.23 1060.15 252.10 M 1096.25 288.94 C 1096.25 328.69 1096.25 368.44 1096.25 408.19 C 1106.20 408.34 1116.32 408.07 1125.90 405.07 C 1137.30 401.66 1147.91 394.19 1153.22 383.31 C 1160.10 369.34 1160.71 353.25 1159.78 337.99 C 1158.73 324.26 1154.89 309.27 1143.46 300.48 C 1130.21 290.03 1112.52 288.45 1096.25 288.94 Z" />
<path fill="#ffffff" opacity="1.00" d=" M 205.12 283.04 C 216.16 280.24 228.20 288.70 229.34 300.01 C 231.04 310.67 222.62 321.52 211.88 322.53 C 201.61 324.04 191.18 316.23 189.71 305.97 C 187.73 295.80 194.97 285.05 205.12 283.04 Z" />
<path fill="#ffffff" opacity="1.00" d=" M 1881.25 306.82 C 1888.75 305.60 1896.24 304.38 1903.75 303.16 C 1903.74 311.54 1903.74 319.93 1903.75 328.31 C 1915.73 328.31 1927.71 328.31 1939.69 328.31 C 1939.68 334.54 1939.68 340.77 1939.69 347.00 C 1927.71 347.00 1915.73 347.00 1903.75 347.00 C 1903.79 359.33 1903.65 371.66 1903.82 383.99 C 1903.92 388.70 1905.72 394.60 1910.89 395.87 C 1920.08 397.51 1929.81 396.06 1938.21 391.96 C 1939.23 398.43 1940.28 404.90 1941.32 411.38 C 1929.47 415.94 1916.42 416.86 1903.89 415.46 C 1897.48 414.79 1890.87 412.24 1887.04 406.82 C 1881.95 399.66 1881.33 390.51 1881.25 382.02 C 1881.25 370.34 1881.25 358.67 1881.25 347.00 C 1874.74 347.00 1868.24 347.00 1861.75 347.00 C 1861.74 340.77 1861.74 334.54 1861.75 328.31 C 1868.24 328.31 1874.74 328.31 1881.25 328.31 C 1881.24 321.15 1881.25 313.98 1881.25 306.82 Z" />
<path fill="#ffffff" opacity="1.00" d=" M 319.30 307.42 C 320.45 309.05 323.13 311.08 321.07 313.05 C 319.08 315.40 316.63 312.93 315.13 311.41 C 316.49 310.05 317.89 308.73 319.30 307.42 Z" />
<path fill="#ffffff" opacity="1.00" d=" M 327.40 324.40 C 328.77 323.05 330.18 321.73 331.60 320.43 C 332.75 322.03 335.54 324.38 333.19 326.19 C 331.16 328.38 328.90 325.84 327.40 324.40 Z" />
<path fill="#ffffff" opacity="1.00" d=" M 1711.55 326.69 C 1721.95 325.04 1733.18 326.91 1741.83 333.14 C 1750.37 339.13 1755.78 348.80 1757.82 358.90 C 1759.57 367.68 1759.43 376.87 1757.30 385.57 C 1754.54 396.61 1747.59 406.95 1737.28 412.17 C 1723.04 419.33 1704.22 417.67 1692.28 406.76 C 1684.70 399.96 1680.26 390.19 1678.83 380.21 C 1677.24 368.90 1678.40 356.89 1683.83 346.70 C 1689.19 336.09 1699.79 328.45 1711.55 326.69 M 1712.45 346.81 C 1708.90 348.17 1706.18 351.11 1704.50 354.46 C 1701.40 360.48 1700.82 367.43 1701.11 374.09 C 1701.39 379.76 1702.50 385.58 1705.57 390.45 C 1710.86 399.03 1725.14 399.04 1730.78 390.83 C 1735.06 384.83 1736.08 377.20 1735.97 370.01 C 1735.79 363.48 1734.73 356.59 1730.83 351.16 C 1726.72 345.57 1718.63 344.53 1712.45 346.81 Z" />
<path fill="#ffffff" opacity="1.00" d=" M 1502.13 331.01 C 1512.78 327.88 1523.91 326.59 1534.99 326.49 C 1544.33 326.44 1554.11 328.58 1561.50 334.59 C 1570.02 341.46 1574.55 352.21 1575.71 362.91 C 1576.87 374.23 1575.96 386.02 1571.51 396.59 C 1568.36 404.11 1562.56 410.74 1554.88 413.78 C 1545.11 417.73 1533.95 416.24 1524.55 411.97 C 1524.58 422.69 1524.55 433.41 1524.56 444.13 C 1517.08 444.12 1509.60 444.12 1502.13 444.13 C 1502.13 406.42 1502.12 368.71 1502.13 331.01 M 1524.56 346.44 C 1524.58 362.16 1524.52 377.89 1524.59 393.61 C 1530.97 396.55 1539.12 398.41 1545.50 394.54 C 1551.89 389.91 1552.95 381.23 1553.30 373.94 C 1553.51 365.31 1552.19 355.53 1545.59 349.31 C 1539.81 344.19 1531.55 345.84 1524.56 346.44 Z" />
<path fill="#ffffff" opacity="1.00" d=" M 1593.25 331.01 C 1603.86 327.90 1614.96 326.61 1626.00 326.49 C 1635.10 326.43 1644.61 328.40 1651.96 334.06 C 1660.32 340.44 1665.10 350.57 1666.57 360.83 C 1668.03 371.37 1667.45 382.31 1664.21 392.48 C 1661.52 400.95 1656.11 408.98 1647.93 412.92 C 1637.83 417.89 1625.73 416.55 1615.74 411.97 C 1615.75 422.69 1615.74 433.41 1615.75 444.13 C 1608.24 444.12 1600.75 444.12 1593.25 444.13 C 1593.25 406.42 1593.25 368.72 1593.25 331.01 M 1615.75 346.44 C 1615.75 362.15 1615.74 377.87 1615.76 393.59 C 1622.25 396.63 1630.80 398.54 1637.15 394.19 C 1642.83 389.64 1643.99 381.77 1644.40 374.94 C 1644.75 365.98 1643.58 355.73 1636.68 349.26 C 1630.90 344.21 1622.70 345.84 1615.75 346.44 Z" />
<path fill="#ffffff" opacity="1.00" d=" M 1780.25 333.97 C 1801.67 325.74 1825.60 324.45 1847.78 330.24 C 1846.50 337.22 1845.10 344.18 1843.78 351.16 C 1830.43 348.06 1816.33 346.93 1802.94 350.40 C 1802.94 371.62 1802.94 392.84 1802.94 414.06 C 1795.37 414.06 1787.81 414.06 1780.25 414.06 C 1780.25 387.36 1780.25 360.67 1780.25 333.97 Z" />
<path fill="#ffffff" opacity="1.00" d=" M 1410.25 328.31 C 1417.73 328.31 1425.21 328.31 1432.69 328.31 C 1432.75 344.51 1432.57 360.71 1432.78 376.90 C 1433.22 382.58 1433.45 389.08 1437.52 393.51 C 1442.76 398.14 1450.38 396.28 1456.67 395.66 C 1456.70 373.21 1456.67 350.76 1456.69 328.31 C 1464.25 328.31 1471.81 328.31 1479.38 328.31 C 1479.38 355.93 1479.37 383.55 1479.38 411.17 C 1465.87 414.60 1451.89 417.10 1437.92 415.69 C 1429.98 414.93 1421.90 411.55 1417.11 404.94 C 1411.62 397.54 1410.60 388.00 1410.27 379.08 C 1410.22 362.16 1410.27 345.23 1410.25 328.31 Z" />
<path fill="#ffffff" opacity="1.00" d=" M 340.47 335.76 C 342.96 333.38 347.71 335.38 347.02 338.96 C 346.04 342.64 341.30 346.96 337.52 344.38 C 334.57 341.52 337.80 337.45 340.47 335.76 Z" />
<path fill="#ffffff" opacity="1.00" d=" M 353.99 352.01 C 355.29 350.79 356.58 349.57 357.89 348.35 C 358.98 349.95 361.80 351.86 359.92 353.88 C 357.87 356.20 355.53 353.49 353.99 352.01 Z" />
</g>
<g id="#ff0c00ff">
<path fill="#ff0c00" opacity="1.00" d=" M 1344.00 28.92 C 1358.59 26.06 1374.04 28.42 1387.17 35.38 C 1384.99 41.19 1382.76 46.97 1380.60 52.78 C 1374.49 49.65 1367.93 47.02 1360.99 46.72 C 1355.70 46.46 1350.05 46.53 1345.30 49.15 C 1339.25 52.34 1337.73 61.65 1342.59 66.51 C 1347.23 71.54 1354.01 73.52 1360.19 75.95 C 1366.84 78.62 1373.82 80.92 1379.54 85.39 C 1386.04 90.31 1390.82 97.72 1391.81 105.89 C 1393.18 115.81 1391.64 126.93 1384.53 134.49 C 1377.30 142.34 1366.22 144.88 1355.95 145.46 C 1345.92 145.87 1335.56 145.55 1326.11 141.85 C 1322.48 140.51 1318.98 138.89 1315.57 137.10 C 1317.76 130.99 1319.97 124.88 1322.16 118.77 C 1329.23 122.60 1336.79 126.03 1344.94 126.53 C 1351.31 126.95 1358.24 127.20 1363.94 123.82 C 1368.80 121.01 1370.57 114.70 1369.40 109.45 C 1368.25 105.49 1364.92 102.66 1361.57 100.51 C 1352.12 94.58 1340.78 92.64 1331.32 86.73 C 1324.30 82.37 1318.65 75.21 1317.60 66.85 C 1316.53 58.29 1317.77 49.02 1322.88 41.85 C 1327.78 34.87 1335.75 30.56 1344.00 28.92 Z" />
<path fill="#ff0c00" opacity="1.00" d=" M 1346.54 163.79 C 1356.00 162.31 1366.26 163.41 1374.49 168.61 C 1381.74 173.16 1386.70 180.62 1389.63 188.54 C 1393.45 198.91 1394.48 210.07 1394.62 221.05 C 1394.64 231.59 1393.83 242.27 1390.68 252.38 C 1388.26 260.14 1384.16 267.59 1377.91 272.91 C 1372.67 277.45 1365.94 280.08 1359.07 280.76 C 1350.29 281.64 1340.97 280.39 1333.43 275.56 C 1325.99 270.87 1320.94 263.17 1318.02 255.01 C 1313.92 243.50 1313.09 231.12 1313.27 218.99 C 1313.61 205.75 1315.38 191.94 1322.40 180.43 C 1327.60 171.79 1336.48 165.31 1346.54 163.79 M 1348.46 183.62 C 1344.57 184.98 1341.87 188.45 1340.21 192.07 C 1336.87 199.55 1336.51 207.89 1336.19 215.95 C 1336.01 225.26 1335.99 234.66 1337.62 243.86 C 1338.80 249.79 1341.03 256.22 1346.39 259.62 C 1352.16 262.78 1360.43 262.03 1364.73 256.72 C 1368.85 251.80 1370.16 245.25 1370.95 239.04 C 1372.02 228.37 1371.99 217.60 1371.14 206.91 C 1370.41 199.88 1369.15 192.28 1364.22 186.87 C 1360.35 182.52 1353.73 181.91 1348.46 183.62 Z" />
<path fill="#ff0c00" opacity="1.00" d=" M 1343.82 299.79 C 1358.46 296.88 1373.98 299.23 1387.17 306.21 C 1384.99 312.02 1382.76 317.80 1380.60 323.62 C 1373.08 319.59 1364.67 316.95 1356.06 317.47 C 1350.97 317.68 1345.12 318.64 1341.87 323.00 C 1338.92 327.22 1338.83 333.67 1342.65 337.41 C 1347.30 342.39 1354.04 344.36 1360.20 346.79 C 1366.86 349.46 1373.86 351.76 1379.58 356.26 C 1386.11 361.19 1390.87 368.67 1391.83 376.87 C 1393.18 386.81 1391.58 397.97 1384.38 405.47 C 1377.15 413.22 1366.17 415.70 1355.98 416.29 C 1346.01 416.70 1335.70 416.39 1326.28 412.75 C 1322.60 411.39 1319.03 409.76 1315.57 407.94 C 1317.75 401.82 1319.97 395.71 1322.16 389.60 C 1329.26 393.46 1336.86 396.88 1345.05 397.37 C 1351.57 397.79 1358.77 398.05 1364.48 394.30 C 1368.93 391.38 1370.46 385.44 1369.44 380.43 C 1368.27 376.19 1364.63 373.23 1361.04 371.02 C 1351.72 365.36 1340.68 363.37 1331.41 357.62 C 1324.41 353.29 1318.72 346.19 1317.63 337.86 C 1316.51 329.28 1317.73 319.99 1322.81 312.78 C 1327.67 305.80 1335.60 301.47 1343.82 299.79 Z" />
<path fill="#ff0c00" opacity="1.00" d=" M 563.42 319.74 C 568.86 318.18 574.77 318.23 580.18 319.92 C 590.49 323.27 598.16 333.22 599.09 343.98 C 600.93 356.75 593.48 370.50 581.14 374.86 C 572.09 378.00 561.22 376.58 553.98 370.06 C 543.34 361.17 541.07 344.62 547.71 332.70 C 551.12 326.67 556.72 321.73 563.42 319.74 Z" />
</g>
</svg>
